<!-- labs-diagrams source e83753c6c444d1947f4bfea77e67bb8b26743a47e8264bf11688171cea9af9d0 -->
<svg xmlns="http://www.w3.org/2000/svg" xmlns:xlink="http://www.w3.org/1999/xlink" id="az700-41-appgw-waf-1" width="641" height="1008" viewBox="-12 -12 641 1008" role="img" aria-labelledby="az700-41-appgw-waf-1-t az700-41-appgw-waf-1-d"><title id="az700-41-appgw-waf-1-t">A request through the application gateway</title><desc id="az700-41-appgw-waf-1-d">A tunnel client resolves app.lab41.internal to agw-hub's private frontend. Plain HTTP on listener-http gets a permanent redirect to HTTPS; listener-https terminates TLS with cert-app from the key vault, then the WAF policy waf-hub, in Prevention mode, returns 403 to anything the Default Rule Set 2.1 or the custom rule BlockAttackQuery (attack=1 in the query string) matches. Other requests go to both VMs on port 80, and every response gets X-Lab: 41 and loses its Server header.</desc><rect x="-12" y="-12" width="641" height="1008" fill="#ffffff"/><style>#az700-41-appgw-waf-1{font-family:'Segoe UI','Helvetica Neue',Arial,sans-serif;font-size:14px;fill:#0f1b2d;}@keyframes edge-animation-frame{from{stroke-dashoffset:0;}}@keyframes dash{to{stroke-dashoffset:0;}}#az700-41-appgw-waf-1 .edge-animation-slow{stroke-dasharray:9,5!important;stroke-dashoffset:900;animation:dash 50s linear infinite;stroke-linecap:round;}#az700-41-appgw-waf-1 .edge-animation-fast{stroke-dasharray:9,5!important;stroke-dashoffset:900;animation:dash 20s linear infinite;stroke-linecap:round;}#az700-41-appgw-waf-1 .error-icon{fill:#ffffff;}#az700-41-appgw-waf-1 .error-text{fill:#0f1b2d;stroke:#0f1b2d;}#az700-41-appgw-waf-1 .edge-thickness-normal{stroke-width:1px;}#az700-41-appgw-waf-1 .edge-thickness-thick{stroke-width:3.5px;}#az700-41-appgw-waf-1 .edge-pattern-solid{stroke-dasharray:0;}#az700-41-appgw-waf-1 .edge-thickness-invisible{stroke-width:0;fill:none;}#az700-41-appgw-waf-1 .edge-pattern-dashed{stroke-dasharray:3;}#az700-41-appgw-waf-1 .edge-pattern-dotted{stroke-dasharray:2;}#az700-41-appgw-waf-1 .marker{fill:#44546a;stroke:#44546a;}#az700-41-appgw-waf-1 .marker.cross{stroke:#44546a;}#az700-41-appgw-waf-1 svg{font-family:'Segoe UI','Helvetica Neue',Arial,sans-serif;font-size:14px;}#az700-41-appgw-waf-1 p{margin:0;}#az700-41-appgw-waf-1 .label{font-family:'Segoe UI','Helvetica Neue',Arial,sans-serif;color:#0f1b2d;}#az700-41-appgw-waf-1 .cluster-label text{fill:#0f1b2d;}#az700-41-appgw-waf-1 .cluster-label span{color:#0f1b2d;}#az700-41-appgw-waf-1 .cluster-label span p{background-color:transparent;}#az700-41-appgw-waf-1 .label text,#az700-41-appgw-waf-1 span{fill:#0f1b2d;color:#0f1b2d;}#az700-41-appgw-waf-1 .node rect,#az700-41-appgw-waf-1 .node circle,#az700-41-appgw-waf-1 .node ellipse,#az700-41-appgw-waf-1 .node polygon,#az700-41-appgw-waf-1 .node path{fill:#eaf0fa;stroke:#2563eb;stroke-width:1px;}#az700-41-appgw-waf-1 .rough-node .label text,#az700-41-appgw-waf-1 .node .label text,#az700-41-appgw-waf-1 .image-shape .label,#az700-41-appgw-waf-1 .icon-shape .label{text-anchor:middle;}#az700-41-appgw-waf-1 .node .katex path{fill:#000;stroke:#000;stroke-width:1px;}#az700-41-appgw-waf-1 .rough-node .label,#az700-41-appgw-waf-1 .node .label,#az700-41-appgw-waf-1 .image-shape .label,#az700-41-appgw-waf-1 .icon-shape .label{text-align:center;}#az700-41-appgw-waf-1 .node.clickable{cursor:pointer;}#az700-41-appgw-waf-1 .root .anchor path{fill:#44546a!important;stroke-width:0;stroke:#44546a;}#az700-41-appgw-waf-1 .arrowheadPath{fill:#000000;}#az700-41-appgw-waf-1 .edgePaths .path{stroke:#44546a;stroke-width:1px;}#az700-41-appgw-waf-1 .flowchart-link{stroke:#44546a;fill:none;}#az700-41-appgw-waf-1 .edgeLabel{background-color:#ffffff;text-align:center;}#az700-41-appgw-waf-1 .edgeLabel p{background-color:#ffffff;}#az700-41-appgw-waf-1 .edgeLabel rect{opacity:0.5;background-color:#ffffff;fill:#ffffff;}#az700-41-appgw-waf-1 .labelBkg{background-color:rgba(255, 255, 255, 0.5);}#az700-41-appgw-waf-1 .cluster rect{fill:#f9fbfd;stroke:#768498;stroke-width:1px;}#az700-41-appgw-waf-1 .cluster text{fill:#0f1b2d;}#az700-41-appgw-waf-1 .cluster span{color:#0f1b2d;}#az700-41-appgw-waf-1 .node .collapsed-indicator{fill:#768498;stroke:none;opacity:0.6;}#az700-41-appgw-waf-1 .node .collapsed-separator{stroke:#768498;stroke-width:0.75px;}#az700-41-appgw-waf-1 div.mermaidTooltip{position:absolute;text-align:center;max-width:200px;padding:2px;font-family:'Segoe UI','Helvetica Neue',Arial,sans-serif;font-size:12px;background:#ffffff;border:1px solid #c3cddb;border-radius:2px;pointer-events:none;z-index:100;}#az700-41-appgw-waf-1 .flowchartTitleText{text-anchor:middle;font-size:18px;fill:#0f1b2d;}#az700-41-appgw-waf-1 rect.text{fill:none;stroke-width:0;}#az700-41-appgw-waf-1 .icon-shape,#az700-41-appgw-waf-1 .image-shape{background-color:#ffffff;text-align:center;}#az700-41-appgw-waf-1 .icon-shape p,#az700-41-appgw-waf-1 .image-shape p{background-color:#ffffff;padding:2px;}#az700-41-appgw-waf-1 .icon-shape .label rect,#az700-41-appgw-waf-1 .image-shape .label rect{opacity:0.5;background-color:#ffffff;fill:#ffffff;}#az700-41-appgw-waf-1 .label-icon{display:inline-block;height:1em;overflow:visible;vertical-align:-0.125em;}#az700-41-appgw-waf-1 .node .label-icon path{fill:currentColor;stroke:revert;stroke-width:revert;}#az700-41-appgw-waf-1 .node .neo-node{stroke:#2563eb;}#az700-41-appgw-waf-1 [data-look="neo"].node rect,#az700-41-appgw-waf-1 [data-look="neo"].cluster rect,#az700-41-appgw-waf-1 [data-look="neo"].node polygon{stroke:#2563eb;filter:drop-shadow( 1px 2px 2px rgba(185,185,185,1));}#az700-41-appgw-waf-1 [data-look="neo"].swimlane.cluster rect{filter:none;}#az700-41-appgw-waf-1 [data-look="neo"].node path{stroke:#2563eb;stroke-width:1px;}#az700-41-appgw-waf-1 [data-look="neo"].node .outer-path{filter:drop-shadow( 1px 2px 2px rgba(185,185,185,1));}#az700-41-appgw-waf-1 [data-look="neo"].node .neo-line path{stroke:#2563eb;filter:none;}#az700-41-appgw-waf-1 [data-look="neo"].node circle{stroke:#2563eb;filter:drop-shadow( 1px 2px 2px rgba(185,185,185,1));}#az700-41-appgw-waf-1 [data-look="neo"].node circle .state-start{fill:#000000;}#az700-41-appgw-waf-1 [data-look="neo"].icon-shape .icon{fill:#2563eb;filter:drop-shadow( 1px 2px 2px rgba(185,185,185,1));}#az700-41-appgw-waf-1 [data-look="neo"].icon-shape .icon-neo path{stroke:#2563eb;filter:drop-shadow( 1px 2px 2px rgba(185,185,185,1));}#az700-41-appgw-waf-1 :root{--mermaid-font-family:'Segoe UI','Helvetica Neue',Arial,sans-serif;}#az700-41-appgw-waf-1 .azure rect{fill:rgb(234, 240, 250)!important;stroke:rgb(37, 99, 235)!important;color:rgb(15, 27, 45)!important;}#az700-41-appgw-waf-1 .azure polygon{fill:rgb(234, 240, 250)!important;stroke:rgb(37, 99, 235)!important;color:rgb(15, 27, 45)!important;}#az700-41-appgw-waf-1 .azure ellipse{fill:rgb(234, 240, 250)!important;stroke:rgb(37, 99, 235)!important;color:rgb(15, 27, 45)!important;}#az700-41-appgw-waf-1 .azure circle{fill:rgb(234, 240, 250)!important;stroke:rgb(37, 99, 235)!important;color:rgb(15, 27, 45)!important;}#az700-41-appgw-waf-1 .azure path{fill:rgb(234, 240, 250)!important;stroke:rgb(37, 99, 235)!important;color:rgb(15, 27, 45)!important;}#az700-41-appgw-waf-1 .azure tspan{fill:rgb(15, 27, 45)!important;}#az700-41-appgw-waf-1 .client rect{fill:rgb(244, 247, 251)!important;stroke:rgb(118, 132, 152)!important;color:rgb(15, 27, 45)!important;}#az700-41-appgw-waf-1 .client polygon{fill:rgb(244, 247, 251)!important;stroke:rgb(118, 132, 152)!important;color:rgb(15, 27, 45)!important;}#az700-41-appgw-waf-1 .client ellipse{fill:rgb(244, 247, 251)!important;stroke:rgb(118, 132, 152)!important;color:rgb(15, 27, 45)!important;}#az700-41-appgw-waf-1 .client circle{fill:rgb(244, 247, 251)!important;stroke:rgb(118, 132, 152)!important;color:rgb(15, 27, 45)!important;}#az700-41-appgw-waf-1 .client path{fill:rgb(244, 247, 251)!important;stroke:rgb(118, 132, 152)!important;color:rgb(15, 27, 45)!important;}#az700-41-appgw-waf-1 .client tspan{fill:rgb(15, 27, 45)!important;}#az700-41-appgw-waf-1 .rule rect{fill:rgb(255, 247, 230)!important;stroke:rgb(180, 83, 9)!important;color:rgb(15, 27, 45)!important;}#az700-41-appgw-waf-1 .rule polygon{fill:rgb(255, 247, 230)!important;stroke:rgb(180, 83, 9)!important;color:rgb(15, 27, 45)!important;}#az700-41-appgw-waf-1 .rule ellipse{fill:rgb(255, 247, 230)!important;stroke:rgb(180, 83, 9)!important;color:rgb(15, 27, 45)!important;}#az700-41-appgw-waf-1 .rule circle{fill:rgb(255, 247, 230)!important;stroke:rgb(180, 83, 9)!important;color:rgb(15, 27, 45)!important;}#az700-41-appgw-waf-1 .rule path{fill:rgb(255, 247, 230)!important;stroke:rgb(180, 83, 9)!important;color:rgb(15, 27, 45)!important;}#az700-41-appgw-waf-1 .rule tspan{fill:rgb(15, 27, 45)!important;}#az700-41-appgw-waf-1 .bad rect{fill:rgb(253, 236, 236)!important;stroke:rgb(198, 40, 40)!important;color:rgb(15, 27, 45)!important;}#az700-41-appgw-waf-1 .bad polygon{fill:rgb(253, 236, 236)!important;stroke:rgb(198, 40, 40)!important;color:rgb(15, 27, 45)!important;}#az700-41-appgw-waf-1 .bad ellipse{fill:rgb(253, 236, 236)!important;stroke:rgb(198, 40, 40)!important;color:rgb(15, 27, 45)!important;}#az700-41-appgw-waf-1 .bad circle{fill:rgb(253, 236, 236)!important;stroke:rgb(198, 40, 40)!important;color:rgb(15, 27, 45)!important;}#az700-41-appgw-waf-1 .bad path{fill:rgb(253, 236, 236)!important;stroke:rgb(198, 40, 40)!important;color:rgb(15, 27, 45)!important;}#az700-41-appgw-waf-1 .bad tspan{fill:rgb(15, 27, 45)!important;}</style><g><marker id="az700-41-appgw-waf-1_flowchart-v2-pointEnd" class="marker flowchart-v2" viewBox="0 0 10 10" refX="5" refY="5" markerUnits="userSpaceOnUse" markerWidth="8" markerHeight="8" orient="auto"><path d="M 0 0 L 10 5 L 0 10 z" class="arrowMarkerPath" style="stroke-width: 1; stroke-dasharray: 1, 0;"></path></marker><marker id="az700-41-appgw-waf-1_flowchart-v2-pointStart" class="marker flowchart-v2" viewBox="0 0 10 10" refX="4.5" refY="5" markerUnits="userSpaceOnUse" markerWidth="8" markerHeight="8" orient="auto"><path d="M 0 5 L 10 10 L 10 0 z" class="arrowMarkerPath" style="stroke-width: 1; stroke-dasharray: 1, 0;"></path></marker><marker id="az700-41-appgw-waf-1_flowchart-v2-pointEnd-margin" class="marker flowchart-v2" viewBox="0 0 11.5 14" refX="11.5" refY="7" markerUnits="userSpaceOnUse" markerWidth="10.5" markerHeight="14" orient="auto"><path d="M 0 0 L 11.5 7 L 0 14 z" class="arrowMarkerPath" style="stroke-width: 0; stroke-dasharray: 1, 0;"></path></marker><marker id="az700-41-appgw-waf-1_flowchart-v2-pointStart-margin" class="marker flowchart-v2" viewBox="0 0 11.5 14" refX="1" refY="7" markerUnits="userSpaceOnUse" markerWidth="11.5" markerHeight="14" orient="auto"><polygon points="0,7 11.5,14 11.5,0" class="arrowMarkerPath" style="stroke-width: 0; stroke-dasharray: 1, 0;"></polygon></marker><marker id="az700-41-appgw-waf-1_flowchart-v2-circleEnd" class="marker flowchart-v2" viewBox="0 0 10 10" refX="11" refY="5" markerUnits="userSpaceOnUse" markerWidth="11" markerHeight="11" orient="auto"><circle cx="5" cy="5" r="5" class="arrowMarkerPath" style="stroke-width: 1; stroke-dasharray: 1, 0;"></circle></marker><marker id="az700-41-appgw-waf-1_flowchart-v2-circleStart" class="marker flowchart-v2" viewBox="0 0 10 10" refX="-1" refY="5" markerUnits="userSpaceOnUse" markerWidth="11" markerHeight="11" orient="auto"><circle cx="5" cy="5" r="5" class="arrowMarkerPath" style="stroke-width: 1; stroke-dasharray: 1, 0;"></circle></marker><marker id="az700-41-appgw-waf-1_flowchart-v2-circleEnd-margin" class="marker flowchart-v2" viewBox="0 0 10 10" refY="5" refX="12.25" markerUnits="userSpaceOnUse" markerWidth="14" markerHeight="14" orient="auto"><circle cx="5" cy="5" r="5" class="arrowMarkerPath" style="stroke-width: 0; stroke-dasharray: 1, 0;"></circle></marker><marker id="az700-41-appgw-waf-1_flowchart-v2-circleStart-margin" class="marker flowchart-v2" viewBox="0 0 10 10" refX="-2" refY="5" markerUnits="userSpaceOnUse" markerWidth="14" markerHeight="14" orient="auto"><circle cx="5" cy="5" r="5" class="arrowMarkerPath" style="stroke-width: 0; stroke-dasharray: 1, 0;"></circle></marker><marker id="az700-41-appgw-waf-1_flowchart-v2-crossEnd" class="marker cross flowchart-v2" viewBox="0 0 11 11" refX="12" refY="5.2" markerUnits="userSpaceOnUse" markerWidth="11" markerHeight="11" orient="auto"><path d="M 1,1 l 9,9 M 10,1 l -9,9" class="arrowMarkerPath" style="stroke-width: 2; stroke-dasharray: 1, 0;"></path></marker><marker id="az700-41-appgw-waf-1_flowchart-v2-crossStart" class="marker cross flowchart-v2" viewBox="0 0 11 11" refX="-1" refY="5.2" markerUnits="userSpaceOnUse" markerWidth="11" markerHeight="11" orient="auto"><path d="M 1,1 l 9,9 M 10,1 l -9,9" class="arrowMarkerPath" style="stroke-width: 2; stroke-dasharray: 1, 0;"></path></marker><marker id="az700-41-appgw-waf-1_flowchart-v2-crossEnd-margin" class="marker cross flowchart-v2" viewBox="0 0 15 15" refX="17.7" refY="7.5" markerUnits="userSpaceOnUse" markerWidth="12" markerHeight="12" orient="auto"><path d="M 1,1 L 14,14 M 1,14 L 14,1" class="arrowMarkerPath" style="stroke-width: 2.5;"></path></marker><marker id="az700-41-appgw-waf-1_flowchart-v2-crossStart-margin" class="marker cross flowchart-v2" viewBox="0 0 15 15" refX="-3.5" refY="7.5" markerUnits="userSpaceOnUse" markerWidth="12" markerHeight="12" orient="auto"><path d="M 1,1 L 14,14 M 1,14 L 14,1" class="arrowMarkerPath" style="stroke-width: 2.5; stroke-dasharray: 1, 0;"></path></marker><g class="root"><g class="clusters"></g><g class="edges edgePaths"><path d="M183.1,85.8L183.1,98.7Q183.1,105.8 176,105.8L41.6,105.8Q34.5,105.8 34.5,112.9L34.5,197.1Q34.5,204.2 41.6,204.2L59.4,204.2Q66.5,204.2 66.5,211.3L66.5,220.2" id="az700-41-appgw-waf-1-L_you_l80_0" class="edge-thickness-normal edge-pattern-solid edge-thickness-normal edge-pattern-solid flowchart-link" style="stroke-dasharray: 0 0 300.31494140625 4; stroke-dashoffset: 0;;" data-edge="true" data-et="edge" data-id="L_you_l80_0" data-points="W3sieCI6MTgzLjA4OTA0NDY5ODA3OTM2LCJ5Ijo4NS43OTk5OTU0MjIzNjMyOH0seyJ4IjoxODMuMDg5MDQ0Njk4MDc5MzYsInkiOjEwNS43OTk5OTU0MjIzNjMyOH0seyJ4IjozNC41LCJ5IjoxMDUuNzk5OTk1NDIyMzYzMjh9LHsieCI6MzQuNSwieSI6MjA0LjE5OTk5Njk0ODI0MjJ9LHsieCI6NjYuNDgyNTg0NjM1NDE2NjMsInkiOjIwNC4xOTk5OTY5NDgyNDIyfSx7IngiOjY2LjQ4MjU4NDYzNTQxNjYzLCJ5IjoyMjQuMTk5OTk2OTQ4MjQyMn1d" data-look="neo" marker-end="url(#az700-41-appgw-waf-1_flowchart-v2-pointEnd-margin)"></path><path d="M109.1,224.2L109.1,211.3Q109.1,204.2 116.2,204.2L134.1,204.2Q141.1,204.2 141.1,197.1L141.1,132.9Q141.1,125.8 148.2,125.8L211.8,125.8Q218.9,125.8 218.9,118.7L218.9,89.8" id="az700-41-appgw-waf-1-L_l80_you_0" class="edge-thickness-normal edge-pattern-dotted edge-thickness-normal edge-pattern-solid flowchart-link" style="stroke-dasharray: 0 0 2 2 2 2 2 2 2 2 2 2 2 2 2 2 2 2 2 2 2 2 2 2 2 2 2 2 2 2 2 2 2 2 2 2 2 2 2 2 2 2 2 2 2 2 2 2 2 2 2 2 2 2 2 2 2 2 2 2 2 2 2 2 2 2 2 2 2 2 2 2 2 2 2 2 2 2 2 2 2 2 2 2 2 2 2 2 2 2 2 2 2 2 2 2 2 2 2 2 2 2 2 2 2 2 2 2 2 2 2 2 2 2 2 2 4; stroke-dashoffset: 0;;" data-edge="true" data-et="edge" data-id="L_l80_you_0" data-points="W3sieCI6MTA5LjE0OTI1MTMwMjA4MzI5LCJ5IjoyMjQuMTk5OTk2OTQ4MjQyMn0seyJ4IjoxMDkuMTQ5MjUxMzAyMDgzMjksInkiOjIwNC4xOTk5OTY5NDgyNDIyfSx7IngiOjE0MS4xMzE4MzU5Mzc0OTk5NCwieSI6MjA0LjE5OTk5Njk0ODI0MjJ9LHsieCI6MTQxLjEzMTgzNTkzNzQ5OTk0LCJ5IjoxMjUuNzk5OTk1NDIyMzYzMjh9LHsieCI6MjE4Ljg3NzU1NDgyOTkxNTMsInkiOjEyNS43OTk5OTU0MjIzNjMyOH0seyJ4IjoyMTguODc3NTU0ODI5OTE1MywieSI6ODUuNzk5OTk1NDIyMzYzMjh9XQ==" data-look="neo" marker-end="url(#az700-41-appgw-waf-1_flowchart-v2-pointEnd-margin)"></path><path d="M254.7,85.8L254.7,118.7Q254.7,125.8 261.7,125.8L293.4,125.8Q300.4,125.8 300.4,132.9L300.4,220.2" id="az700-41-appgw-waf-1-L_you_l443_0" class="edge-thickness-normal edge-pattern-solid edge-thickness-normal edge-pattern-solid flowchart-link" style="stroke-dasharray: 0 0 170.83485412597656 4; stroke-dashoffset: 0;;" data-edge="true" data-et="edge" data-id="L_you_l443_0" data-points="W3sieCI6MjU0LjY2NjA2NDk2MTc1MTI2LCJ5Ijo4NS43OTk5OTU0MjIzNjMyOH0seyJ4IjoyNTQuNjY2MDY0OTYxNzUxMjYsInkiOjEyNS43OTk5OTU0MjIzNjMyOH0seyJ4IjozMDAuNDI5MTk5MjE4NzQ5OTQsInkiOjEyNS43OTk5OTU0MjIzNjMyOH0seyJ4IjozMDAuNDI5MTk5MjE4NzQ5OTQsInkiOjIyNC4xOTk5OTY5NDgyNDIyfV0=" data-look="neo" marker-end="url(#az700-41-appgw-waf-1_flowchart-v2-pointEnd-margin)"></path><path d="M300.4,286.6L300.4,322.6" id="az700-41-appgw-waf-1-L_l443_waf_0" class="edge-thickness-normal edge-pattern-solid edge-thickness-normal edge-pattern-solid flowchart-link" style="stroke-dasharray: 0 0 32 4; stroke-dashoffset: 0;;" data-edge="true" data-et="edge" data-id="L_l443_waf_0" data-points="W3sieCI6MzAwLjQyOTE5OTIxODc0OTk0LCJ5IjoyODYuNTk5OTk4NDc0MTIxMX0seyJ4IjozMDAuNDI5MTk5MjE4NzQ5OTQsInkiOjMyNi41OTk5OTg0NzQxMjExfV0=" data-look="neo" marker-end="url(#az700-41-appgw-waf-1_flowchart-v2-pointEnd-margin)"></path><path d="M260.9,544L260.9,583.5L260.9,596.5Q260.9,603.5 253.9,603.5L201.6,603.5Q194.6,603.5 194.6,610.6L194.6,697.9" id="az700-41-appgw-waf-1-L_waf_blk_0" class="edge-thickness-normal edge-pattern-solid edge-thickness-normal edge-pattern-solid flowchart-link" style="stroke-dasharray: 0 0 210.92996215820312 4; stroke-dashoffset: 0;;" data-edge="true" data-et="edge" data-id="L_waf_blk_0" data-points="W3sieCI6MjYwLjk0MTA1MDIxMTU4ODUsInkiOjU0NC4wNDA2Njg4MzU1NzI0fSx7IngiOjI2MC45NDEwNTAyMTE1ODg1LCJ5Ijo1ODMuNTI4ODkyNTE3MDg5OH0seyJ4IjoyNjAuOTQxMDUwMjExNTg4NSwieSI6NjAzLjUyODg5MjUxNzA4OTh9LHsieCI6MTk0LjU3MTA0NDkyMTg3NDk0LCJ5Ijo2MDMuNTI4ODkyNTE3MDg5OH0seyJ4IjoxOTQuNTcxMDQ0OTIxODc0OTQsInkiOjcwMS45Mjg4OTQwNDI5Njg4fV0=" data-look="neo" marker-end="url(#az700-41-appgw-waf-1_flowchart-v2-pointEnd-margin)"></path><path d="M339.9,544L339.9,583.5L339.9,596.5Q339.9,603.5 347,603.5L399.2,603.5Q406.3,603.5 406.3,610.6L406.3,697.9" id="az700-41-appgw-waf-1-L_waf_pool_0" class="edge-thickness-normal edge-pattern-solid edge-thickness-normal edge-pattern-solid flowchart-link" style="stroke-dasharray: 0 0 210.92994689941406 4; stroke-dashoffset: 0;;" data-edge="true" data-et="edge" data-id="L_waf_pool_0" data-points="W3sieCI6MzM5LjkxNzM0ODIyNTkxMTQsInkiOjU0NC4wNDA2Njg4MzU1NzI0fSx7IngiOjMzOS45MTczNDgyMjU5MTE0LCJ5Ijo1ODMuNTI4ODkyNTE3MDg5OH0seyJ4IjozMzkuOTE3MzQ4MjI1OTExNCwieSI6NjAzLjUyODg5MjUxNzA4OTh9LHsieCI6NDA2LjI4NzM1MzUxNTYyNDk0LCJ5Ijo2MDMuNTI4ODkyNTE3MDg5OH0seyJ4Ijo0MDYuMjg3MzUzNTE1NjI0OTQsInkiOjcwMS45Mjg4OTQwNDI5Njg4fV0=" data-look="neo" marker-end="url(#az700-41-appgw-waf-1_flowchart-v2-pointEnd-margin)"></path><path d="M406.3,764.3L406.3,840.3Q406.3,847.3 413.4,847.3L415.1,847.3Q422.1,847.3 422.1,854.4L422.1,863.3" id="az700-41-appgw-waf-1-L_pool_rw_0" class="edge-thickness-normal edge-pattern-solid edge-thickness-normal edge-pattern-solid flowchart-link" style="stroke-dasharray: 0 0 105.52267456054688 4; stroke-dashoffset: 0;;" data-edge="true" data-et="edge" data-id="L_pool_rw_0" data-points="W3sieCI6NDA2LjI4NzM1MzUxNTYyNDk0LCJ5Ijo3NjQuMzI4ODk1NTY4ODQ3N30seyJ4Ijo0MDYuMjg3MzUzNTE1NjI0OTQsInkiOjg0Ny4zMjg4OTU1Njg4NDc3fSx7IngiOjQyMi4xMzgzNjE2MTI5NTU2MywieSI6ODQ3LjMyODg5NTU2ODg0Nzd9LHsieCI6NDIyLjEzODM2MTYxMjk1NTYzLCJ5Ijo4NjcuMzI4ODk1NTY4ODQ3N31d" data-look="neo" marker-end="url(#az700-41-appgw-waf-1_flowchart-v2-pointEnd-margin)"></path><path d="M508.2,867.3L508.2,815.8L508.2,733.1L508.2,642.7L508.2,455.1L508.2,255.4L508.2,165L508.2,112.9Q508.2,105.8 501.1,105.8L297.5,105.8Q290.5,105.8 290.5,98.7L290.5,89.8" id="az700-41-appgw-waf-1-L_rw_you_0" class="edge-thickness-normal edge-pattern-dotted edge-thickness-normal edge-pattern-solid flowchart-link" style="stroke-dasharray: 0 0 2 2 2 2 2 2 2 2 2 2 2 2 2 2 2 2 2 2 2 2 2 2 2 2 2 2 2 2 2 2 2 2 2 2 2 2 2 2 2 2 2 2 2 2 2 2 2 2 2 2 2 2 2 2 2 2 2 2 2 2 2 2 2 2 2 2 2 2 2 2 2 2 2 2 2 2 2 2 2 2 2 2 2 2 2 2 2 2 2 2 2 2 2 2 2 2 2 2 2 2 2 2 2 2 2 2 2 2 2 2 2 2 2 2 2 2 2 2 2 2 2 2 2 2 2 2 2 2 2 2 2 2 2 2 2 2 2 2 2 2 2 2 2 2 2 2 2 2 2 2 2 2 2 2 2 2 2 2 2 2 2 2 2 2 2 2 2 2 2 2 2 2 2 2 2 2 2 2 2 2 2 2 2 2 2 2 2 2 2 2 2 2 2 2 2 2 2 2 2 2 2 2 2 2 2 2 2 2 2 2 2 2 2 2 2 2 2 2 2 2 2 2 2 2 2 2 2 2 2 2 2 2 2 2 2 2 2 2 2 2 2 2 2 2 2 2 2 2 2 2 2 2 2 2 2 2 2 2 2 2 2 2 2 2 2 2 2 2 2 2 2 2 2 2 2 2 2 2 2 2 2 2 2 2 2 2 2 2 2 2 2 2 2 2 2 2 2 2 2 2 2 2 2 2 2 2 2 2 2 2 2 2 2 2 2 2 2 2 2 2 2 2 2 2 2 2 2 2 2 2 2 2 2 2 2 2 2 2 2 2 2 2 2 2 2 2 2 2 2 2 2 2 2 2 2 2 2 2 2 2 2 2 2 2 2 2 2 2 2 2 2 2 2 2 2 2 2 2 2 2 2 2 2 2 2 2 2 2 2 2 2 2 2 2 2 2 2 2 2 2 2 2 2 2 2 2 2 2 2 2 2 2 2 2 2 2 2 2 2 2 2 2 2 2 2 2 2 2 2 2 2 2 2 2 2 2 2 2 2 2 2 2 2 2 2 2 2 2 2 2 2 2 2 2 2 2 2 2 2 2 2 2 2 2 2 2 2 2 2 2 2 2 2 2 2 2 2 2 2 2 2 2 2 2 2 2 2 2 2 2 2 2 4; stroke-dashoffset: 0;;" data-edge="true" data-et="edge" data-id="L_rw_you_0" data-points="W3sieCI6NTA4LjE1MjY1NDAxMjA0NDIsInkiOjg2Ny4zMjg4OTU1Njg4NDc3fSx7IngiOjUwOC4xNTI2NTQwMTIwNDQyLCJ5Ijo4MTUuODI4ODk1NTY4ODQ3N30seyJ4Ijo1MDguMTUyNjU0MDEyMDQ0MiwieSI6NzMzLjEyODg5NDgwNTkwODJ9LHsieCI6NTA4LjE1MjY1NDAxMjA0NDIsInkiOjY0Mi43Mjg4OTMyODAwMjkzfSx7IngiOjUwOC4xNTI2NTQwMTIwNDQyLCJ5Ijo0NTUuMDY0NDQ1NDk1NjA1NDd9LHsieCI6NTA4LjE1MjY1NDAxMjA0NDIsInkiOjI1NS4zOTk5OTc3MTExODE2NH0seyJ4Ijo1MDguMTUyNjU0MDEyMDQ0MiwieSI6MTY0Ljk5OTk5NjE4NTMwMjczfSx7IngiOjUwOC4xNTI2NTQwMTIwNDQyLCJ5IjoxMDUuNzk5OTk1NDIyMzYzMjh9LHsieCI6MjkwLjQ1NDU3NTA5MzU4NzIsInkiOjEwNS43OTk5OTU0MjIzNjMyOH0seyJ4IjoyOTAuNDU0NTc1MDkzNTg3MiwieSI6ODUuNzk5OTk1NDIyMzYzMjh9XQ==" data-look="neo" marker-end="url(#az700-41-appgw-waf-1_flowchart-v2-pointEnd-margin)"></path></g><g class="edgeLabels"><g class="edgeLabel" transform="translate(34.1, 165)"><g class="label" data-id="L_you_l80_0" transform="translate(-0.3, -8.5)"><g><rect class="background" style="" x="-21.8" y="-3" width="44.1" height="23"></rect><text y="-10.1" text-anchor="middle" style=""><tspan class="text-outer-tspan row" x="0" y="-0.1em" dy="1.1em" text-anchor="middle"><tspan font-style="normal" class="text-inner-tspan" font-weight="normal">http://</tspan></tspan></text></g></g></g><g class="edgeLabel" transform="translate(140.9, 165)"><g class="label" data-id="L_l80_you_0" transform="translate(-0.1, -16.2)"><g><rect class="background" style="" x="-64.6" y="-3" width="129.5" height="38.4"></rect><text y="-10.1" text-anchor="middle" style=""><tspan class="text-outer-tspan row" x="0" y="-0.1em" dy="1.1em" text-anchor="middle"><tspan font-style="normal" class="text-inner-tspan" font-weight="normal">301</tspan><tspan font-style="normal" class="text-inner-tspan" font-weight="normal"> to</tspan><tspan font-style="normal" class="text-inner-tspan" font-weight="normal"> https,</tspan></tspan><tspan class="text-outer-tspan row" x="0" y="1em" dy="1.1em" text-anchor="middle"><tspan font-style="normal" class="text-inner-tspan" font-weight="normal">path</tspan><tspan font-style="normal" class="text-inner-tspan" font-weight="normal"> and</tspan><tspan font-style="normal" class="text-inner-tspan" font-weight="normal"> query</tspan><tspan font-style="normal" class="text-inner-tspan" font-weight="normal"> kept</tspan></tspan></text></g></g></g><g class="edgeLabel" transform="translate(300, 165)"><g class="label" data-id="L_you_l443_0" transform="translate(-0.3, -8.5)"><g><rect class="background" style="" x="-24.8" y="-3" width="50.1" height="23"></rect><text y="-10.1" text-anchor="middle" style=""><tspan class="text-outer-tspan row" x="0" y="-0.1em" dy="1.1em" text-anchor="middle"><tspan font-style="normal" class="text-inner-tspan" font-weight="normal">https://</tspan></tspan></text></g></g></g><g class="edgeLabel" transform="translate(194.6, 642.7)"><g class="label" data-id="L_waf_blk_0" transform="translate(0.5, -16.2)"><g><rect class="background" style="" x="-59.5" y="-3" width="118" height="38.4"></rect><text y="-10.1" text-anchor="middle" style=""><tspan class="text-outer-tspan row" x="0" y="-0.1em" dy="1.1em" text-anchor="middle"><tspan font-style="normal" class="text-inner-tspan" font-weight="normal">yes,</tspan><tspan font-style="normal" class="text-inner-tspan" font-weight="normal"> e.g.</tspan><tspan font-style="normal" class="text-inner-tspan" font-weight="normal"> ?attack=1</tspan></tspan><tspan class="text-outer-tspan row" x="0" y="1em" dy="1.1em" text-anchor="middle"><tspan font-style="normal" class="text-inner-tspan" font-weight="normal">or</tspan><tspan font-style="normal" class="text-inner-tspan" font-weight="normal"> SQL</tspan><tspan font-style="normal" class="text-inner-tspan" font-weight="normal"> injection</tspan></tspan></text></g></g></g><g class="edgeLabel" transform="translate(405.9, 642.7)"><g class="label" data-id="L_waf_pool_0" transform="translate(0, -8.5)"><g><rect class="background" style="" x="-10.1" y="-3" width="20.1" height="23"></rect><text y="-10.1" text-anchor="middle" style=""><tspan class="text-outer-tspan row" x="0" y="-0.1em" dy="1.1em" text-anchor="middle"><tspan font-style="normal" class="text-inner-tspan" font-weight="normal">no</tspan></tspan></text></g></g></g><g class="edgeLabel" transform="translate(406, 815.8)"><g class="label" data-id="L_pool_rw_0" transform="translate(-0.3, -8.5)"><g><rect class="background" style="" x="-29.9" y="-3" width="60.4" height="23"></rect><text y="-10.1" text-anchor="middle" style=""><tspan class="text-outer-tspan row" x="0" y="-0.1em" dy="1.1em" text-anchor="middle"><tspan font-style="normal" class="text-inner-tspan" font-weight="normal">response</tspan></tspan></text></g></g></g></g><g class="nodes"><g class="node default client" id="az700-41-appgw-waf-1-flowchart-you-0" data-look="neo" transform="translate(236.8, 48.9)"><g class="basic label-container outer-path"><path d="M-62.6 -36.9 C-29.7 -36.9, 3.2 -36.9, 62.6 -36.9 C62.6 -36.9, 62.6 -36.9, 62.6 -36.9 C63.3 -36.9, 64.1 -36.9, 65 -36.8 C65.9 -36.7, 66.8 -36.6, 67.3 -36.6 C68.2 -36.5, 69 -36.3, 69.6 -36.2 C70.3 -36.1, 70.9 -35.9, 72 -35.7 C72.8 -35.4, 73.6 -35.2, 74.2 -35 C74.9 -34.8, 75.7 -34.5, 76.4 -34.2 C77.3 -33.8, 78.1 -33.5, 78.6 -33.2 C79.2 -32.9, 79.8 -32.6, 80.7 -32.2 C81.4 -31.7, 82.1 -31.3, 82.7 -30.9 C83.1 -30.6, 83.5 -30.4, 84.7 -29.6 C85.3 -29.1, 85.9 -28.6, 86.5 -28.1 C87 -27.7, 87.4 -27.3, 88.3 -26.5 C88.9 -25.8, 89.6 -25.2, 89.9 -24.8 C90.3 -24.4, 90.7 -23.9, 91.4 -23 C91.9 -22.4, 92.3 -21.8, 92.9 -21.1 C93.1 -20.7, 93.4 -20.3, 94.1 -19.1 C94.4 -18.6, 94.7 -18.1, 95.3 -17.1 C95.7 -16.3, 96 -15.6, 96.3 -14.9 C96.5 -14.4, 96.7 -13.9, 97.2 -12.7 C97.4 -12.2, 97.6 -11.7, 98 -10.5 C98.1 -9.9, 98.3 -9.3, 98.6 -8.2 C98.7 -7.4, 98.9 -6.6, 99 -5.9 C99.1 -5.1, 99.2 -4.4, 99.3 -3.5 C99.4 -2.9, 99.4 -2.2, 99.5 -1.2 C99.5 -0.3, 99.5 0.6, 99.5 1.2 C99.4 1.7, 99.4 2.2, 99.3 3.5 C99.2 4.4, 99.1 5.2, 99 5.9 C98.9 6.4, 98.8 6.9, 98.6 8.2 C98.4 9, 98.2 9.7, 98 10.5 C97.8 11.1, 97.5 11.8, 97.2 12.7 C97 13.3, 96.7 13.9, 96.3 14.9 C96 15.7, 95.6 16.5, 95.3 17.1 C95 17.6, 94.7 18.2, 94.1 19.1 C93.7 19.8, 93.3 20.4, 92.9 21.1 C92.4 21.8, 91.9 22.4, 91.4 23 C90.9 23.6, 90.4 24.2, 89.9 24.8 C89.3 25.4, 88.8 26, 88.3 26.5 C87.7 27.1, 87.1 27.6, 86.5 28.1 C85.8 28.7, 85 29.3, 84.7 29.6 C83.9 30.1, 83.2 30.6, 82.7 30.9 C82.1 31.3, 81.6 31.6, 80.7 32.2 C79.9 32.6, 79.1 33, 78.6 33.2 C78.1 33.5, 77.6 33.7, 76.4 34.2 C75.8 34.4, 75.3 34.6, 74.2 35 C73.7 35.2, 73.2 35.3, 72 35.7 C71.4 35.8, 70.8 36, 69.6 36.2 C68.9 36.3, 68.2 36.5, 67.3 36.6 C66.8 36.6, 66.3 36.7, 65 36.8 C64.2 36.8, 63.5 36.9, 62.6 36.9 C62.6 36.9, 62.6 36.9, 62.6 36.9 C14.4 36.9, -33.8 36.9, -62.6 36.9 C-63.4 36.9, -64.2 36.8, -65 36.8 C-65.6 36.8, -66.2 36.7, -67.3 36.6 C-68.1 36.5, -68.8 36.4, -69.6 36.2 C-70.1 36.1, -70.6 36, -72 35.7 C-72.5 35.5, -73 35.4, -74.2 35 C-74.7 34.8, -75.2 34.6, -76.4 34.2 C-77.2 33.8, -78 33.5, -78.6 33.2 C-79 33, -79.5 32.8, -80.7 32.2 C-81.4 31.7, -82.1 31.3, -82.7 30.9 C-83.3 30.5, -84 30.1, -84.7 29.6 C-85.3 29.1, -85.9 28.6, -86.5 28.1 C-86.9 27.7, -87.4 27.3, -88.3 26.5 C-88.9 25.8, -89.5 25.2, -89.9 24.8 C-90.3 24.3, -90.8 23.8, -91.4 23 C-91.8 22.5, -92.1 22.1, -92.9 21.1 C-93.1 20.7, -93.4 20.2, -94.1 19.1 C-94.4 18.7, -94.6 18.2, -95.3 17.1 C-95.6 16.6, -95.8 16, -96.3 14.9 C-96.6 14.3, -96.8 13.7, -97.2 12.7 C-97.5 12, -97.7 11.2, -98 10.5 C-98.1 9.8, -98.3 9.2, -98.6 8.2 C-98.7 7.5, -98.9 6.7, -99 5.9 C-99.1 5.2, -99.2 4.5, -99.3 3.5 C-99.4 2.6, -99.4 1.8, -99.5 1.2 C-99.5 0.3, -99.5 -0.7, -99.5 -1.2 C-99.4 -1.8, -99.4 -2.3, -99.3 -3.5 C-99.2 -4.4, -99.1 -5.2, -99 -5.9 C-98.9 -6.4, -98.8 -6.9, -98.6 -8.2 C-98.4 -9, -98.2 -9.8, -98 -10.5 C-97.7 -11.3, -97.5 -12, -97.2 -12.7 C-96.9 -13.5, -96.6 -14.3, -96.3 -14.9 C-96 -15.7, -95.6 -16.5, -95.3 -17.1 C-95 -17.7, -94.6 -18.2, -94.1 -19.1 C-93.7 -19.8, -93.3 -20.4, -92.9 -21.1 C-92.6 -21.5, -92.3 -21.9, -91.4 -23 C-90.9 -23.7, -90.3 -24.3, -89.9 -24.8 C-89.3 -25.5, -88.6 -26.1, -88.3 -26.5 C-87.7 -27, -87.2 -27.5, -86.5 -28.1 C-86 -28.5, -85.5 -28.9, -84.7 -29.6 C-84.2 -29.9, -83.8 -30.2, -82.7 -30.9 C-82 -31.4, -81.3 -31.8, -80.7 -32.2 C-80.2 -32.4, -79.8 -32.6, -78.6 -33.2 C-78 -33.5, -77.4 -33.8, -76.4 -34.2 C-75.9 -34.4, -75.4 -34.6, -74.2 -35 C-73.5 -35.2, -72.8 -35.4, -72 -35.7 C-71 -35.9, -70.1 -36.1, -69.6 -36.2 C-69 -36.3, -68.3 -36.4, -67.3 -36.6 C-66.7 -36.7, -66.1 -36.7, -65 -36.8 C-64.3 -36.8, -63.6 -36.9, -62.6 -36.9 C-62.6 -36.9, -62.6 -36.9, -62.6 -36.9" stroke="none" stroke-width="0" fill="#f4f7fb" style="fill:#f4f7fb !important;stroke:#768498 !important"></path><path d="M-62.6 -36.9 C-37.6 -36.9, -12.5 -36.9, 62.6 -36.9 M62.6 -36.9 C63.1 -36.9, 63.6 -36.9, 65 -36.8 M65 -36.8 C65.6 -36.8, 66.3 -36.7, 67.3 -36.6 M67.3 -36.6 C67.8 -36.5, 68.3 -36.4, 69.6 -36.2 M69.6 -36.2 C70.4 -36, 71.2 -35.9, 72 -35.7 M72 -35.7 C72.4 -35.5, 72.9 -35.4, 74.2 -35 M74.2 -35 C75 -34.7, 75.8 -34.4, 76.4 -34.2 M76.4 -34.2 C77 -33.9, 77.6 -33.7, 78.6 -33.2 M78.6 -33.2 C79.3 -32.9, 80 -32.5, 80.7 -32.2 M80.7 -32.2 C81.4 -31.7, 82.2 -31.3, 82.7 -30.9 M82.7 -30.9 C83.4 -30.4, 84.2 -29.9, 84.7 -29.6 M84.7 -29.6 C85.3 -29, 86 -28.5, 86.5 -28.1 M86.5 -28.1 C87.1 -27.5, 87.7 -27, 88.3 -26.5 M88.3 -26.5 C88.7 -26, 89.2 -25.6, 89.9 -24.8 M89.9 -24.8 C90.3 -24.3, 90.7 -23.9, 91.4 -23 M91.4 -23 C91.9 -22.4, 92.4 -21.8, 92.9 -21.1 M92.9 -21.1 C93.2 -20.6, 93.6 -20, 94.1 -19.1 M94.1 -19.1 C94.5 -18.4, 94.9 -17.8, 95.3 -17.1 M95.3 -17.1 C95.6 -16.5, 95.9 -15.9, 96.3 -14.9 M96.3 -14.9 C96.6 -14.2, 96.9 -13.5, 97.2 -12.7 M97.2 -12.7 C97.5 -11.9, 97.8 -11.1, 98 -10.5 M98 -10.5 C98.2 -9.8, 98.3 -9.1, 98.6 -8.2 M98.6 -8.2 C98.7 -7.5, 98.8 -6.8, 99 -5.9 M99 -5.9 C99.1 -5.1, 99.2 -4.4, 99.3 -3.5 M99.3 -3.5 C99.4 -2.9, 99.4 -2.2, 99.5 -1.2 M99.5 -1.2 C99.5 -0.4, 99.5 0.5, 99.5 1.2 M99.5 1.2 C99.4 2.1, 99.4 3, 99.3 3.5 M99.3 3.5 C99.2 4.1, 99.2 4.6, 99 5.9 M99 5.9 C98.9 6.5, 98.8 7.1, 98.6 8.2 M98.6 8.2 C98.3 9, 98.1 9.9, 98 10.5 M98 10.5 C97.7 11.2, 97.5 11.9, 97.2 12.7 M97.2 12.7 C96.9 13.5, 96.6 14.4, 96.3 14.9 M96.3 14.9 C96 15.5, 95.7 16.1, 95.3 17.1 M95.3 17.1 C95 17.6, 94.8 18, 94.1 19.1 M94.1 19.1 C93.8 19.7, 93.5 20.2, 92.9 21.1 M92.9 21.1 C92.6 21.5, 92.3 21.9, 91.4 23 M91.4 23 C90.9 23.6, 90.5 24.2, 89.9 24.8 M89.9 24.8 C89.5 25.2, 89.1 25.7, 88.3 26.5 M88.3 26.5 C87.9 26.9, 87.5 27.2, 86.5 28.1 M86.5 28.1 C85.8 28.7, 85 29.3, 84.7 29.6 M84.7 29.6 C84 30, 83.4 30.4, 82.7 30.9 M82.7 30.9 C82.2 31.2, 81.8 31.5, 80.7 32.2 M80.7 32.2 C80.1 32.5, 79.4 32.8, 78.6 33.2 M78.6 33.2 C77.8 33.6, 77 34, 76.4 34.2 M76.4 34.2 C76 34.4, 75.5 34.6, 74.2 35 M74.2 35 C73.7 35.2, 73.3 35.3, 72 35.7 M72 35.7 C71.4 35.8, 70.9 35.9, 69.6 36.2 M69.6 36.2 C68.8 36.4, 68 36.5, 67.3 36.6 M67.3 36.6 C66.6 36.7, 65.9 36.7, 65 36.8 M65 36.8 C64.1 36.9, 63.2 36.9, 62.6 36.9 M62.6 36.9 C27.3 36.9, -8 36.9, -62.6 36.9 M-62.6 36.9 C-63.1 36.9, -63.7 36.9, -65 36.8 M-65 36.8 C-65.6 36.8, -66.2 36.7, -67.3 36.6 M-67.3 36.6 C-68 36.5, -68.7 36.4, -69.6 36.2 M-69.6 36.2 C-70.4 36, -71.2 35.9, -72 35.7 M-72 35.7 C-72.6 35.5, -73.2 35.3, -74.2 35 M-74.2 35 C-74.8 34.8, -75.4 34.6, -76.4 34.2 M-76.4 34.2 C-77.2 33.9, -78 33.5, -78.6 33.2 M-78.6 33.2 C-79.1 33, -79.6 32.7, -80.7 32.2 M-80.7 32.2 C-81.2 31.9, -81.7 31.6, -82.7 30.9 M-82.7 30.9 C-83.2 30.6, -83.7 30.2, -84.7 29.6 M-84.7 29.6 C-85.1 29.2, -85.6 28.8, -86.5 28.1 M-86.5 28.1 C-87 27.6, -87.6 27.1, -88.3 26.5 M-88.3 26.5 C-88.8 25.9, -89.4 25.4, -89.9 24.8 M-89.9 24.8 C-90.4 24.2, -91 23.5, -91.4 23 M-91.4 23 C-91.9 22.4, -92.4 21.7, -92.9 21.1 M-92.9 21.1 C-93.1 20.7, -93.4 20.3, -94.1 19.1 M-94.1 19.1 C-94.5 18.5, -94.9 17.8, -95.3 17.1 M-95.3 17.1 C-95.5 16.6, -95.7 16.2, -96.3 14.9 M-96.3 14.9 C-96.5 14.5, -96.7 14, -97.2 12.7 M-97.2 12.7 C-97.5 11.9, -97.8 11, -98 10.5 M-98 10.5 C-98.2 9.7, -98.4 8.8, -98.6 8.2 M-98.6 8.2 C-98.7 7.6, -98.8 7, -99 5.9 M-99 5.9 C-99.1 5.4, -99.1 4.9, -99.3 3.5 M-99.3 3.5 C-99.4 2.9, -99.4 2.3, -99.5 1.2 M-99.5 1.2 C-99.5 0.3, -99.5 -0.6, -99.5 -1.2 M-99.5 -1.2 C-99.4 -2, -99.4 -2.8, -99.3 -3.5 M-99.3 -3.5 C-99.3 -4, -99.2 -4.5, -99 -5.9 M-99 -5.9 C-98.9 -6.6, -98.8 -7.2, -98.6 -8.2 M-98.6 -8.2 C-98.4 -8.8, -98.3 -9.3, -98 -10.5 M-98 -10.5 C-97.8 -11, -97.6 -11.6, -97.2 -12.7 M-97.2 -12.7 C-96.9 -13.4, -96.7 -14.1, -96.3 -14.9 M-96.3 -14.9 C-95.9 -15.8, -95.5 -16.6, -95.3 -17.1 M-95.3 -17.1 C-95 -17.6, -94.7 -18.1, -94.1 -19.1 M-94.1 -19.1 C-93.8 -19.7, -93.4 -20.3, -92.9 -21.1 M-92.9 -21.1 C-92.3 -21.9, -91.7 -22.6, -91.4 -23 M-91.4 -23 C-90.9 -23.7, -90.3 -24.3, -89.9 -24.8 M-89.9 -24.8 C-89.5 -25.2, -89.1 -25.7, -88.3 -26.5 M-88.3 -26.5 C-87.7 -27, -87.2 -27.4, -86.5 -28.1 M-86.5 -28.1 C-86 -28.5, -85.5 -28.9, -84.7 -29.6 M-84.7 -29.6 C-84.1 -30, -83.5 -30.4, -82.7 -30.9 M-82.7 -30.9 C-82.2 -31.2, -81.7 -31.6, -80.7 -32.2 M-80.7 -32.2 C-80 -32.5, -79.4 -32.8, -78.6 -33.2 M-78.6 -33.2 C-77.8 -33.6, -77.1 -33.9, -76.4 -34.2 M-76.4 -34.2 C-75.7 -34.5, -75 -34.7, -74.2 -35 M-74.2 -35 C-73.6 -35.2, -73 -35.4, -72 -35.7 M-72 -35.7 C-71.4 -35.8, -70.8 -36, -69.6 -36.2 M-69.6 -36.2 C-69.1 -36.3, -68.6 -36.4, -67.3 -36.6 M-67.3 -36.6 C-66.6 -36.7, -65.9 -36.7, -65 -36.8 M-65 -36.8 C-64.4 -36.8, -63.7 -36.9, -62.6 -36.9" stroke="#768498" stroke-width="1.3" fill="none" stroke-dasharray="0 0" style="fill:#f4f7fb !important;stroke:#768498 !important"></path></g><g class="label" style="color:#0f1b2d !important" transform="translate(0, -24.9)"><rect></rect><g><rect class="background" style="stroke: none"></rect><text y="-10.1" style="fill:#0f1b2d !important"><tspan class="text-outer-tspan row" x="0" y="-0.1em" dy="1.1em"><tspan font-style="normal" class="text-inner-tspan" font-weight="normal">tunnel</tspan><tspan font-style="normal" class="text-inner-tspan" font-weight="normal"> client</tspan></tspan><tspan class="text-outer-tspan row" x="0" y="1em" dy="1.1em"><tspan font-style="normal" class="text-inner-tspan" font-weight="normal">app.lab41.internal</tspan></tspan><tspan class="text-outer-tspan row" x="0" y="2.1em" dy="1.1em"><tspan font-style="normal" class="text-inner-tspan" font-weight="normal">→</tspan><tspan font-style="normal" class="text-inner-tspan" font-weight="normal"> the</tspan><tspan font-style="normal" class="text-inner-tspan" font-weight="normal"> private</tspan><tspan font-style="normal" class="text-inner-tspan" font-weight="normal"> frontend</tspan></tspan></text></g></g></g><g class="node default azure" id="az700-41-appgw-waf-1-flowchart-l80-1" data-look="neo" transform="translate(87.8, 247.7)"><rect class="basic label-container" style="fill:#eaf0fa !important;stroke:#2563eb !important" rx="5" ry="5" x="-74" y="-23.5" width="148" height="47"></rect><g class="label" style="color:#0f1b2d !important" transform="translate(0, -9.5)"><rect></rect><g><rect class="background" style="stroke: none"></rect><text y="-10.1" style="fill:#0f1b2d !important"><tspan class="text-outer-tspan row" x="0" y="-0.1em" dy="1.1em"><tspan font-style="normal" class="text-inner-tspan" font-weight="normal">listener-http</tspan><tspan font-style="normal" class="text-inner-tspan" font-weight="normal"> :80</tspan></tspan></text></g></g></g><g class="node default azure" id="az700-41-appgw-waf-1-flowchart-l443-2" data-look="neo" transform="translate(300.4, 255.4)"><rect class="basic label-container" style="fill:#eaf0fa !important;stroke:#2563eb !important" rx="5" ry="5" x="-98.6" y="-31.2" width="197.2" height="62.4"></rect><g class="label" style="color:#0f1b2d !important" transform="translate(0, -17.2)"><rect></rect><g><rect class="background" style="stroke: none"></rect><text y="-10.1" style="fill:#0f1b2d !important"><tspan class="text-outer-tspan row" x="0" y="-0.1em" dy="1.1em"><tspan font-style="normal" class="text-inner-tspan" font-weight="normal">listener-https</tspan><tspan font-style="normal" class="text-inner-tspan" font-weight="normal"> :443</tspan></tspan><tspan class="text-outer-tspan row" x="0" y="1em" dy="1.1em"><tspan font-style="normal" class="text-inner-tspan" font-weight="normal">TLS</tspan><tspan font-style="normal" class="text-inner-tspan" font-weight="normal"> with</tspan><tspan font-style="normal" class="text-inner-tspan" font-weight="normal"> cert-app</tspan><tspan font-style="normal" class="text-inner-tspan" font-weight="normal"> from</tspan><tspan font-style="normal" class="text-inner-tspan" font-weight="normal"> …kv</tspan></tspan></text></g></g></g><g class="node default rule" id="az700-41-appgw-waf-1-flowchart-waf-3" data-look="neo" transform="translate(300.4, 455.1)"><polygon points="128.5,0 256.9,-128.5 128.5,-256.9 0,-128.5" class="label-container" transform="translate(-128, 128.5)" style="fill:#fff7e6 !important;stroke:#b45309 !important"></polygon><g class="label" style="color:#0f1b2d !important" transform="translate(0, -24.9)"><rect></rect><g><rect class="background" style="stroke: none"></rect><text y="-10.1" style="fill:#0f1b2d !important"><tspan class="text-outer-tspan row" x="0" y="-0.1em" dy="1.1em"><tspan font-style="normal" class="text-inner-tspan" font-weight="normal">waf-hub,</tspan><tspan font-style="normal" class="text-inner-tspan" font-weight="normal"> Prevention</tspan></tspan><tspan class="text-outer-tspan row" x="0" y="1em" dy="1.1em"><tspan font-style="normal" class="text-inner-tspan" font-weight="normal">DRS</tspan><tspan font-style="normal" class="text-inner-tspan" font-weight="normal"> 2.1</tspan><tspan font-style="normal" class="text-inner-tspan" font-weight="normal"> or</tspan><tspan font-style="normal" class="text-inner-tspan" font-weight="normal"> BlockAttackQuery</tspan></tspan><tspan class="text-outer-tspan row" x="0" y="2.1em" dy="1.1em"><tspan font-style="normal" class="text-inner-tspan" font-weight="normal">matches?</tspan></tspan></text></g></g></g><g class="node default bad" id="az700-41-appgw-waf-1-flowchart-blk-4" data-look="neo" transform="translate(194.6, 725.4)"><rect class="basic label-container" style="fill:#fdecec !important;stroke:#c62828 !important" rx="5" ry="5" x="-74" y="-23.5" width="148" height="47"></rect><g class="label" style="color:#0f1b2d !important" transform="translate(0, -9.5)"><rect></rect><g><rect class="background" style="stroke: none"></rect><text y="-10.1" style="fill:#0f1b2d !important"><tspan class="text-outer-tspan row" x="0" y="-0.1em" dy="1.1em"><tspan font-style="normal" class="text-inner-tspan" font-weight="normal">403</tspan></tspan></text></g></g></g><g class="node default azure" id="az700-41-appgw-waf-1-flowchart-pool-5" data-look="neo" transform="translate(406.3, 733.1)"><rect class="basic label-container" style="fill:#eaf0fa !important;stroke:#2563eb !important" rx="5" ry="5" x="-97.7" y="-31.2" width="195.4" height="62.4"></rect><g class="label" style="color:#0f1b2d !important" transform="translate(0, -17.2)"><rect></rect><g><rect class="background" style="stroke: none"></rect><text y="-10.1" style="fill:#0f1b2d !important"><tspan class="text-outer-tspan row" x="0" y="-0.1em" dy="1.1em"><tspan font-style="normal" class="text-inner-tspan" font-weight="normal">pool-web,</tspan><tspan font-style="normal" class="text-inner-tspan" font-weight="normal"> probe</tspan><tspan font-style="normal" class="text-inner-tspan" font-weight="normal"> /</tspan></tspan><tspan class="text-outer-tspan row" x="0" y="1em" dy="1.1em"><tspan font-style="normal" class="text-inner-tspan" font-weight="normal">vm-web1</tspan><tspan font-style="normal" class="text-inner-tspan" font-weight="normal"> :80,</tspan><tspan font-style="normal" class="text-inner-tspan" font-weight="normal"> vm-web2</tspan><tspan font-style="normal" class="text-inner-tspan" font-weight="normal"> :80</tspan></tspan></text></g></g></g><g class="node default rule" id="az700-41-appgw-waf-1-flowchart-rw-6" data-look="neo" transform="translate(465.1, 919.5)"><polygon points="29.8,0 248.2,0 278,-52.2 248.2,-104.4 29.8,-104.4 0,-52.2" class="label-container" transform="translate(-139,52.2)" style="fill:#fff7e6 !important;stroke:#b45309 !important"></polygon><g class="label" style="color:#0f1b2d !important" transform="translate(0, -17.2)"><rect></rect><g><rect class="background" style="stroke: none"></rect><text y="-10.1" style="fill:#0f1b2d !important"><tspan class="text-outer-tspan row" x="0" y="-0.1em" dy="1.1em"><tspan font-style="normal" class="text-inner-tspan" font-weight="normal">rw-headers</tspan><tspan font-style="normal" class="text-inner-tspan" font-weight="normal"> on</tspan><tspan font-style="normal" class="text-inner-tspan" font-weight="normal"> every</tspan><tspan font-style="normal" class="text-inner-tspan" font-weight="normal"> response</tspan></tspan><tspan class="text-outer-tspan row" x="0" y="1em" dy="1.1em"><tspan font-style="normal" class="text-inner-tspan" font-weight="normal">add</tspan><tspan font-style="normal" class="text-inner-tspan" font-weight="normal"> X-Lab:</tspan><tspan font-style="normal" class="text-inner-tspan" font-weight="normal"> 41,</tspan><tspan font-style="normal" class="text-inner-tspan" font-weight="normal"> remove</tspan><tspan font-style="normal" class="text-inner-tspan" font-weight="normal"> Server</tspan></tspan></text></g></g></g></g></g></g><defs><filter id="az700-41-appgw-waf-1-drop-shadow" height="130%" width="130%"><feDropShadow dx="4" dy="4" stdDeviation="0" flood-opacity="0.06" flood-color="#000000"></feDropShadow></filter></defs><defs><filter id="az700-41-appgw-waf-1-drop-shadow-small" height="150%" width="150%"><feDropShadow dx="2" dy="2" stdDeviation="0" flood-opacity="0.06" flood-color="#000000"></feDropShadow></filter></defs></svg>
