<!-- labs-diagrams source 71708518107c48a9d2131eedca5697e7638468334a6f57ad06b0ac50f7a6caa4 -->
<svg xmlns="http://www.w3.org/2000/svg" xmlns:xlink="http://www.w3.org/1999/xlink" id="az700-33-vnet-manager-2" width="701" height="831" viewBox="-12 -12 701 831" role="img" aria-labelledby="az700-33-vnet-manager-2-t az700-33-vnet-manager-2-d"><title id="az700-33-vnet-manager-2-t">Security admin rules come before the NSG</title><desc id="az700-33-vnet-manager-2-d">Inbound traffic to a spoke VM meets sac-lab's rules first. SSH from the hub's /20 matches the AlwaysAllow rule at priority 90 and is let in, so the NSG's deny of the same traffic is never read; SSH from the Internet service tag matches the Deny rule at priority 100 and is refused whatever the NSG says. Only traffic neither rule matches goes on to the spoke's NSG.</desc><rect x="-12" y="-12" width="701" height="831" fill="#ffffff"/><style>#az700-33-vnet-manager-2{font-family:'Segoe UI','Helvetica Neue',Arial,sans-serif;font-size:14px;fill:#0f1b2d;}@keyframes edge-animation-frame{from{stroke-dashoffset:0;}}@keyframes dash{to{stroke-dashoffset:0;}}#az700-33-vnet-manager-2 .edge-animation-slow{stroke-dasharray:9,5!important;stroke-dashoffset:900;animation:dash 50s linear infinite;stroke-linecap:round;}#az700-33-vnet-manager-2 .edge-animation-fast{stroke-dasharray:9,5!important;stroke-dashoffset:900;animation:dash 20s linear infinite;stroke-linecap:round;}#az700-33-vnet-manager-2 .error-icon{fill:#ffffff;}#az700-33-vnet-manager-2 .error-text{fill:#0f1b2d;stroke:#0f1b2d;}#az700-33-vnet-manager-2 .edge-thickness-normal{stroke-width:1px;}#az700-33-vnet-manager-2 .edge-thickness-thick{stroke-width:3.5px;}#az700-33-vnet-manager-2 .edge-pattern-solid{stroke-dasharray:0;}#az700-33-vnet-manager-2 .edge-thickness-invisible{stroke-width:0;fill:none;}#az700-33-vnet-manager-2 .edge-pattern-dashed{stroke-dasharray:3;}#az700-33-vnet-manager-2 .edge-pattern-dotted{stroke-dasharray:2;}#az700-33-vnet-manager-2 .marker{fill:#44546a;stroke:#44546a;}#az700-33-vnet-manager-2 .marker.cross{stroke:#44546a;}#az700-33-vnet-manager-2 svg{font-family:'Segoe UI','Helvetica Neue',Arial,sans-serif;font-size:14px;}#az700-33-vnet-manager-2 p{margin:0;}#az700-33-vnet-manager-2 .label{font-family:'Segoe UI','Helvetica Neue',Arial,sans-serif;color:#0f1b2d;}#az700-33-vnet-manager-2 .cluster-label text{fill:#0f1b2d;}#az700-33-vnet-manager-2 .cluster-label span{color:#0f1b2d;}#az700-33-vnet-manager-2 .cluster-label span p{background-color:transparent;}#az700-33-vnet-manager-2 .label text,#az700-33-vnet-manager-2 span{fill:#0f1b2d;color:#0f1b2d;}#az700-33-vnet-manager-2 .node rect,#az700-33-vnet-manager-2 .node circle,#az700-33-vnet-manager-2 .node ellipse,#az700-33-vnet-manager-2 .node polygon,#az700-33-vnet-manager-2 .node path{fill:#eaf0fa;stroke:#2563eb;stroke-width:1px;}#az700-33-vnet-manager-2 .rough-node .label text,#az700-33-vnet-manager-2 .node .label text,#az700-33-vnet-manager-2 .image-shape .label,#az700-33-vnet-manager-2 .icon-shape .label{text-anchor:middle;}#az700-33-vnet-manager-2 .node .katex path{fill:#000;stroke:#000;stroke-width:1px;}#az700-33-vnet-manager-2 .rough-node .label,#az700-33-vnet-manager-2 .node .label,#az700-33-vnet-manager-2 .image-shape .label,#az700-33-vnet-manager-2 .icon-shape .label{text-align:center;}#az700-33-vnet-manager-2 .node.clickable{cursor:pointer;}#az700-33-vnet-manager-2 .root .anchor path{fill:#44546a!important;stroke-width:0;stroke:#44546a;}#az700-33-vnet-manager-2 .arrowheadPath{fill:#000000;}#az700-33-vnet-manager-2 .edgePaths .path{stroke:#44546a;stroke-width:1px;}#az700-33-vnet-manager-2 .flowchart-link{stroke:#44546a;fill:none;}#az700-33-vnet-manager-2 .edgeLabel{background-color:#ffffff;text-align:center;}#az700-33-vnet-manager-2 .edgeLabel p{background-color:#ffffff;}#az700-33-vnet-manager-2 .edgeLabel rect{opacity:0.5;background-color:#ffffff;fill:#ffffff;}#az700-33-vnet-manager-2 .labelBkg{background-color:rgba(255, 255, 255, 0.5);}#az700-33-vnet-manager-2 .cluster rect{fill:#f9fbfd;stroke:#768498;stroke-width:1px;}#az700-33-vnet-manager-2 .cluster text{fill:#0f1b2d;}#az700-33-vnet-manager-2 .cluster span{color:#0f1b2d;}#az700-33-vnet-manager-2 .node .collapsed-indicator{fill:#768498;stroke:none;opacity:0.6;}#az700-33-vnet-manager-2 .node .collapsed-separator{stroke:#768498;stroke-width:0.75px;}#az700-33-vnet-manager-2 div.mermaidTooltip{position:absolute;text-align:center;max-width:200px;padding:2px;font-family:'Segoe UI','Helvetica Neue',Arial,sans-serif;font-size:12px;background:#ffffff;border:1px solid #c3cddb;border-radius:2px;pointer-events:none;z-index:100;}#az700-33-vnet-manager-2 .flowchartTitleText{text-anchor:middle;font-size:18px;fill:#0f1b2d;}#az700-33-vnet-manager-2 rect.text{fill:none;stroke-width:0;}#az700-33-vnet-manager-2 .icon-shape,#az700-33-vnet-manager-2 .image-shape{background-color:#ffffff;text-align:center;}#az700-33-vnet-manager-2 .icon-shape p,#az700-33-vnet-manager-2 .image-shape p{background-color:#ffffff;padding:2px;}#az700-33-vnet-manager-2 .icon-shape .label rect,#az700-33-vnet-manager-2 .image-shape .label rect{opacity:0.5;background-color:#ffffff;fill:#ffffff;}#az700-33-vnet-manager-2 .label-icon{display:inline-block;height:1em;overflow:visible;vertical-align:-0.125em;}#az700-33-vnet-manager-2 .node .label-icon path{fill:currentColor;stroke:revert;stroke-width:revert;}#az700-33-vnet-manager-2 .node .neo-node{stroke:#2563eb;}#az700-33-vnet-manager-2 [data-look="neo"].node rect,#az700-33-vnet-manager-2 [data-look="neo"].cluster rect,#az700-33-vnet-manager-2 [data-look="neo"].node polygon{stroke:#2563eb;filter:drop-shadow( 1px 2px 2px rgba(185,185,185,1));}#az700-33-vnet-manager-2 [data-look="neo"].swimlane.cluster rect{filter:none;}#az700-33-vnet-manager-2 [data-look="neo"].node path{stroke:#2563eb;stroke-width:1px;}#az700-33-vnet-manager-2 [data-look="neo"].node .outer-path{filter:drop-shadow( 1px 2px 2px rgba(185,185,185,1));}#az700-33-vnet-manager-2 [data-look="neo"].node .neo-line path{stroke:#2563eb;filter:none;}#az700-33-vnet-manager-2 [data-look="neo"].node circle{stroke:#2563eb;filter:drop-shadow( 1px 2px 2px rgba(185,185,185,1));}#az700-33-vnet-manager-2 [data-look="neo"].node circle .state-start{fill:#000000;}#az700-33-vnet-manager-2 [data-look="neo"].icon-shape .icon{fill:#2563eb;filter:drop-shadow( 1px 2px 2px rgba(185,185,185,1));}#az700-33-vnet-manager-2 [data-look="neo"].icon-shape .icon-neo path{stroke:#2563eb;filter:drop-shadow( 1px 2px 2px rgba(185,185,185,1));}#az700-33-vnet-manager-2 :root{--mermaid-font-family:'Segoe UI','Helvetica Neue',Arial,sans-serif;}#az700-33-vnet-manager-2 .azure rect{fill:rgb(234, 240, 250)!important;stroke:rgb(37, 99, 235)!important;color:rgb(15, 27, 45)!important;}#az700-33-vnet-manager-2 .azure polygon{fill:rgb(234, 240, 250)!important;stroke:rgb(37, 99, 235)!important;color:rgb(15, 27, 45)!important;}#az700-33-vnet-manager-2 .azure ellipse{fill:rgb(234, 240, 250)!important;stroke:rgb(37, 99, 235)!important;color:rgb(15, 27, 45)!important;}#az700-33-vnet-manager-2 .azure circle{fill:rgb(234, 240, 250)!important;stroke:rgb(37, 99, 235)!important;color:rgb(15, 27, 45)!important;}#az700-33-vnet-manager-2 .azure path{fill:rgb(234, 240, 250)!important;stroke:rgb(37, 99, 235)!important;color:rgb(15, 27, 45)!important;}#az700-33-vnet-manager-2 .azure tspan{fill:rgb(15, 27, 45)!important;}#az700-33-vnet-manager-2 .client rect{fill:rgb(244, 247, 251)!important;stroke:rgb(118, 132, 152)!important;color:rgb(15, 27, 45)!important;}#az700-33-vnet-manager-2 .client polygon{fill:rgb(244, 247, 251)!important;stroke:rgb(118, 132, 152)!important;color:rgb(15, 27, 45)!important;}#az700-33-vnet-manager-2 .client ellipse{fill:rgb(244, 247, 251)!important;stroke:rgb(118, 132, 152)!important;color:rgb(15, 27, 45)!important;}#az700-33-vnet-manager-2 .client circle{fill:rgb(244, 247, 251)!important;stroke:rgb(118, 132, 152)!important;color:rgb(15, 27, 45)!important;}#az700-33-vnet-manager-2 .client path{fill:rgb(244, 247, 251)!important;stroke:rgb(118, 132, 152)!important;color:rgb(15, 27, 45)!important;}#az700-33-vnet-manager-2 .client tspan{fill:rgb(15, 27, 45)!important;}#az700-33-vnet-manager-2 .rule rect{fill:rgb(255, 247, 230)!important;stroke:rgb(180, 83, 9)!important;color:rgb(15, 27, 45)!important;}#az700-33-vnet-manager-2 .rule polygon{fill:rgb(255, 247, 230)!important;stroke:rgb(180, 83, 9)!important;color:rgb(15, 27, 45)!important;}#az700-33-vnet-manager-2 .rule ellipse{fill:rgb(255, 247, 230)!important;stroke:rgb(180, 83, 9)!important;color:rgb(15, 27, 45)!important;}#az700-33-vnet-manager-2 .rule circle{fill:rgb(255, 247, 230)!important;stroke:rgb(180, 83, 9)!important;color:rgb(15, 27, 45)!important;}#az700-33-vnet-manager-2 .rule path{fill:rgb(255, 247, 230)!important;stroke:rgb(180, 83, 9)!important;color:rgb(15, 27, 45)!important;}#az700-33-vnet-manager-2 .rule tspan{fill:rgb(15, 27, 45)!important;}#az700-33-vnet-manager-2 .ok rect{fill:rgb(231, 245, 238)!important;stroke:rgb(18, 128, 79)!important;color:rgb(15, 27, 45)!important;}#az700-33-vnet-manager-2 .ok polygon{fill:rgb(231, 245, 238)!important;stroke:rgb(18, 128, 79)!important;color:rgb(15, 27, 45)!important;}#az700-33-vnet-manager-2 .ok ellipse{fill:rgb(231, 245, 238)!important;stroke:rgb(18, 128, 79)!important;color:rgb(15, 27, 45)!important;}#az700-33-vnet-manager-2 .ok circle{fill:rgb(231, 245, 238)!important;stroke:rgb(18, 128, 79)!important;color:rgb(15, 27, 45)!important;}#az700-33-vnet-manager-2 .ok path{fill:rgb(231, 245, 238)!important;stroke:rgb(18, 128, 79)!important;color:rgb(15, 27, 45)!important;}#az700-33-vnet-manager-2 .ok tspan{fill:rgb(15, 27, 45)!important;}#az700-33-vnet-manager-2 .bad rect{fill:rgb(253, 236, 236)!important;stroke:rgb(198, 40, 40)!important;color:rgb(15, 27, 45)!important;}#az700-33-vnet-manager-2 .bad polygon{fill:rgb(253, 236, 236)!important;stroke:rgb(198, 40, 40)!important;color:rgb(15, 27, 45)!important;}#az700-33-vnet-manager-2 .bad ellipse{fill:rgb(253, 236, 236)!important;stroke:rgb(198, 40, 40)!important;color:rgb(15, 27, 45)!important;}#az700-33-vnet-manager-2 .bad circle{fill:rgb(253, 236, 236)!important;stroke:rgb(198, 40, 40)!important;color:rgb(15, 27, 45)!important;}#az700-33-vnet-manager-2 .bad path{fill:rgb(253, 236, 236)!important;stroke:rgb(198, 40, 40)!important;color:rgb(15, 27, 45)!important;}#az700-33-vnet-manager-2 .bad tspan{fill:rgb(15, 27, 45)!important;}</style><g><marker id="az700-33-vnet-manager-2_flowchart-v2-pointEnd" class="marker flowchart-v2" viewBox="0 0 10 10" refX="5" refY="5" markerUnits="userSpaceOnUse" markerWidth="8" markerHeight="8" orient="auto"><path d="M 0 0 L 10 5 L 0 10 z" class="arrowMarkerPath" style="stroke-width: 1; stroke-dasharray: 1, 0;"></path></marker><marker id="az700-33-vnet-manager-2_flowchart-v2-pointStart" class="marker flowchart-v2" viewBox="0 0 10 10" refX="4.5" refY="5" markerUnits="userSpaceOnUse" markerWidth="8" markerHeight="8" orient="auto"><path d="M 0 5 L 10 10 L 10 0 z" class="arrowMarkerPath" style="stroke-width: 1; stroke-dasharray: 1, 0;"></path></marker><marker id="az700-33-vnet-manager-2_flowchart-v2-pointEnd-margin" class="marker flowchart-v2" viewBox="0 0 11.5 14" refX="11.5" refY="7" markerUnits="userSpaceOnUse" markerWidth="10.5" markerHeight="14" orient="auto"><path d="M 0 0 L 11.5 7 L 0 14 z" class="arrowMarkerPath" style="stroke-width: 0; stroke-dasharray: 1, 0;"></path></marker><marker id="az700-33-vnet-manager-2_flowchart-v2-pointStart-margin" class="marker flowchart-v2" viewBox="0 0 11.5 14" refX="1" refY="7" markerUnits="userSpaceOnUse" markerWidth="11.5" markerHeight="14" orient="auto"><polygon points="0,7 11.5,14 11.5,0" class="arrowMarkerPath" style="stroke-width: 0; stroke-dasharray: 1, 0;"></polygon></marker><marker id="az700-33-vnet-manager-2_flowchart-v2-circleEnd" class="marker flowchart-v2" viewBox="0 0 10 10" refX="11" refY="5" markerUnits="userSpaceOnUse" markerWidth="11" markerHeight="11" orient="auto"><circle cx="5" cy="5" r="5" class="arrowMarkerPath" style="stroke-width: 1; stroke-dasharray: 1, 0;"></circle></marker><marker id="az700-33-vnet-manager-2_flowchart-v2-circleStart" class="marker flowchart-v2" viewBox="0 0 10 10" refX="-1" refY="5" markerUnits="userSpaceOnUse" markerWidth="11" markerHeight="11" orient="auto"><circle cx="5" cy="5" r="5" class="arrowMarkerPath" style="stroke-width: 1; stroke-dasharray: 1, 0;"></circle></marker><marker id="az700-33-vnet-manager-2_flowchart-v2-circleEnd-margin" class="marker flowchart-v2" viewBox="0 0 10 10" refY="5" refX="12.25" markerUnits="userSpaceOnUse" markerWidth="14" markerHeight="14" orient="auto"><circle cx="5" cy="5" r="5" class="arrowMarkerPath" style="stroke-width: 0; stroke-dasharray: 1, 0;"></circle></marker><marker id="az700-33-vnet-manager-2_flowchart-v2-circleStart-margin" class="marker flowchart-v2" viewBox="0 0 10 10" refX="-2" refY="5" markerUnits="userSpaceOnUse" markerWidth="14" markerHeight="14" orient="auto"><circle cx="5" cy="5" r="5" class="arrowMarkerPath" style="stroke-width: 0; stroke-dasharray: 1, 0;"></circle></marker><marker id="az700-33-vnet-manager-2_flowchart-v2-crossEnd" class="marker cross flowchart-v2" viewBox="0 0 11 11" refX="12" refY="5.2" markerUnits="userSpaceOnUse" markerWidth="11" markerHeight="11" orient="auto"><path d="M 1,1 l 9,9 M 10,1 l -9,9" class="arrowMarkerPath" style="stroke-width: 2; stroke-dasharray: 1, 0;"></path></marker><marker id="az700-33-vnet-manager-2_flowchart-v2-crossStart" class="marker cross flowchart-v2" viewBox="0 0 11 11" refX="-1" refY="5.2" markerUnits="userSpaceOnUse" markerWidth="11" markerHeight="11" orient="auto"><path d="M 1,1 l 9,9 M 10,1 l -9,9" class="arrowMarkerPath" style="stroke-width: 2; stroke-dasharray: 1, 0;"></path></marker><marker id="az700-33-vnet-manager-2_flowchart-v2-crossEnd-margin" class="marker cross flowchart-v2" viewBox="0 0 15 15" refX="17.7" refY="7.5" markerUnits="userSpaceOnUse" markerWidth="12" markerHeight="12" orient="auto"><path d="M 1,1 L 14,14 M 1,14 L 14,1" class="arrowMarkerPath" style="stroke-width: 2.5;"></path></marker><marker id="az700-33-vnet-manager-2_flowchart-v2-crossStart-margin" class="marker cross flowchart-v2" viewBox="0 0 15 15" refX="-3.5" refY="7.5" markerUnits="userSpaceOnUse" markerWidth="12" markerHeight="12" orient="auto"><path d="M 1,1 L 14,14 M 1,14 L 14,1" class="arrowMarkerPath" style="stroke-width: 2.5; stroke-dasharray: 1, 0;"></path></marker><g class="root"><g class="clusters"></g><g class="edges edgePaths"><path d="M293.8,70.4L293.8,106.4" id="az700-33-vnet-manager-2-L_pkt_r90_0" class="edge-thickness-normal edge-pattern-solid edge-thickness-normal edge-pattern-solid flowchart-link" style="stroke-dasharray: 0 0 32 4; stroke-dashoffset: 0;;" data-edge="true" data-et="edge" data-id="L_pkt_r90_0" data-points="W3sieCI6MjkzLjc4ODk2NTg2MTAwMjU3LCJ5Ijo3MC40MDAwMDE1MjU4Nzg5fSx7IngiOjI5My43ODg5NjU4NjEwMDI1NywieSI6MTEwLjQwMDAwMTUyNTg3ODl9XQ==" data-look="neo" marker-end="url(#az700-33-vnet-manager-2_flowchart-v2-pointEnd-margin)"></path><path d="M243.9,230.2L243.9,243.1Q243.9,250.2 236.8,250.2L119.1,250.2Q112,250.2 112,257.3L112,281.7L112,385.4L112,592.8L112,696.5L112,720.9Q112,728 119.1,728L288.2,728Q295.3,728 295.3,735.1L295.3,744" id="az700-33-vnet-manager-2-L_r90_vm_0" class="edge-thickness-thick edge-pattern-solid edge-thickness-normal edge-pattern-solid flowchart-link" style="stroke-dasharray: 0 0 814.3726196289062 4; stroke-dashoffset: 0;;" data-edge="true" data-et="edge" data-id="L_r90_vm_0" data-points="W3sieCI6MjQzLjkxNTg5ODY0MDk1MDUsInkiOjIzMC4xOTk5OTY5NDgyNDIyfSx7IngiOjI0My45MTU4OTg2NDA5NTA1LCJ5IjoyNTAuMTk5OTk2OTQ4MjQyMn0seyJ4IjoxMTEuOTk5OTk5OTk5OTk5OTcsInkiOjI1MC4xOTk5OTY5NDgyNDIyfSx7IngiOjExMS45OTk5OTk5OTk5OTk5NywieSI6MjgxLjY5OTk5Njk0ODI0MjJ9LHsieCI6MTExLjk5OTk5OTk5OTk5OTk3LCJ5IjozODUuMzk5OTk3NzExMTgxNjR9LHsieCI6MTExLjk5OTk5OTk5OTk5OTk3LCJ5Ijo1OTIuNzk5OTk5MjM3MDYwNX0seyJ4IjoxMTEuOTk5OTk5OTk5OTk5OTcsInkiOjY5Ni41fSx7IngiOjExMS45OTk5OTk5OTk5OTk5NywieSI6NzI4fSx7IngiOjI5NS4zMTMzNzIyOTQxMDgwNCwieSI6NzI4fSx7IngiOjI5NS4zMTMzNzIyOTQxMDgwNCwieSI6NzQ4fV0=" data-look="neo" marker-end="url(#az700-33-vnet-manager-2_flowchart-v2-pointEnd-margin)"></path><path d="M343.7,230.2L343.7,243.1Q343.7,250.2 350.7,250.2L380,250.2Q387,250.2 387,257.3L387,329.2" id="az700-33-vnet-manager-2-L_r90_r100_0" class="edge-thickness-normal edge-pattern-solid edge-thickness-normal edge-pattern-solid flowchart-link" style="stroke-dasharray: 0 0 133.0582733154297 4; stroke-dashoffset: 0;;" data-edge="true" data-et="edge" data-id="L_r90_r100_0" data-points="W3sieCI6MzQzLjY2MjAzMzA4MTA1NDcsInkiOjIzMC4xOTk5OTY5NDgyNDIyfSx7IngiOjM0My42NjIwMzMwODEwNTQ3LCJ5IjoyNTAuMTk5OTk2OTQ4MjQyMn0seyJ4IjozODcuMDQ4NTYxMDk2MTkxNCwieSI6MjUwLjE5OTk5Njk0ODI0MjJ9LHsieCI6Mzg3LjA0ODU2MTA5NjE5MTQsInkiOjMzMy4xOTk5OTY5NDgyNDIyfV0=" data-look="neo" marker-end="url(#az700-33-vnet-manager-2_flowchart-v2-pointEnd-margin)"></path><path d="M341.3,437.6L341.3,450.5Q341.3,457.6 334.3,457.6L259.9,457.6Q252.8,457.6 252.8,464.7L252.8,536.6" id="az700-33-vnet-manager-2-L_r100_drop_0" class="edge-thickness-normal edge-pattern-solid edge-thickness-normal edge-pattern-solid flowchart-link" style="stroke-dasharray: 0 0 178.2010498046875 4; stroke-dashoffset: 0;;" data-edge="true" data-et="edge" data-id="L_r100_drop_0" data-points="W3sieCI6MzQxLjMzMzA4MTU2MzMxMzgsInkiOjQzNy41OTk5OTg0NzQxMjExfSx7IngiOjM0MS4zMzMwODE1NjMzMTM4LCJ5Ijo0NTcuNTk5OTk4NDc0MTIxMX0seyJ4IjoyNTIuODAzNzEwOTM3NDk5OTcsInkiOjQ1Ny41OTk5OTg0NzQxMjExfSx7IngiOjI1Mi44MDM3MTA5Mzc0OTk5NywieSI6NTQwLjU5OTk5ODQ3NDEyMTF9XQ==" data-look="neo" marker-end="url(#az700-33-vnet-manager-2_flowchart-v2-pointEnd-margin)"></path><path d="M432.8,437.6L432.8,450.5Q432.8,457.6 439.8,457.6L514.2,457.6Q521.3,457.6 521.3,464.7L521.3,536.6" id="az700-33-vnet-manager-2-L_r100_nsg_0" class="edge-thickness-normal edge-pattern-solid edge-thickness-normal edge-pattern-solid flowchart-link" style="stroke-dasharray: 0 0 178.20103454589844 4; stroke-dashoffset: 0;;" data-edge="true" data-et="edge" data-id="L_r100_nsg_0" data-points="W3sieCI6NDMyLjc2NDA0MDYyOTA2OSwieSI6NDM3LjU5OTk5ODQ3NDEyMTF9LHsieCI6NDMyLjc2NDA0MDYyOTA2OSwieSI6NDU3LjU5OTk5ODQ3NDEyMTF9LHsieCI6NTIxLjI5MzQxMTI1NDg4MjgsInkiOjQ1Ny41OTk5OTg0NzQxMjExfSx7IngiOjUyMS4yOTM0MTEyNTQ4ODI4LCJ5Ijo1NDAuNTk5OTk4NDc0MTIxMX1d" data-look="neo" marker-end="url(#az700-33-vnet-manager-2_flowchart-v2-pointEnd-margin)"></path><path d="M521.3,645L521.3,720.9Q521.3,728 514.2,728L345.1,728Q338,728 338,735.1L338,744" id="az700-33-vnet-manager-2-L_nsg_vm_0" class="edge-thickness-normal edge-pattern-solid edge-thickness-normal edge-pattern-solid flowchart-link" style="stroke-dasharray: 0 0 272.98504638671875 4; stroke-dashoffset: 0;;" data-edge="true" data-et="edge" data-id="L_nsg_vm_0" data-points="W3sieCI6NTIxLjI5MzQxMTI1NDg4MjgsInkiOjY0NX0seyJ4Ijo1MjEuMjkzNDExMjU0ODgyOCwieSI6NzI4fSx7IngiOjMzNy45ODAwMzg5NjA3NzQ3LCJ5Ijo3Mjh9LHsieCI6MzM3Ljk4MDAzODk2MDc3NDcsInkiOjc0OH1d" data-look="neo" marker-end="url(#az700-33-vnet-manager-2_flowchart-v2-pointEnd-margin)"></path></g><g class="edgeLabels"><g class="edgeLabel" transform="translate(111.7, 489.1)"><g class="label" data-id="L_r90_vm_0" transform="translate(-0.1, -8.5)"><g><rect class="background" style="" x="-99.5" y="-3" width="199.3" height="23"></rect><text y="-10.1" text-anchor="middle" style=""><tspan class="text-outer-tspan row" x="0" y="-0.1em" dy="1.1em" text-anchor="middle"><tspan font-style="normal" class="text-inner-tspan" font-weight="normal">match:</tspan><tspan font-style="normal" class="text-inner-tspan" font-weight="normal"> in,</tspan><tspan font-style="normal" class="text-inner-tspan" font-weight="normal"> the</tspan><tspan font-style="normal" class="text-inner-tspan" font-weight="normal"> NSG</tspan><tspan font-style="normal" class="text-inner-tspan" font-weight="normal"> never</tspan><tspan font-style="normal" class="text-inner-tspan" font-weight="normal"> sees</tspan><tspan font-style="normal" class="text-inner-tspan" font-weight="normal"> it</tspan></tspan></text></g></g></g><g class="edgeLabel" transform="translate(386.7, 281.7)"><g class="label" data-id="L_r90_r100_0" transform="translate(0, -8.5)"><g><rect class="background" style="" x="-31.1" y="-3" width="62.4" height="23"></rect><text y="-10.1" text-anchor="middle" style=""><tspan class="text-outer-tspan row" x="0" y="-0.1em" dy="1.1em" text-anchor="middle"><tspan font-style="normal" class="text-inner-tspan" font-weight="normal">no</tspan><tspan font-style="normal" class="text-inner-tspan" font-weight="normal"> match</tspan></tspan></text></g></g></g><g class="edgeLabel" transform="translate(252.5, 489.1)"><g class="label" data-id="L_r100_drop_0" transform="translate(0, -8.5)"><g><rect class="background" style="" x="-21.2" y="-3" width="42.4" height="23"></rect><text y="-10.1" text-anchor="middle" style=""><tspan class="text-outer-tspan row" x="0" y="-0.1em" dy="1.1em" text-anchor="middle"><tspan font-style="normal" class="text-inner-tspan" font-weight="normal">match</tspan></tspan></text></g></g></g><g class="edgeLabel" transform="translate(521, 489.1)"><g class="label" data-id="L_r100_nsg_0" transform="translate(0, -8.5)"><g><rect class="background" style="" x="-31.1" y="-3" width="62.4" height="23"></rect><text y="-10.1" text-anchor="middle" style=""><tspan class="text-outer-tspan row" x="0" y="-0.1em" dy="1.1em" text-anchor="middle"><tspan font-style="normal" class="text-inner-tspan" font-weight="normal">no</tspan><tspan font-style="normal" class="text-inner-tspan" font-weight="normal"> match</tspan></tspan></text></g></g></g><g class="edgeLabel" transform="translate(521.3, 696.5)"><g class="label" data-id="L_nsg_vm_0" transform="translate(-0.4, -8.5)"><g><rect class="background" style="" x="-49.5" y="-3" width="99.9" height="23"></rect><text y="-10.1" text-anchor="middle" style=""><tspan class="text-outer-tspan row" x="0" y="-0.1em" dy="1.1em" text-anchor="middle"><tspan font-style="normal" class="text-inner-tspan" font-weight="normal">if</tspan><tspan font-style="normal" class="text-inner-tspan" font-weight="normal"> its</tspan><tspan font-style="normal" class="text-inner-tspan" font-weight="normal"> rules</tspan><tspan font-style="normal" class="text-inner-tspan" font-weight="normal"> allow</tspan></tspan></text></g></g></g></g><g class="nodes"><g class="node default client" id="az700-33-vnet-manager-2-flowchart-pkt-0" data-look="neo" transform="translate(293.8, 41.2)"><g class="basic label-container outer-path"><path d="M-77.8 -29.2 C-36.9 -29.2, 4 -29.2, 77.8 -29.2 C77.8 -29.2, 77.8 -29.2, 77.8 -29.2 C78.3 -29.2, 78.9 -29.2, 79.6 -29.1 C80.4 -29.1, 81.1 -29, 81.5 -29 C82.2 -28.9, 82.9 -28.7, 83.4 -28.7 C83.9 -28.5, 84.4 -28.4, 85.2 -28.2 C85.8 -28, 86.5 -27.9, 87 -27.7 C87.5 -27.5, 88.1 -27.3, 88.7 -27.1 C89.4 -26.8, 90 -26.5, 90.4 -26.3 C90.9 -26.1, 91.4 -25.8, 92.1 -25.4 C92.7 -25.1, 93.2 -24.8, 93.7 -24.5 C94 -24.2, 94.3 -24, 95.2 -23.4 C95.7 -23, 96.2 -22.6, 96.7 -22.2 C97.1 -21.9, 97.4 -21.6, 98.1 -21 C98.6 -20.4, 99.1 -19.9, 99.4 -19.6 C99.7 -19.3, 100 -18.9, 100.6 -18.2 C100.9 -17.7, 101.3 -17.3, 101.7 -16.7 C101.9 -16.4, 102.1 -16.1, 102.7 -15.1 C103 -14.7, 103.2 -14.3, 103.7 -13.5 C103.9 -12.9, 104.2 -12.4, 104.5 -11.8 C104.6 -11.4, 104.8 -11, 105.2 -10.1 C105.3 -9.7, 105.4 -9.3, 105.8 -8.3 C105.9 -7.8, 106 -7.4, 106.2 -6.5 C106.4 -5.9, 106.5 -5.2, 106.6 -4.7 C106.7 -4.1, 106.7 -3.5, 106.8 -2.8 C106.9 -2.3, 106.9 -1.8, 107 -0.9 C107 -0.2, 107 0.5, 107 0.9 C106.9 1.3, 106.9 1.8, 106.8 2.8 C106.7 3.5, 106.7 4.1, 106.6 4.7 C106.5 5.1, 106.4 5.5, 106.2 6.5 C106.1 7.1, 105.9 7.7, 105.8 8.3 C105.6 8.8, 105.4 9.3, 105.2 10.1 C105 10.5, 104.8 11, 104.5 11.8 C104.2 12.4, 103.9 13.1, 103.7 13.5 C103.4 14, 103.2 14.4, 102.7 15.1 C102.4 15.7, 102.1 16.2, 101.7 16.7 C101.3 17.2, 100.9 17.7, 100.6 18.2 C100.2 18.7, 99.8 19.2, 99.4 19.6 C98.9 20.1, 98.5 20.5, 98.1 21 C97.6 21.4, 97.1 21.8, 96.7 22.2 C96.1 22.7, 95.5 23.2, 95.2 23.4 C94.7 23.8, 94.1 24.2, 93.7 24.5 C93.2 24.7, 92.8 25, 92.1 25.4 C91.5 25.8, 90.9 26.1, 90.4 26.3 C90.1 26.5, 89.7 26.6, 88.7 27.1 C88.3 27.2, 87.8 27.4, 87 27.7 C86.6 27.8, 86.2 27.9, 85.2 28.2 C84.7 28.3, 84.3 28.5, 83.4 28.7 C82.8 28.8, 82.2 28.9, 81.5 29 C81.1 29, 80.7 29, 79.6 29.1 C79.1 29.2, 78.5 29.2, 77.8 29.2 C77.8 29.2, 77.8 29.2, 77.8 29.2 C17.9 29.2, -42 29.2, -77.8 29.2 C-78.4 29.2, -79.1 29.2, -79.6 29.1 C-80.1 29.1, -80.6 29, -81.5 29 C-82.1 28.9, -82.7 28.8, -83.4 28.7 C-83.7 28.6, -84.1 28.5, -85.2 28.2 C-85.6 28.1, -86 28, -87 27.7 C-87.4 27.6, -87.8 27.4, -88.7 27.1 C-89.4 26.8, -90 26.5, -90.4 26.3 C-90.8 26.1, -91.1 26, -92.1 25.4 C-92.6 25.1, -93.2 24.8, -93.7 24.5 C-94.2 24.1, -94.7 23.8, -95.2 23.4 C-95.7 23, -96.2 22.6, -96.7 22.2 C-97 21.9, -97.4 21.6, -98.1 21 C-98.6 20.5, -99.1 19.9, -99.4 19.6 C-99.7 19.2, -100.1 18.8, -100.6 18.2 C-100.9 17.8, -101.1 17.5, -101.7 16.7 C-102 16.3, -102.2 16, -102.7 15.1 C-102.9 14.8, -103.1 14.4, -103.7 13.5 C-103.9 13.1, -104 12.7, -104.5 11.8 C-104.7 11.3, -104.9 10.9, -105.2 10.1 C-105.4 9.5, -105.6 8.9, -105.8 8.3 C-105.9 7.8, -106 7.3, -106.2 6.5 C-106.4 5.9, -106.5 5.3, -106.6 4.7 C-106.7 4.1, -106.7 3.5, -106.8 2.8 C-106.9 2.1, -106.9 1.4, -107 0.9 C-107 0.2, -107 -0.5, -107 -0.9 C-106.9 -1.4, -106.9 -1.8, -106.8 -2.8 C-106.7 -3.5, -106.7 -4.1, -106.6 -4.7 C-106.5 -5.1, -106.4 -5.5, -106.2 -6.5 C-106.1 -7.1, -105.9 -7.7, -105.8 -8.3 C-105.6 -8.9, -105.4 -9.5, -105.2 -10.1 C-104.9 -10.7, -104.7 -11.3, -104.5 -11.8 C-104.2 -12.4, -103.9 -13, -103.7 -13.5 C-103.4 -14, -103.1 -14.4, -102.7 -15.1 C-102.4 -15.6, -102.1 -16.1, -101.7 -16.7 C-101.5 -17, -101.3 -17.3, -100.6 -18.2 C-100.2 -18.7, -99.7 -19.2, -99.4 -19.6 C-98.9 -20.2, -98.4 -20.7, -98.1 -21 C-97.7 -21.4, -97.2 -21.8, -96.7 -22.2 C-96.3 -22.5, -95.9 -22.8, -95.2 -23.4 C-94.9 -23.6, -94.5 -23.9, -93.7 -24.5 C-93.1 -24.8, -92.6 -25.2, -92.1 -25.4 C-91.7 -25.6, -91.4 -25.8, -90.4 -26.3 C-90 -26.5, -89.5 -26.7, -88.7 -27.1 C-88.3 -27.2, -87.9 -27.4, -87 -27.7 C-86.4 -27.9, -85.9 -28, -85.2 -28.2 C-84.5 -28.4, -83.7 -28.6, -83.4 -28.7 C-82.8 -28.7, -82.3 -28.8, -81.5 -29 C-81 -29, -80.6 -29, -79.6 -29.1 C-79.1 -29.2, -78.5 -29.2, -77.8 -29.2 C-77.8 -29.2, -77.8 -29.2, -77.8 -29.2" stroke="none" stroke-width="0" fill="#f4f7fb" style="fill:#f4f7fb !important;stroke:#768498 !important"></path><path d="M-77.8 -29.2 C-46.7 -29.2, -15.6 -29.2, 77.8 -29.2 M77.8 -29.2 C78.2 -29.2, 78.6 -29.2, 79.6 -29.1 M79.6 -29.1 C80.2 -29.1, 80.7 -29, 81.5 -29 M81.5 -29 C81.9 -28.9, 82.3 -28.8, 83.4 -28.7 M83.4 -28.7 C84 -28.5, 84.6 -28.4, 85.2 -28.2 M85.2 -28.2 C85.6 -28.1, 86 -28, 87 -27.7 M87 -27.7 C87.6 -27.5, 88.2 -27.3, 88.7 -27.1 M88.7 -27.1 C89.2 -26.9, 89.6 -26.7, 90.4 -26.3 M90.4 -26.3 C91 -26, 91.6 -25.7, 92.1 -25.4 M92.1 -25.4 C92.7 -25.1, 93.3 -24.7, 93.7 -24.5 M93.7 -24.5 C94.3 -24.1, 94.9 -23.7, 95.2 -23.4 M95.2 -23.4 C95.8 -23, 96.3 -22.5, 96.7 -22.2 M96.7 -22.2 C97.2 -21.8, 97.7 -21.3, 98.1 -21 M98.1 -21 C98.4 -20.6, 98.8 -20.2, 99.4 -19.6 M99.4 -19.6 C99.7 -19.3, 100 -18.9, 100.6 -18.2 M100.6 -18.2 C101 -17.7, 101.3 -17.2, 101.7 -16.7 M101.7 -16.7 C102 -16.3, 102.3 -15.9, 102.7 -15.1 M102.7 -15.1 C103 -14.6, 103.4 -14, 103.7 -13.5 M103.7 -13.5 C103.9 -13, 104.1 -12.6, 104.5 -11.8 M104.5 -11.8 C104.7 -11.2, 104.9 -10.7, 105.2 -10.1 M105.2 -10.1 C105.4 -9.4, 105.6 -8.8, 105.8 -8.3 M105.8 -8.3 C105.9 -7.7, 106.1 -7.2, 106.2 -6.5 M106.2 -6.5 C106.3 -5.9, 106.5 -5.3, 106.6 -4.7 M106.6 -4.7 C106.7 -4.1, 106.7 -3.5, 106.8 -2.8 M106.8 -2.8 C106.9 -2.3, 106.9 -1.7, 107 -0.9 M107 -0.9 C107 -0.3, 107 0.4, 107 0.9 M107 0.9 C106.9 1.7, 106.9 2.4, 106.8 2.8 M106.8 2.8 C106.8 3.2, 106.7 3.7, 106.6 4.7 M106.6 4.7 C106.5 5.1, 106.4 5.6, 106.2 6.5 M106.2 6.5 C106.1 7.1, 105.9 7.8, 105.8 8.3 M105.8 8.3 C105.6 8.9, 105.4 9.4, 105.2 10.1 M105.2 10.1 C104.9 10.7, 104.7 11.4, 104.5 11.8 M104.5 11.8 C104.2 12.3, 104 12.8, 103.7 13.5 M103.7 13.5 C103.4 13.9, 103.2 14.3, 102.7 15.1 M102.7 15.1 C102.5 15.6, 102.2 16, 101.7 16.7 M101.7 16.7 C101.5 17, 101.3 17.3, 100.6 18.2 M100.6 18.2 C100.2 18.7, 99.8 19.1, 99.4 19.6 M99.4 19.6 C99.1 20, 98.7 20.3, 98.1 21 M98.1 21 C97.8 21.3, 97.5 21.5, 96.7 22.2 M96.7 22.2 C96.1 22.7, 95.5 23.2, 95.2 23.4 M95.2 23.4 C94.7 23.7, 94.2 24.1, 93.7 24.5 M93.7 24.5 C93.3 24.7, 93 24.9, 92.1 25.4 M92.1 25.4 C91.6 25.7, 91.1 26, 90.4 26.3 M90.4 26.3 C89.8 26.6, 89.1 26.9, 88.7 27.1 M88.7 27.1 C88.3 27.2, 88 27.3, 87 27.7 M87 27.7 C86.6 27.8, 86.2 27.9, 85.2 28.2 M85.2 28.2 C84.8 28.3, 84.4 28.4, 83.4 28.7 M83.4 28.7 C82.7 28.8, 82.1 28.9, 81.5 29 M81.5 29 C81 29, 80.4 29.1, 79.6 29.1 M79.6 29.1 C79 29.2, 78.3 29.2, 77.8 29.2 M77.8 29.2 C33.9 29.2, -10 29.2, -77.8 29.2 M-77.8 29.2 C-78.2 29.2, -78.6 29.2, -79.6 29.1 M-79.6 29.1 C-80.1 29.1, -80.6 29, -81.5 29 M-81.5 29 C-82.1 28.9, -82.6 28.8, -83.4 28.7 M-83.4 28.7 C-84 28.5, -84.6 28.4, -85.2 28.2 M-85.2 28.2 C-85.7 28.1, -86.1 28, -87 27.7 M-87 27.7 C-87.4 27.5, -87.9 27.4, -88.7 27.1 M-88.7 27.1 C-89.3 26.8, -90 26.5, -90.4 26.3 M-90.4 26.3 C-90.8 26.1, -91.3 25.9, -92.1 25.4 M-92.1 25.4 C-92.5 25.2, -92.9 25, -93.7 24.5 M-93.7 24.5 C-94.1 24.2, -94.5 23.9, -95.2 23.4 M-95.2 23.4 C-95.6 23.1, -96 22.8, -96.7 22.2 M-96.7 22.2 C-97.1 21.8, -97.5 21.5, -98.1 21 M-98.1 21 C-98.5 20.5, -99 20.1, -99.4 19.6 M-99.4 19.6 C-99.8 19.1, -100.2 18.6, -100.6 18.2 M-100.6 18.2 C-101 17.7, -101.4 17.2, -101.7 16.7 M-101.7 16.7 C-101.9 16.4, -102.1 16.1, -102.7 15.1 M-102.7 15.1 C-103 14.6, -103.3 14.1, -103.7 13.5 M-103.7 13.5 C-103.8 13.2, -104 12.8, -104.5 11.8 M-104.5 11.8 C-104.6 11.4, -104.8 11.1, -105.2 10.1 M-105.2 10.1 C-105.4 9.4, -105.6 8.7, -105.8 8.3 M-105.8 8.3 C-105.9 7.6, -106.1 7, -106.2 6.5 M-106.2 6.5 C-106.3 6, -106.4 5.5, -106.6 4.7 M-106.6 4.7 C-106.6 4.3, -106.7 3.9, -106.8 2.8 M-106.8 2.8 C-106.9 2.3, -106.9 1.8, -107 0.9 M-107 0.9 C-107 0.2, -107 -0.5, -107 -0.9 M-107 -0.9 C-106.9 -1.6, -106.9 -2.2, -106.8 -2.8 M-106.8 -2.8 C-106.8 -3.2, -106.7 -3.6, -106.6 -4.7 M-106.6 -4.7 C-106.5 -5.2, -106.4 -5.7, -106.2 -6.5 M-106.2 -6.5 C-106.1 -6.9, -106 -7.4, -105.8 -8.3 M-105.8 -8.3 C-105.6 -8.7, -105.5 -9.2, -105.2 -10.1 M-105.2 -10.1 C-104.9 -10.6, -104.7 -11.2, -104.5 -11.8 M-104.5 -11.8 C-104.1 -12.5, -103.8 -13.2, -103.7 -13.5 M-103.7 -13.5 C-103.4 -13.9, -103.2 -14.3, -102.7 -15.1 M-102.7 -15.1 C-102.4 -15.6, -102.1 -16.1, -101.7 -16.7 M-101.7 -16.7 C-101.3 -17.3, -100.8 -17.9, -100.6 -18.2 M-100.6 -18.2 C-100.2 -18.7, -99.7 -19.2, -99.4 -19.6 M-99.4 -19.6 C-99.1 -20, -98.7 -20.3, -98.1 -21 M-98.1 -21 C-97.7 -21.3, -97.3 -21.7, -96.7 -22.2 M-96.7 -22.2 C-96.3 -22.5, -95.9 -22.9, -95.2 -23.4 M-95.2 -23.4 C-94.8 -23.7, -94.3 -24, -93.7 -24.5 M-93.7 -24.5 C-93.3 -24.7, -92.9 -25, -92.1 -25.4 M-92.1 -25.4 C-91.6 -25.7, -91.1 -26, -90.4 -26.3 M-90.4 -26.3 C-89.8 -26.6, -89.2 -26.8, -88.7 -27.1 M-88.7 -27.1 C-88.2 -27.3, -87.6 -27.5, -87 -27.7 M-87 -27.7 C-86.5 -27.9, -86 -28, -85.2 -28.2 M-85.2 -28.2 C-84.7 -28.4, -84.2 -28.5, -83.4 -28.7 M-83.4 -28.7 C-82.9 -28.7, -82.5 -28.8, -81.5 -29 M-81.5 -29 C-80.9 -29, -80.4 -29.1, -79.6 -29.1 M-79.6 -29.1 C-79.2 -29.2, -78.7 -29.2, -77.8 -29.2" stroke="#768498" stroke-width="1.3" fill="none" stroke-dasharray="0 0" style="fill:#f4f7fb !important;stroke:#768498 !important"></path></g><g class="label" style="color:#0f1b2d !important" transform="translate(0, -17.2)"><rect></rect><g><rect class="background" style="stroke: none"></rect><text y="-10.1" style="fill:#0f1b2d !important"><tspan class="text-outer-tspan row" x="0" y="-0.1em" dy="1.1em"><tspan font-style="normal" class="text-inner-tspan" font-weight="normal">inbound</tspan><tspan font-style="normal" class="text-inner-tspan" font-weight="normal"> to</tspan></tspan><tspan class="text-outer-tspan row" x="0" y="1em" dy="1.1em"><tspan font-style="normal" class="text-inner-tspan" font-weight="normal">vm-spoke1</tspan><tspan font-style="normal" class="text-inner-tspan" font-weight="normal"> or</tspan><tspan font-style="normal" class="text-inner-tspan" font-weight="normal"> vm-spoke2</tspan></tspan></text></g></g></g><g class="node default rule" id="az700-33-vnet-manager-2-flowchart-r90-1" data-look="neo" transform="translate(293.8, 170.3)"><polygon points="34.2,0 285,0 319.2,-59.9 285,-119.8 34.2,-119.8 0,-59.9" class="label-container" transform="translate(-159.6,59.9)" style="fill:#fff7e6 !important;stroke:#b45309 !important"></polygon><g class="label" style="color:#0f1b2d !important" transform="translate(0, -24.9)"><rect></rect><g><rect class="background" style="stroke: none"></rect><text y="-10.1" style="fill:#0f1b2d !important"><tspan class="text-outer-tspan row" x="0" y="-0.1em" dy="1.1em"><tspan font-style="normal" class="text-inner-tspan" font-weight="normal">rc-spokes</tspan><tspan font-style="normal" class="text-inner-tspan" font-weight="normal"> 90:</tspan><tspan font-style="normal" class="text-inner-tspan" font-weight="normal"> always-allow-hub-ssh</tspan></tspan><tspan class="text-outer-tspan row" x="0" y="1em" dy="1.1em"><tspan font-style="normal" class="text-inner-tspan" font-weight="normal">AlwaysAllow</tspan><tspan font-style="normal" class="text-inner-tspan" font-weight="normal"> TCP</tspan><tspan font-style="normal" class="text-inner-tspan" font-weight="normal"> 22</tspan></tspan><tspan class="text-outer-tspan row" x="0" y="2.1em" dy="1.1em"><tspan font-style="normal" class="text-inner-tspan" font-weight="normal">from</tspan><tspan font-style="normal" class="text-inner-tspan" font-weight="normal"> the</tspan><tspan font-style="normal" class="text-inner-tspan" font-weight="normal"> hub's</tspan><tspan font-style="normal" class="text-inner-tspan" font-weight="normal"> /20</tspan></tspan></text></g></g></g><g class="node default rule" id="az700-33-vnet-manager-2-flowchart-r100-2" data-look="neo" transform="translate(387, 385.4)"><polygon points="29.8,0 264.5,0 294.3,-52.2 264.5,-104.4 29.8,-104.4 0,-52.2" class="label-container" transform="translate(-147.1,52.2)" style="fill:#fff7e6 !important;stroke:#b45309 !important"></polygon><g class="label" style="color:#0f1b2d !important" transform="translate(0, -17.2)"><rect></rect><g><rect class="background" style="stroke: none"></rect><text y="-10.1" style="fill:#0f1b2d !important"><tspan class="text-outer-tspan row" x="0" y="-0.1em" dy="1.1em"><tspan font-style="normal" class="text-inner-tspan" font-weight="normal">rc-spokes</tspan><tspan font-style="normal" class="text-inner-tspan" font-weight="normal"> 100:</tspan><tspan font-style="normal" class="text-inner-tspan" font-weight="normal"> deny-ssh-internet</tspan></tspan><tspan class="text-outer-tspan row" x="0" y="1em" dy="1.1em"><tspan font-style="normal" class="text-inner-tspan" font-weight="normal">Deny</tspan><tspan font-style="normal" class="text-inner-tspan" font-weight="normal"> TCP</tspan><tspan font-style="normal" class="text-inner-tspan" font-weight="normal"> 22</tspan><tspan font-style="normal" class="text-inner-tspan" font-weight="normal"> from</tspan><tspan font-style="normal" class="text-inner-tspan" font-weight="normal"> Internet</tspan></tspan></text></g></g></g><g class="node default rule" id="az700-33-vnet-manager-2-flowchart-nsg-3" data-look="neo" transform="translate(521.3, 592.8)"><polygon points="29.8,0 257.2,0 287,-52.2 257.2,-104.4 29.8,-104.4 0,-52.2" class="label-container" transform="translate(-143.5,52.2)" style="fill:#fff7e6 !important;stroke:#b45309 !important"></polygon><g class="label" style="color:#0f1b2d !important" transform="translate(0, -17.2)"><rect></rect><g><rect class="background" style="stroke: none"></rect><text y="-10.1" style="fill:#0f1b2d !important"><tspan class="text-outer-tspan row" x="0" y="-0.1em" dy="1.1em"><tspan font-style="normal" class="text-inner-tspan" font-weight="normal">nsg-spoke1,</tspan><tspan font-style="normal" class="text-inner-tspan" font-weight="normal"> nsg-spoke2</tspan></tspan><tspan class="text-outer-tspan row" x="0" y="1em" dy="1.1em"><tspan font-style="normal" class="text-inner-tspan" font-weight="normal">deny</tspan><tspan font-style="normal" class="text-inner-tspan" font-weight="normal"> TCP</tspan><tspan font-style="normal" class="text-inner-tspan" font-weight="normal"> 22</tspan><tspan font-style="normal" class="text-inner-tspan" font-weight="normal"> from</tspan><tspan font-style="normal" class="text-inner-tspan" font-weight="normal"> the</tspan><tspan font-style="normal" class="text-inner-tspan" font-weight="normal"> hub's</tspan><tspan font-style="normal" class="text-inner-tspan" font-weight="normal"> /20</tspan></tspan></text></g></g></g><g class="node default ok" id="az700-33-vnet-manager-2-flowchart-vm-4" data-look="neo" transform="translate(316.6, 771.5)"><rect class="basic label-container" style="fill:#e7f5ee !important;stroke:#12804f !important" rx="5" ry="5" x="-74" y="-23.5" width="148" height="47"></rect><g class="label" style="color:#0f1b2d !important" transform="translate(0, -9.5)"><rect></rect><g><rect class="background" style="stroke: none"></rect><text y="-10.1" style="fill:#0f1b2d !important"><tspan class="text-outer-tspan row" x="0" y="-0.1em" dy="1.1em"><tspan font-style="normal" class="text-inner-tspan" font-weight="normal">the</tspan><tspan font-style="normal" class="text-inner-tspan" font-weight="normal"> spoke</tspan><tspan font-style="normal" class="text-inner-tspan" font-weight="normal"> VM</tspan></tspan></text></g></g></g><g class="node default bad" id="az700-33-vnet-manager-2-flowchart-drop-5" data-look="neo" transform="translate(252.8, 571.8)"><rect class="basic label-container" style="fill:#fdecec !important;stroke:#c62828 !important" rx="5" ry="5" x="-85" y="-31.2" width="170" height="62.4"></rect><g class="label" style="color:#0f1b2d !important" transform="translate(0, -17.2)"><rect></rect><g><rect class="background" style="stroke: none"></rect><text y="-10.1" style="fill:#0f1b2d !important"><tspan class="text-outer-tspan row" x="0" y="-0.1em" dy="1.1em"><tspan font-style="normal" class="text-inner-tspan" font-weight="normal">refused,</tspan></tspan><tspan class="text-outer-tspan row" x="0" y="1em" dy="1.1em"><tspan font-style="normal" class="text-inner-tspan" font-weight="normal">whatever</tspan><tspan font-style="normal" class="text-inner-tspan" font-weight="normal"> the</tspan><tspan font-style="normal" class="text-inner-tspan" font-weight="normal"> NSG</tspan><tspan font-style="normal" class="text-inner-tspan" font-weight="normal"> says</tspan></tspan></text></g></g></g></g></g></g><defs><filter id="az700-33-vnet-manager-2-drop-shadow" height="130%" width="130%"><feDropShadow dx="4" dy="4" stdDeviation="0" flood-opacity="0.06" flood-color="#000000"></feDropShadow></filter></defs><defs><filter id="az700-33-vnet-manager-2-drop-shadow-small" height="150%" width="150%"><feDropShadow dx="2" dy="2" stdDeviation="0" flood-opacity="0.06" flood-color="#000000"></feDropShadow></filter></defs></svg>
