<svg xmlns="http://www.w3.org/2000/svg" xmlns:xlink="http://www.w3.org/1999/xlink" width="1201" height="606" viewBox="-24 -24 1201 606" role="img" aria-labelledby="t d" font-family="'Segoe UI', 'Helvetica Neue', Arial, sans-serif">
<title id="t">Public IP prefixes, NAT Gateway and outbound rules: architecture</title>
<desc id="d">A VM sending traffic to a load balancer, in one resource group with one virtual network and two subnets.</desc>
<defs><symbol id="az-load-balancers" viewBox="0 0 18 18"><defs><linearGradient id="load-balancers-1" x1="9" y1="19.85" x2="9" y2="-1.02" gradientUnits="userSpaceOnUse"><stop offset="0" stop-color="#5e9624" /><stop offset="0.02" stop-color="#5f9724" /><stop offset="1" stop-color="#76bc2d" /></linearGradient></defs><path d="M.18,8.57,8.57.18a.6.6,0,0,1,.86,0l8.39,8.39a.6.6,0,0,1,0,.86l-8.4,8.4a.6.6,0,0,1-.84,0L.18,9.43A.6.6,0,0,1,.18,8.57Z" fill="url(#load-balancers-1)" /><path d="M11.2,4,9.08,1.89a.12.12,0,0,0-.16,0L6.8,4a.1.1,0,0,0,.08.18H8.12a.11.11,0,0,1,.11.11v2a.11.11,0,0,0,.11.11H9.66a.11.11,0,0,0,.11-.11v-2a.11.11,0,0,1,.11-.11h1.24A.1.1,0,0,0,11.2,4Z" fill="#b4ec36" /><path d="M4,6.61,1.9,8.74a.11.11,0,0,0,0,.15L4,11a.11.11,0,0,0,.19-.08V9.69a.11.11,0,0,1,.11-.11h2a.1.1,0,0,0,.1-.11V8.15A.1.1,0,0,0,6.33,8h-2a.1.1,0,0,1-.11-.1V6.69A.11.11,0,0,0,4,6.61Z" fill="#b4ec36" /><path d="M14.08,11l2.13-2.12a.11.11,0,0,0,0-.15L14.08,6.61a.11.11,0,0,0-.18.08V7.94a.1.1,0,0,1-.11.1h-2a.1.1,0,0,0-.1.11V9.47a.1.1,0,0,0,.1.11h2a.11.11,0,0,1,.11.11v1.24A.11.11,0,0,0,14.08,11Z" fill="#b4ec36" /><path d="M11.79,9a2.79,2.79,0,1,0-3.54,2.67v.95a1.71,1.71,0,1,0,1.57,0v-1A2.77,2.77,0,0,0,11.79,9Z" fill="#fff" /><circle id="load-balancers-2" cx="9.01" cy="8.99" r="1.62" fill="#5ea0ef" /></symbol><symbol id="az-nat" viewBox="0 0 18 18"><defs><linearGradient id="nat-1" x1="9" y1="18.17" x2="9" y2="1.506" gradientTransform="translate(9 -3.728) rotate(45)" gradientUnits="userSpaceOnUse"><stop offset="0" stop-color="#238ab0" /><stop offset="0.109" stop-color="#2da4c8" /><stop offset="0.775" stop-color="#3ed3f2" /></linearGradient></defs><g><rect x="2.553" y="2.553" width="12.893" height="12.893" rx="0.591" transform="translate(-3.728 9) rotate(-45)" fill="url(#nat-1)" /><polygon points="14.092 10.067 13.734 9.709 13.734 8.33 10.877 8.33 10.877 9.85 12.158 9.85 8.94 13.069 5.721 9.85 7.023 9.85 7.023 8.33 3.885 8.33 3.885 9.85 4.004 9.85 3.788 10.067 8.286 14.565 8.94 13.912 9.593 14.565 14.092 10.067" fill="#9cebff" /><g><ellipse id="nat-2" cx="3.977" cy="9.09" rx="1.577" ry="1.585" transform="translate(-5.271 5.494) rotate(-45.121)" fill="#fff" /><ellipse id="nat-3" cx="3.977" cy="9.09" rx="0.896" ry="0.905" transform="translate(-5.267 5.484) rotate(-45.061)" fill="#86d633" /><ellipse id="nat-4" cx="14.014" cy="9.09" rx="1.577" ry="1.585" transform="translate(-2.316 12.607) rotate(-45.121)" fill="#fff" /><ellipse id="nat-5" cx="14.014" cy="9.09" rx="0.896" ry="0.905" transform="translate(-2.319 12.59) rotate(-45.061)" fill="#86d633" /></g><g><path d="M11.04,4.806l-2-2a.15.15,0,0,0-.213,0l-2,2a.15.15,0,0,0,.106.257H8.068a.107.107,0,0,1,.107.107V15.433H9.7V5.17A.107.107,0,0,1,9.8,5.063h1.131A.15.15,0,0,0,11.04,4.806Z" fill="#fff" /><ellipse id="nat-6" cx="8.935" cy="14.139" rx="1.577" ry="1.585" transform="translate(-7.388 10.494) rotate(-45.121)" fill="#fff" /><ellipse id="nat-7" cx="8.935" cy="14.139" rx="0.896" ry="0.905" transform="translate(-7.384 10.477) rotate(-45.061)" fill="#86d633" /></g></g></symbol><symbol id="az-resource-groups" viewBox="0 0 18 18"><g><g><path d="M.5,15.08a.16.16,0,0,0,.08.14l1.16.65L3.7,17a.17.17,0,0,0,.23-.06l.66-1.12a.16.16,0,0,0-.06-.21l-2.3-1.3a.17.17,0,0,1-.08-.14V3.85a.16.16,0,0,1,.08-.14l2.3-1.3a.16.16,0,0,0,.06-.21L3.93,1.08A.17.17,0,0,0,3.7,1L1.78,2.11l-1.2.67a.16.16,0,0,0-.08.14V15.08Z" fill="#949494" /><path d="M2.14,3.77l.06-.06,2.3-1.3a.14.14,0,0,0,.06-.21L3.9,1.08A.15.15,0,0,0,3.68,1L1.75,2.11.56,2.78s-.05,0-.06.06l.9.51Z" fill="#a3a3a3" /><path d="M4.5,15.59l-2.3-1.3a.22.22,0,0,1-.07-.09l-1.62,1,.05,0,1.15.65,2,1.11a.15.15,0,0,0,.22-.06l.66-1.12A.14.14,0,0,0,4.5,15.59Z" fill="#a3a3a3" /></g><path d="M17.5,15.08a.16.16,0,0,1-.08.14l-1.16.65L14.3,17a.17.17,0,0,1-.23-.06l-.66-1.12a.16.16,0,0,1,.06-.21l2.3-1.3a.17.17,0,0,0,.08-.14V3.85a.16.16,0,0,0-.08-.14l-2.3-1.3a.16.16,0,0,1-.06-.21l.66-1.12A.17.17,0,0,1,14.3,1l1.92,1.09,1.2.67a.16.16,0,0,1,.08.14V15.08Z" fill="#949494" /><path d="M15.86,3.77l-.06-.06-2.3-1.3a.14.14,0,0,1-.06-.21l.66-1.12A.15.15,0,0,1,14.32,1l1.93,1.09,1.19.67s0,0,.06.06l-.9.51Z" fill="#a3a3a3" /><path d="M13.5,15.59l2.3-1.3a.22.22,0,0,0,.07-.09l1.62,1,0,0-1.15.65-2,1.11a.15.15,0,0,1-.22-.06l-.66-1.12A.14.14,0,0,1,13.5,15.59Z" fill="#a3a3a3" /><polygon points="14.31 5.93 14.31 12.07 8.99 15.16 8.99 9.01 14.31 5.93" fill="#32bedd" /><polygon points="14.31 5.93 9 9.02 3.68 5.93 9 2.84 14.31 5.93" fill="#9cebff" /><polygon points="8.99 9.02 8.99 15.16 3.68 12.07 3.68 5.93 8.99 9.02" fill="#50e6ff" /><polygon points="3.68 12.07 8.99 9.01 8.99 15.16 3.68 12.07" fill="#9cebff" /><polygon points="14.31 12.07 8.99 9.01 8.99 15.16 14.31 12.07" fill="#50e6ff" /></g></symbol><symbol id="az-subnet" viewBox="0 0 18 18"><defs><linearGradient id="subnet-1" x1="9.033" y1="10.305" x2="9.033" y2="7.695" gradientUnits="userSpaceOnUse"><stop offset="0" stop-color="#5e9624" /><stop offset="0.241" stop-color="#6fb02a" /><stop offset="0.501" stop-color="#7cc52f" /><stop offset="0.756" stop-color="#83d232" /><stop offset="1" stop-color="#86d633" /></linearGradient></defs><g id="subnet-2"><g><path d="M9.031,7.7A1.305,1.305,0,1,0,10.338,9,1.305,1.305,0,0,0,9.031,7.7Z" fill="url(#subnet-1)" /><g><path d="M2.961,7.374h.888a.284.284,0,0,1,.284.284v6.551a.568.568,0,0,1-.568.568H2.677a0,0,0,0,1,0,0V7.659A.284.284,0,0,1,2.961,7.374Z" transform="translate(13.653 16.485) rotate(134.919)" fill="#50e6ff" /><path d="M2.913,3.244H3.8a.284.284,0,0,1,.284.284v7.015a0,0,0,0,1,0,0H3.2a.568.568,0,0,1-.568-.568V3.528a.284.284,0,0,1,.284-.284Z" transform="translate(5.847 -0.358) rotate(44.919)" fill="#1490df" /><path d="M13.867,7.374h.888a.568.568,0,0,1,.568.568v6.551a.284.284,0,0,1-.284.284h-.888a.284.284,0,0,1-.284-.284V7.374a0,0,0,0,1,0,0Z" transform="translate(12.132 -7.079) rotate(45.081)" fill="#50e6ff" /><path d="M14.483,3.244h.888a0,0,0,0,1,0,0v7.015a.284.284,0,0,1-.284.284H14.2a.284.284,0,0,1-.284-.284V3.812a.568.568,0,0,1,.568-.568Z" transform="translate(29.879 1.435) rotate(135.081)" fill="#1490df" /></g></g></g></symbol><symbol id="az-virtual-machine" viewBox="0 0 18 18"><defs><linearGradient id="virtual-machine-1" x1="8.88" y1="12.21" x2="8.88" y2="0.21" gradientUnits="userSpaceOnUse"><stop offset="0" stop-color="#0078d4" /><stop offset="0.82" stop-color="#5ea0ef" /></linearGradient><linearGradient id="virtual-machine-2" x1="8.88" y1="16.84" x2="8.88" y2="12.21" gradientUnits="userSpaceOnUse"><stop offset="0.15" stop-color="#ccc" /><stop offset="1" stop-color="#707070" /></linearGradient></defs><rect x="-0.12" y="0.21" width="18" height="12" rx="0.6" fill="url(#virtual-machine-1)" /><polygon points="11.88 4.46 11.88 7.95 8.88 9.71 8.88 6.21 11.88 4.46" fill="#50e6ff" /><polygon points="11.88 4.46 8.88 6.22 5.88 4.46 8.88 2.71 11.88 4.46" fill="#c3f1ff" /><polygon points="8.88 6.22 8.88 9.71 5.88 7.95 5.88 4.46 8.88 6.22" fill="#9cebff" /><polygon points="5.88 7.95 8.88 6.21 8.88 9.71 5.88 7.95" fill="#c3f1ff" /><polygon points="11.88 7.95 8.88 6.21 8.88 9.71 11.88 7.95" fill="#9cebff" /><path d="M12.49,15.84c-1.78-.28-1.85-1.56-1.85-3.63H7.11c0,2.07-.06,3.35-1.84,3.63a1,1,0,0,0-.89,1h9A1,1,0,0,0,12.49,15.84Z" fill="url(#virtual-machine-2)" /></symbol><symbol id="az-virtual-networks" viewBox="0 0 18 18"><defs><linearGradient id="virtual-networks-1" x1="9.88" y1="8.59" x2="11.52" y2="10.23" gradientTransform="translate(2.03 -0.4) rotate(-0.08)" gradientUnits="userSpaceOnUse"><stop offset="0" stop-color="#86d633" /><stop offset="1" stop-color="#5e9624" /></linearGradient><linearGradient id="virtual-networks-2" x1="6.18" y1="8.59" x2="7.81" y2="10.23" gradientUnits="userSpaceOnUse"><stop offset="0" stop-color="#86d633" /><stop offset="1" stop-color="#5e9624" /></linearGradient><linearGradient id="virtual-networks-3" x1="2.48" y1="8.59" x2="4.11" y2="10.23" gradientUnits="userSpaceOnUse"><stop offset="0" stop-color="#86d633" /><stop offset="1" stop-color="#5e9624" /></linearGradient></defs><circle cx="12.74" cy="8.99" r="1.16" fill="url(#virtual-networks-1)" /><circle cx="9.04" cy="9" r="1.16" fill="url(#virtual-networks-2)" /><circle cx="5.34" cy="9" r="1.16" fill="url(#virtual-networks-3)" /><path d="M2.61,7.28h.94a.3.3,0,0,1,.3.3v6.94a.6.6,0,0,1-.6.6H2.31a0,0,0,0,1,0,0V7.58a.3.3,0,0,1,.3-.3Z" transform="translate(13.18 16.93) rotate(134.92)" fill="#50e6ff" /><path d="M2.56,2.91H3.5a.3.3,0,0,1,.3.3v7.43a0,0,0,0,1,0,0H2.86a.6.6,0,0,1-.6-.6V3.21a.3.3,0,0,1,.3-.3Z" transform="translate(5.66 -0.16) rotate(44.92)" fill="#1490df" /><path d="M14.15,7.28h.94a.6.6,0,0,1,.6.6v6.94a.3.3,0,0,1-.3.3h-.94a.3.3,0,0,1-.3-.3V7.28a0,0,0,0,1,0,0Z" transform="translate(12.32 -7.28) rotate(45.08)" fill="#50e6ff" /><path d="M14.81,2.91h.94a0,0,0,0,1,0,0v7.43a.3.3,0,0,1-.3.3H14.5a.3.3,0,0,1-.3-.3V3.51a.6.6,0,0,1,.6-.6Z" transform="translate(30.36 0.99) rotate(135.08)" fill="#1490df" /></symbol><marker id="arrow-1" viewBox="0 0 10 10" refX="9" refY="5" markerWidth="7" markerHeight="7" markerUnits="strokeWidth" orient="auto-start-reverse"><path d="M0 0L10 5L0 10Z" fill="#0b62b0"/></marker><marker id="arrow-2" viewBox="0 0 10 10" refX="9" refY="5" markerWidth="7" markerHeight="7" markerUnits="strokeWidth" orient="auto-start-reverse"><path d="M0 0L10 5L0 10Z" fill="#c2410c"/></marker></defs>
<rect x="-24" y="-24" width="1201" height="606" fill="#ffffff"/>
<g class="group group--resourceGroup"><rect x="1" y="1" width="1151" height="518" rx="12" fill="#f9fbfd"/><path d="M1 36V12Q1 1 12 1H1141Q1152 1 1152 12V36Z" fill="#f4f7fb"/><rect x="1" y="1" width="1151" height="518" rx="12" fill="none" stroke="#768498" stroke-width="2" stroke-dasharray="7 5"/><use href="#az-resource-groups" xlink:href="#az-resource-groups" x="12" y="10" width="16" height="16"/><text x="34" y="22.3" font-size="12" font-weight="600" fill="#0f1b2d">rg-lab-az700-31-ip-nat-outbound</text><rect x="230.7" y="9.5" width="52.9" height="17" rx="8.5" fill="#ffffff" stroke="#c3cddb"/><text x="237.7" y="21.8" font-size="10.5" fill="#44546a">uksouth</text><rect x="289.5" y="9.5" width="161.9" height="17" rx="8.5" fill="#ffffff" stroke="#c3cddb"/><text x="296.5" y="21.8" font-size="10.5" fill="#44546a">lab: az700-31-ip-nat-outbound</text><rect x="457.5" y="9.5" width="129.3" height="17" rx="8.5" fill="#ffffff" stroke="#c3cddb"/><text x="464.5" y="21.8" font-size="10.5" fill="#44546a">project: wg-admin-labs</text><rect x="592.8" y="9.5" width="44.8" height="17" rx="8.5" fill="#ffffff" stroke="#c3cddb"/><text x="599.8" y="21.8" font-size="10.5" fill="#44546a">+1 tag</text></g>
<g class="group group--vnet"><rect x="32.8" y="56.8" width="1087.5" height="250.5" rx="12" fill="#2563eb" fill-opacity="0.05"/><path d="M32.8 92V68Q32.8 56.8 44 56.8H1109Q1120.3 56.8 1120.3 68V92Z" fill="#eaf0fa"/><rect x="32.8" y="56.8" width="1087.5" height="250.5" rx="12" fill="none" stroke="#2563eb" stroke-width="1.5"/><use href="#az-virtual-networks" xlink:href="#az-virtual-networks" x="44" y="66" width="16" height="16"/><text x="66" y="78.3" font-size="12" font-weight="600" fill="#0f1b2d">vnet-hub</text><text x="123.4" y="78" font-size="11" font-family="Consolas, 'Cascadia Mono', Menlo, monospace" fill="#44546a">10.71.192.0/20</text><rect x="223.3" y="65.5" width="125.9" height="17" rx="8.5" fill="#ffffff" stroke="#c3cddb"/><text x="230.3" y="77.8" font-size="10.5" fill="#44546a">Peered to the gateway</text></g>
<g class="group group--subnet"><rect x="64.5" y="112.5" width="408" height="163" rx="10" fill="#2563eb" fill-opacity="0.08"/><path d="M64.5 140V122Q64.5 112.5 74 112.5H463Q472.5 112.5 472.5 122V140Z" fill="#dae5f9"/><rect x="64.5" y="112.5" width="408" height="163" rx="10" fill="none" stroke="#97b3ed" stroke-width="1"/><use href="#az-subnet" xlink:href="#az-subnet" x="74" y="118" width="16" height="16"/><text x="96" y="130.1" font-size="11.5" font-weight="600" fill="#0f1b2d">snet-lb</text><text x="141.7" y="130" font-size="11" font-family="Consolas, 'Cascadia Mono', Menlo, monospace" fill="#44546a">10.71.193.0/24</text><rect x="241.7" y="117.5" width="111.9" height="17" rx="8.5" fill="#ffffff" stroke="#c3cddb"/><text x="248.7" y="129.8" font-size="10.5" fill="#44546a">no default outbound</text><rect x="359.5" y="117.5" width="77.8" height="17" rx="8.5" fill="#ffffff" stroke="#c3cddb"/><text x="366.5" y="129.8" font-size="10.5" fill="#44546a">NSG nsg-hub</text></g>
<g class="group group--subnet"><rect x="569.5" y="112.5" width="519" height="163" rx="10" fill="#2563eb" fill-opacity="0.08"/><path d="M569.5 140V122Q569.5 112.5 579 112.5H1079Q1088.5 112.5 1088.5 122V140Z" fill="#dae5f9"/><rect x="569.5" y="112.5" width="519" height="163" rx="10" fill="none" stroke="#97b3ed" stroke-width="1"/><use href="#az-subnet" xlink:href="#az-subnet" x="579" y="118" width="16" height="16"/><text x="601" y="130.1" font-size="11.5" font-weight="600" fill="#0f1b2d">snet-nat</text><text x="653.6" y="130" font-size="11" font-family="Consolas, 'Cascadia Mono', Menlo, monospace" fill="#44546a">10.71.192.0/24</text><rect x="753.5" y="117.5" width="111.9" height="17" rx="8.5" fill="#ffffff" stroke="#c3cddb"/><text x="760.5" y="129.8" font-size="10.5" fill="#44546a">no default outbound</text><rect x="871.4" y="117.5" width="117.7" height="17" rx="8.5" fill="#ffffff" stroke="#c3cddb"/><text x="878.4" y="129.8" font-size="10.5" fill="#44546a">NAT gateway ng-hub</text><rect x="995.1" y="117.5" width="77.8" height="17" rx="8.5" fill="#ffffff" stroke="#c3cddb"/><text x="1002.1" y="129.8" font-size="10.5" fill="#44546a">NSG nsg-hub</text></g>
<path d="M196 244 L196 362 Q196 370 188 370 L140 370 Q132 370 132 378 L132 404" fill="none" stroke="#0b62b0" stroke-width="2" stroke-linejoin="round" marker-end="url(#arrow-1)"/>
<path d="M569 194 L460 194 Q452 194 452 202 L452 404" fill="none" stroke="#c2410c" stroke-width="2" stroke-linejoin="round" marker-end="url(#arrow-2)"/>
<g class="card card--vm"><rect x="96" y="161.5" width="200" height="84" rx="10" fill="#0f1b2d" fill-opacity="0.07"/><rect x="96.5" y="160.5" width="199" height="83" rx="10" fill="#ffffff" stroke="#c3cddb"/><use href="#az-virtual-machine" xlink:href="#az-virtual-machine" x="106" y="170" width="32" height="32"/><text x="148" y="183" font-size="12" font-weight="600" fill="#0f1b2d">vm-lb</text><text x="148" y="199" font-size="11" fill="#44546a">VM</text><text x="148" y="215" font-size="11" fill="#44546a">Standard_B1s</text></g>
<g class="card card--vm"><rect x="601" y="161.5" width="200" height="84" rx="10" fill="#0f1b2d" fill-opacity="0.07"/><rect x="601.5" y="160.5" width="199" height="83" rx="10" fill="#ffffff" stroke="#c3cddb"/><use href="#az-virtual-machine" xlink:href="#az-virtual-machine" x="611" y="170" width="32" height="32"/><text x="653" y="183" font-size="12" font-weight="600" fill="#0f1b2d">vm-nat</text><text x="653" y="199" font-size="11" fill="#44546a">VM</text><text x="653" y="215" font-size="11" fill="#44546a">Standard_B1s</text></g>
<g class="card card--loadBalancer"><rect x="32" y="405.5" width="200" height="84" rx="10" fill="#0f1b2d" fill-opacity="0.07"/><rect x="32.5" y="404.5" width="199" height="83" rx="10" fill="#ffffff" stroke="#c3cddb"/><use href="#az-load-balancers" xlink:href="#az-load-balancers" x="42" y="414" width="32" height="32"/><text x="84" y="427" font-size="12" font-weight="600" fill="#0f1b2d">lb-out</text><text x="84" y="443" font-size="11" fill="#44546a">Load balancer</text><text x="84" y="459" font-size="11" fill="#44546a">Standard</text></g>
<g class="card card--natGateway"><rect x="352" y="405.5" width="200" height="84" rx="10" fill="#0f1b2d" fill-opacity="0.07"/><rect x="352.5" y="404.5" width="199" height="83" rx="10" fill="#ffffff" stroke="#c3cddb"/><use href="#az-nat" xlink:href="#az-nat" x="362" y="414" width="32" height="32"/><text x="404" y="427" font-size="12" font-weight="600" fill="#0f1b2d">ng-hub</text><text x="404" y="443" font-size="11" fill="#44546a">NAT gateway</text><text x="404" y="459" font-size="11" fill="#44546a">Standard</text></g>
<rect x="162.2" y="360" width="67.6" height="20" rx="9" fill="#ffffff" stroke="#0b62b0" stroke-width="1.5"/><text x="196" y="373.8" font-size="10.5" fill="#0f1b2d" font-weight="600" text-anchor="middle">outbound</text>
<rect x="418.2" y="232" width="67.6" height="20" rx="9" fill="#ffffff" stroke="#c2410c" stroke-width="1.5"/><text x="452" y="245.8" font-size="10.5" fill="#0f1b2d" font-weight="600" text-anchor="middle">outbound</text>
<g class="legend" font-size="11.5" fill="#44546a">
<line x1="0" y1="548" x2="24" y2="548" stroke="#44546a" stroke-width="2"/>
<text x="30" y="552">Traffic (solid)</text>
<line x1="127.2" y1="548" x2="151.2" y2="548" stroke="#0b62b0" stroke-width="2"/>
<text x="157.2" y="552">from vm-lb</text>
<line x1="238.3" y1="548" x2="262.3" y2="548" stroke="#c2410c" stroke-width="2"/>
<text x="268.3" y="552">from snet-nat</text>
</g>
</svg>
