<svg xmlns="http://www.w3.org/2000/svg" xmlns:xlink="http://www.w3.org/1999/xlink" width="1016" height="438" viewBox="-24 -24 1016 438" role="img" aria-labelledby="t d" font-family="'Segoe UI', 'Helvetica Neue', Arial, sans-serif">
<title id="t">Azure Policy, tags and resource locks: architecture</title>
<desc id="d">A storage account, a network security group and three policies, in one resource group.</desc>
<defs><symbol id="az-network-security-groups" viewBox="0 0 18 18"><defs><linearGradient id="network-security-groups-1" x1="9.01" y1="0.75" x2="9.01" y2="17.25" gradientUnits="userSpaceOnUse"><stop offset="0" stop-color="#5ea0ef" /><stop offset="0.18" stop-color="#559cec" /><stop offset="0.47" stop-color="#3c91e5" /><stop offset="0.84" stop-color="#1380da" /><stop offset="1" stop-color="#0078d4" /></linearGradient></defs><path d="M16.36,8.4c0,4.84-5.85,8.74-7.12,9.53a.46.46,0,0,1-.48,0c-1.27-.79-7.12-4.69-7.12-9.53V2.58a.46.46,0,0,1,.45-.46C6.64,2,5.59,0,9,0s2.36,2,6.91,2.12a.46.46,0,0,1,.45.46Z" fill="#0078d4" /><path d="M15.75,8.45c0,4.44-5.36,8-6.53,8.74a.43.43,0,0,1-.44,0c-1.17-.72-6.53-4.3-6.53-8.74V3.11a.42.42,0,0,1,.41-.42C6.83,2.58,5.87.75,9,.75s2.17,1.83,6.34,1.94a.42.42,0,0,1,.41.42Z" fill="#6bb9f2" /><path d="M9,9V.75c3.13,0,2.17,1.83,6.34,1.94a.43.43,0,0,1,.41.43V8.46a4.89,4.89,0,0,1,0,.54ZM9,9H2.28c.4,4.18,5.38,7.5,6.5,8.19a.39.39,0,0,0,.18.06H9Z" fill="url(#network-security-groups-1)" /><path d="M2.66,2.69C6.83,2.58,5.87.75,9,.75V9H2.28a4.89,4.89,0,0,1,0-.54V3.12A.43.43,0,0,1,2.66,2.69Z" fill="#50e6ff" /><path d="M15.72,9H9v8.25H9a.39.39,0,0,0,.18-.06C10.34,16.5,15.32,13.18,15.72,9Z" fill="#50e6ff" /></symbol><symbol id="az-policy" viewBox="0 0 18 18"><defs><linearGradient id="policy-1" x1="8.45" y1="11.47" x2="8.45" y2="6.24" gradientUnits="userSpaceOnUse"><stop offset="0" stop-color="#198ab3" /><stop offset="0.16" stop-color="#1f9ac2" /><stop offset="0.5" stop-color="#29bade" /><stop offset="0.8" stop-color="#30cdef" /><stop offset="1" stop-color="#32d4f5" /></linearGradient></defs><ellipse cx="8.45" cy="8.85" rx="2.6" ry="2.61" fill="url(#policy-1)" /><ellipse cx="15.73" cy="4.77" rx="1.27" ry="1.28" fill="#32bedd" /><ellipse cx="15.73" cy="8.95" rx="1.27" ry="1.28" fill="#32bedd" /><ellipse cx="15.73" cy="13.12" rx="1.27" ry="1.28" fill="#32bedd" /><ellipse cx="12.83" cy="6.91" rx="1.27" ry="1.28" fill="#50e6ff" /><ellipse cx="12.83" cy="11.09" rx="1.27" ry="1.28" fill="#50e6ff" /><path d="M2.41,5.58A.24.24,0,0,1,2.5,5.5L8.32,2.11c.08,0,5,2.78,5,2.78a.24.24,0,0,0,.36-.21V3.59a.24.24,0,0,0-.12-.21S8.4.46,8.33.5L1.11,4.64,1,4.72Z" fill="#949494" /><path d="M13.3,13.14,8.56,15.87a.35.35,0,0,1-.11,0v1.6a.2.2,0,0,0,.11,0l5-2.86a.24.24,0,0,0,.12-.2V13.35A.24.24,0,0,0,13.3,13.14Z" fill="#949494" /><path d="M8.45,15.9a.31.31,0,0,1-.13,0L2.5,12.47a.22.22,0,0,1-.12-.2V5.7a.27.27,0,0,1,0-.12L1,4.72a.28.28,0,0,0,0,.13v8.27a.24.24,0,0,0,.11.21l7.22,4.14a.24.24,0,0,0,.12,0Z" fill="#b3b3b3" /></symbol><symbol id="az-resource-groups" viewBox="0 0 18 18"><g><g><path d="M.5,15.08a.16.16,0,0,0,.08.14l1.16.65L3.7,17a.17.17,0,0,0,.23-.06l.66-1.12a.16.16,0,0,0-.06-.21l-2.3-1.3a.17.17,0,0,1-.08-.14V3.85a.16.16,0,0,1,.08-.14l2.3-1.3a.16.16,0,0,0,.06-.21L3.93,1.08A.17.17,0,0,0,3.7,1L1.78,2.11l-1.2.67a.16.16,0,0,0-.08.14V15.08Z" fill="#949494" /><path d="M2.14,3.77l.06-.06,2.3-1.3a.14.14,0,0,0,.06-.21L3.9,1.08A.15.15,0,0,0,3.68,1L1.75,2.11.56,2.78s-.05,0-.06.06l.9.51Z" fill="#a3a3a3" /><path d="M4.5,15.59l-2.3-1.3a.22.22,0,0,1-.07-.09l-1.62,1,.05,0,1.15.65,2,1.11a.15.15,0,0,0,.22-.06l.66-1.12A.14.14,0,0,0,4.5,15.59Z" fill="#a3a3a3" /></g><path d="M17.5,15.08a.16.16,0,0,1-.08.14l-1.16.65L14.3,17a.17.17,0,0,1-.23-.06l-.66-1.12a.16.16,0,0,1,.06-.21l2.3-1.3a.17.17,0,0,0,.08-.14V3.85a.16.16,0,0,0-.08-.14l-2.3-1.3a.16.16,0,0,1-.06-.21l.66-1.12A.17.17,0,0,1,14.3,1l1.92,1.09,1.2.67a.16.16,0,0,1,.08.14V15.08Z" fill="#949494" /><path d="M15.86,3.77l-.06-.06-2.3-1.3a.14.14,0,0,1-.06-.21l.66-1.12A.15.15,0,0,1,14.32,1l1.93,1.09,1.19.67s0,0,.06.06l-.9.51Z" fill="#a3a3a3" /><path d="M13.5,15.59l2.3-1.3a.22.22,0,0,0,.07-.09l1.62,1,0,0-1.15.65-2,1.11a.15.15,0,0,1-.22-.06l-.66-1.12A.14.14,0,0,1,13.5,15.59Z" fill="#a3a3a3" /><polygon points="14.31 5.93 14.31 12.07 8.99 15.16 8.99 9.01 14.31 5.93" fill="#32bedd" /><polygon points="14.31 5.93 9 9.02 3.68 5.93 9 2.84 14.31 5.93" fill="#9cebff" /><polygon points="8.99 9.02 8.99 15.16 3.68 12.07 3.68 5.93 8.99 9.02" fill="#50e6ff" /><polygon points="3.68 12.07 8.99 9.01 8.99 15.16 3.68 12.07" fill="#9cebff" /><polygon points="14.31 12.07 8.99 9.01 8.99 15.16 14.31 12.07" fill="#50e6ff" /></g></symbol><symbol id="az-storage-accounts" viewBox="0 0 18 18"><defs><linearGradient id="storage-accounts-1" x1="9" y1="15.83" x2="9" y2="5.79" gradientUnits="userSpaceOnUse"><stop offset="0" stop-color="#b3b3b3" /><stop offset="0.26" stop-color="#c1c1c1" /><stop offset="1" stop-color="#e6e6e6" /></linearGradient></defs><path d="M.5,5.79h17a0,0,0,0,1,0,0v9.48a.57.57,0,0,1-.57.57H1.07a.57.57,0,0,1-.57-.57V5.79A0,0,0,0,1,.5,5.79Z" fill="url(#storage-accounts-1)" /><path d="M1.07,2.17H16.93a.57.57,0,0,1,.57.57V5.79a0,0,0,0,1,0,0H.5a0,0,0,0,1,0,0V2.73A.57.57,0,0,1,1.07,2.17Z" fill="#37c2b1" /><path d="M2.81,6.89H15.18a.27.27,0,0,1,.26.27v1.4a.27.27,0,0,1-.26.27H2.81a.27.27,0,0,1-.26-.27V7.16A.27.27,0,0,1,2.81,6.89Z" fill="#fff" /><path d="M2.82,9.68H15.19a.27.27,0,0,1,.26.27v1.41a.27.27,0,0,1-.26.27H2.82a.27.27,0,0,1-.26-.27V10A.27.27,0,0,1,2.82,9.68Z" fill="#37c2b1" /><path d="M2.82,12.5H15.19a.27.27,0,0,1,.26.27v1.41a.27.27,0,0,1-.26.27H2.82a.27.27,0,0,1-.26-.27V12.77A.27.27,0,0,1,2.82,12.5Z" fill="#258277" /></symbol></defs>
<rect x="-24" y="-24" width="1016" height="438" fill="#ffffff"/>
<g class="group group--resourceGroup"><rect x="1" y="1" width="582" height="350" rx="12" fill="#f9fbfd"/><path d="M1 36V12Q1 1 12 1H572Q583 1 583 12V36Z" fill="#f4f7fb"/><rect x="1" y="1" width="582" height="350" rx="12" fill="none" stroke="#768498" stroke-width="2" stroke-dasharray="7 5"/><use href="#az-resource-groups" xlink:href="#az-resource-groups" x="12" y="10" width="16" height="16"/><text x="34" y="22.3" font-size="12" font-weight="600" fill="#0f1b2d">rg-lab-az104-02-policy</text><rect x="175" y="9.5" width="52.9" height="17" rx="8.5" fill="#ffffff" stroke="#c3cddb"/><text x="182" y="21.8" font-size="10.5" fill="#44546a">uksouth</text><rect x="233.8" y="9.5" width="116" height="17" rx="8.5" fill="#ffffff" stroke="#c3cddb"/><text x="240.8" y="21.8" font-size="10.5" fill="#44546a">lab: az104-02-policy</text><rect x="355.8" y="9.5" width="50.6" height="17" rx="8.5" fill="#ffffff" stroke="#c3cddb"/><text x="362.8" y="21.8" font-size="10.5" fill="#44546a">+2 tags</text></g>
<g class="group group--lane"><rect x="704.8" y="0.8" width="262.5" height="170.5" rx="6" fill="#f4f7fb" fill-opacity="0.7"/><path d="M704.8 36V6Q704.8 0.8 710 0.8H962Q967.3 0.8 967.3 6V36Z" fill="#f4f7fb"/><rect x="704.8" y="0.8" width="262.5" height="170.5" rx="6" fill="none" stroke="#768498" stroke-width="1.5"/><path d="M704 3V3Q704 0 707 0H965Q968 0 968 3V3Z" fill="#768498"/><text x="716" y="22" font-size="11" font-weight="600" fill="#44546a" letter-spacing="0.6">TENANT AND ENTRA ID</text></g>
<path d="M552 278 L672 278 Q680 278 680 270 L680 106 Q680 98 688 98 L736 98" fill="none" stroke="#5f6f86" stroke-width="1.2" stroke-dasharray="5 4" stroke-linejoin="round"/>
<g class="card card--storage"><rect x="32" y="57.5" width="200" height="84" rx="10" fill="#0f1b2d" fill-opacity="0.07"/><rect x="32.5" y="56.5" width="199" height="83" rx="10" fill="#ffffff" stroke="#c3cddb"/><use href="#az-storage-accounts" xlink:href="#az-storage-accounts" x="42" y="66" width="32" height="32"/><text x="84" y="79" font-size="12" font-weight="600" fill="#0f1b2d">l02…tags</text><text x="84" y="95" font-size="11" fill="#44546a">Storage account</text><text x="84" y="111" font-size="11" fill="#44546a">StorageV2</text></g>
<g class="card card--nsg"><rect x="352" y="57.5" width="200" height="84" rx="10" fill="#0f1b2d" fill-opacity="0.07"/><rect x="352.5" y="56.5" width="199" height="83" rx="10" fill="#ffffff" stroke="#c3cddb"/><use href="#az-network-security-groups" xlink:href="#az-network-security-groups" x="362" y="66" width="32" height="32"/><text x="404" y="79" font-size="12" font-weight="600" fill="#0f1b2d">nsg-untagged</text><text x="404" y="95" font-size="11" fill="#44546a">Network security group</text><text x="404" y="111" font-size="11" fill="#44546a">rules: 0</text></g>
<g class="card card--policy"><rect x="32" y="237.5" width="200" height="84" rx="10" fill="#0f1b2d" fill-opacity="0.07"/><rect x="32.5" y="236.5" width="199" height="83" rx="10" fill="#ffffff" stroke="#c3cddb"/><use href="#az-policy" xlink:href="#az-policy" x="42" y="246" width="32" height="32"/><text x="84" y="259" font-size="12" font-weight="600" fill="#0f1b2d">lab-az104-02-policy-…</text><text x="84" y="275" font-size="11" fill="#44546a">Policy</text></g>
<g class="card card--policy"><rect x="352" y="237.5" width="200" height="84" rx="10" fill="#0f1b2d" fill-opacity="0.07"/><rect x="352.5" y="236.5" width="199" height="83" rx="10" fill="#ffffff" stroke="#c3cddb"/><use href="#az-policy" xlink:href="#az-policy" x="362" y="246" width="32" height="32"/><text x="404" y="259" font-size="12" font-weight="600" fill="#0f1b2d">lab-az104-02-policy-…</text><text x="404" y="275" font-size="11" fill="#44546a">Policy</text><text x="404" y="291" font-size="11" fill="#44546a">Deny</text></g>
<g class="card card--policy"><rect x="736" y="57.5" width="200" height="84" rx="10" fill="#0f1b2d" fill-opacity="0.07"/><rect x="736.5" y="56.5" width="199" height="83" rx="10" fill="#ffffff" stroke="#c3cddb"/><use href="#az-policy" xlink:href="#az-policy" x="746" y="66" width="32" height="32"/><text x="788" y="79" font-size="12" font-weight="600" fill="#0f1b2d">lab-az104-02-policy-…</text><text x="788" y="95" font-size="11" fill="#44546a">Policy</text><text x="788" y="111" font-size="11" fill="#44546a">Deny</text></g>
<rect x="649.3" y="214" width="61.4" height="20" rx="9" fill="#ffffff" stroke="#c3cddb" stroke-width="1.5" stroke-dasharray="3 2"/><text x="680" y="227.8" font-size="10.5" fill="#44546a" font-weight="500" text-anchor="middle">assigns</text>
<g class="legend" font-size="11.5" fill="#44546a">
<line x1="0" y1="380" x2="24" y2="380" stroke="#5f6f86" stroke-width="1.2" stroke-dasharray="5 4"/>
<text x="30" y="384">Dependency (dashed)</text>
</g>
</svg>
