<!-- labs-diagrams source e18da73cd32505fc0679d77087480ef8dd0b846ff186ad248ac393ba3e8f5157 -->
<svg xmlns="http://www.w3.org/2000/svg" xmlns:xlink="http://www.w3.org/1999/xlink" id="az700-38-hub-firewall-1" width="610" height="644" viewBox="-12 -12 610 644" role="img" aria-labelledby="az700-38-hub-firewall-1-t az700-38-hub-firewall-1-d"><title id="az700-38-hub-firewall-1-t">What the hub firewall lets through</title><desc id="az700-38-hub-firewall-1-d">rt-spoke1 sends vm-spoke1's internet traffic and its traffic for spoke 2 to afw-hub. The firewall's policy fwp-hub inherits fwp-base's network rules, which allow TCP 22 and ping between the spokes, and adds application rules allowing *.ubuntu.com and www.microsoft.com on HTTP and HTTPS. Anything no rule allows, such as example.com or port 80 between the spokes, is denied.</desc><rect x="-12" y="-12" width="610" height="644" fill="#ffffff"/><style>#az700-38-hub-firewall-1{font-family:'Segoe UI','Helvetica Neue',Arial,sans-serif;font-size:14px;fill:#0f1b2d;}@keyframes edge-animation-frame{from{stroke-dashoffset:0;}}@keyframes dash{to{stroke-dashoffset:0;}}#az700-38-hub-firewall-1 .edge-animation-slow{stroke-dasharray:9,5!important;stroke-dashoffset:900;animation:dash 50s linear infinite;stroke-linecap:round;}#az700-38-hub-firewall-1 .edge-animation-fast{stroke-dasharray:9,5!important;stroke-dashoffset:900;animation:dash 20s linear infinite;stroke-linecap:round;}#az700-38-hub-firewall-1 .error-icon{fill:#ffffff;}#az700-38-hub-firewall-1 .error-text{fill:#0f1b2d;stroke:#0f1b2d;}#az700-38-hub-firewall-1 .edge-thickness-normal{stroke-width:1px;}#az700-38-hub-firewall-1 .edge-thickness-thick{stroke-width:3.5px;}#az700-38-hub-firewall-1 .edge-pattern-solid{stroke-dasharray:0;}#az700-38-hub-firewall-1 .edge-thickness-invisible{stroke-width:0;fill:none;}#az700-38-hub-firewall-1 .edge-pattern-dashed{stroke-dasharray:3;}#az700-38-hub-firewall-1 .edge-pattern-dotted{stroke-dasharray:2;}#az700-38-hub-firewall-1 .marker{fill:#44546a;stroke:#44546a;}#az700-38-hub-firewall-1 .marker.cross{stroke:#44546a;}#az700-38-hub-firewall-1 svg{font-family:'Segoe UI','Helvetica Neue',Arial,sans-serif;font-size:14px;}#az700-38-hub-firewall-1 p{margin:0;}#az700-38-hub-firewall-1 .label{font-family:'Segoe UI','Helvetica Neue',Arial,sans-serif;color:#0f1b2d;}#az700-38-hub-firewall-1 .cluster-label text{fill:#0f1b2d;}#az700-38-hub-firewall-1 .cluster-label span{color:#0f1b2d;}#az700-38-hub-firewall-1 .cluster-label span p{background-color:transparent;}#az700-38-hub-firewall-1 .label text,#az700-38-hub-firewall-1 span{fill:#0f1b2d;color:#0f1b2d;}#az700-38-hub-firewall-1 .node rect,#az700-38-hub-firewall-1 .node circle,#az700-38-hub-firewall-1 .node ellipse,#az700-38-hub-firewall-1 .node polygon,#az700-38-hub-firewall-1 .node path{fill:#eaf0fa;stroke:#2563eb;stroke-width:1px;}#az700-38-hub-firewall-1 .rough-node .label text,#az700-38-hub-firewall-1 .node .label text,#az700-38-hub-firewall-1 .image-shape .label,#az700-38-hub-firewall-1 .icon-shape .label{text-anchor:middle;}#az700-38-hub-firewall-1 .node .katex path{fill:#000;stroke:#000;stroke-width:1px;}#az700-38-hub-firewall-1 .rough-node .label,#az700-38-hub-firewall-1 .node .label,#az700-38-hub-firewall-1 .image-shape .label,#az700-38-hub-firewall-1 .icon-shape .label{text-align:center;}#az700-38-hub-firewall-1 .node.clickable{cursor:pointer;}#az700-38-hub-firewall-1 .root .anchor path{fill:#44546a!important;stroke-width:0;stroke:#44546a;}#az700-38-hub-firewall-1 .arrowheadPath{fill:#000000;}#az700-38-hub-firewall-1 .edgePaths .path{stroke:#44546a;stroke-width:1px;}#az700-38-hub-firewall-1 .flowchart-link{stroke:#44546a;fill:none;}#az700-38-hub-firewall-1 .edgeLabel{background-color:#ffffff;text-align:center;}#az700-38-hub-firewall-1 .edgeLabel p{background-color:#ffffff;}#az700-38-hub-firewall-1 .edgeLabel rect{opacity:0.5;background-color:#ffffff;fill:#ffffff;}#az700-38-hub-firewall-1 .labelBkg{background-color:rgba(255, 255, 255, 0.5);}#az700-38-hub-firewall-1 .cluster rect{fill:#f9fbfd;stroke:#768498;stroke-width:1px;}#az700-38-hub-firewall-1 .cluster text{fill:#0f1b2d;}#az700-38-hub-firewall-1 .cluster span{color:#0f1b2d;}#az700-38-hub-firewall-1 .node .collapsed-indicator{fill:#768498;stroke:none;opacity:0.6;}#az700-38-hub-firewall-1 .node .collapsed-separator{stroke:#768498;stroke-width:0.75px;}#az700-38-hub-firewall-1 div.mermaidTooltip{position:absolute;text-align:center;max-width:200px;padding:2px;font-family:'Segoe UI','Helvetica Neue',Arial,sans-serif;font-size:12px;background:#ffffff;border:1px solid #c3cddb;border-radius:2px;pointer-events:none;z-index:100;}#az700-38-hub-firewall-1 .flowchartTitleText{text-anchor:middle;font-size:18px;fill:#0f1b2d;}#az700-38-hub-firewall-1 rect.text{fill:none;stroke-width:0;}#az700-38-hub-firewall-1 .icon-shape,#az700-38-hub-firewall-1 .image-shape{background-color:#ffffff;text-align:center;}#az700-38-hub-firewall-1 .icon-shape p,#az700-38-hub-firewall-1 .image-shape p{background-color:#ffffff;padding:2px;}#az700-38-hub-firewall-1 .icon-shape .label rect,#az700-38-hub-firewall-1 .image-shape .label rect{opacity:0.5;background-color:#ffffff;fill:#ffffff;}#az700-38-hub-firewall-1 .label-icon{display:inline-block;height:1em;overflow:visible;vertical-align:-0.125em;}#az700-38-hub-firewall-1 .node .label-icon path{fill:currentColor;stroke:revert;stroke-width:revert;}#az700-38-hub-firewall-1 .node .neo-node{stroke:#2563eb;}#az700-38-hub-firewall-1 [data-look="neo"].node rect,#az700-38-hub-firewall-1 [data-look="neo"].cluster rect,#az700-38-hub-firewall-1 [data-look="neo"].node polygon{stroke:#2563eb;filter:drop-shadow( 1px 2px 2px rgba(185,185,185,1));}#az700-38-hub-firewall-1 [data-look="neo"].swimlane.cluster rect{filter:none;}#az700-38-hub-firewall-1 [data-look="neo"].node path{stroke:#2563eb;stroke-width:1px;}#az700-38-hub-firewall-1 [data-look="neo"].node .outer-path{filter:drop-shadow( 1px 2px 2px rgba(185,185,185,1));}#az700-38-hub-firewall-1 [data-look="neo"].node .neo-line path{stroke:#2563eb;filter:none;}#az700-38-hub-firewall-1 [data-look="neo"].node circle{stroke:#2563eb;filter:drop-shadow( 1px 2px 2px rgba(185,185,185,1));}#az700-38-hub-firewall-1 [data-look="neo"].node circle .state-start{fill:#000000;}#az700-38-hub-firewall-1 [data-look="neo"].icon-shape .icon{fill:#2563eb;filter:drop-shadow( 1px 2px 2px rgba(185,185,185,1));}#az700-38-hub-firewall-1 [data-look="neo"].icon-shape .icon-neo path{stroke:#2563eb;filter:drop-shadow( 1px 2px 2px rgba(185,185,185,1));}#az700-38-hub-firewall-1 :root{--mermaid-font-family:'Segoe UI','Helvetica Neue',Arial,sans-serif;}#az700-38-hub-firewall-1 .azure rect{fill:rgb(234, 240, 250)!important;stroke:rgb(37, 99, 235)!important;color:rgb(15, 27, 45)!important;}#az700-38-hub-firewall-1 .azure polygon{fill:rgb(234, 240, 250)!important;stroke:rgb(37, 99, 235)!important;color:rgb(15, 27, 45)!important;}#az700-38-hub-firewall-1 .azure ellipse{fill:rgb(234, 240, 250)!important;stroke:rgb(37, 99, 235)!important;color:rgb(15, 27, 45)!important;}#az700-38-hub-firewall-1 .azure circle{fill:rgb(234, 240, 250)!important;stroke:rgb(37, 99, 235)!important;color:rgb(15, 27, 45)!important;}#az700-38-hub-firewall-1 .azure path{fill:rgb(234, 240, 250)!important;stroke:rgb(37, 99, 235)!important;color:rgb(15, 27, 45)!important;}#az700-38-hub-firewall-1 .azure tspan{fill:rgb(15, 27, 45)!important;}#az700-38-hub-firewall-1 .client rect{fill:rgb(244, 247, 251)!important;stroke:rgb(118, 132, 152)!important;color:rgb(15, 27, 45)!important;}#az700-38-hub-firewall-1 .client polygon{fill:rgb(244, 247, 251)!important;stroke:rgb(118, 132, 152)!important;color:rgb(15, 27, 45)!important;}#az700-38-hub-firewall-1 .client ellipse{fill:rgb(244, 247, 251)!important;stroke:rgb(118, 132, 152)!important;color:rgb(15, 27, 45)!important;}#az700-38-hub-firewall-1 .client circle{fill:rgb(244, 247, 251)!important;stroke:rgb(118, 132, 152)!important;color:rgb(15, 27, 45)!important;}#az700-38-hub-firewall-1 .client path{fill:rgb(244, 247, 251)!important;stroke:rgb(118, 132, 152)!important;color:rgb(15, 27, 45)!important;}#az700-38-hub-firewall-1 .client tspan{fill:rgb(15, 27, 45)!important;}#az700-38-hub-firewall-1 .rule rect{fill:rgb(255, 247, 230)!important;stroke:rgb(180, 83, 9)!important;color:rgb(15, 27, 45)!important;}#az700-38-hub-firewall-1 .rule polygon{fill:rgb(255, 247, 230)!important;stroke:rgb(180, 83, 9)!important;color:rgb(15, 27, 45)!important;}#az700-38-hub-firewall-1 .rule ellipse{fill:rgb(255, 247, 230)!important;stroke:rgb(180, 83, 9)!important;color:rgb(15, 27, 45)!important;}#az700-38-hub-firewall-1 .rule circle{fill:rgb(255, 247, 230)!important;stroke:rgb(180, 83, 9)!important;color:rgb(15, 27, 45)!important;}#az700-38-hub-firewall-1 .rule path{fill:rgb(255, 247, 230)!important;stroke:rgb(180, 83, 9)!important;color:rgb(15, 27, 45)!important;}#az700-38-hub-firewall-1 .rule tspan{fill:rgb(15, 27, 45)!important;}#az700-38-hub-firewall-1 .bad rect{fill:rgb(253, 236, 236)!important;stroke:rgb(198, 40, 40)!important;color:rgb(15, 27, 45)!important;}#az700-38-hub-firewall-1 .bad polygon{fill:rgb(253, 236, 236)!important;stroke:rgb(198, 40, 40)!important;color:rgb(15, 27, 45)!important;}#az700-38-hub-firewall-1 .bad ellipse{fill:rgb(253, 236, 236)!important;stroke:rgb(198, 40, 40)!important;color:rgb(15, 27, 45)!important;}#az700-38-hub-firewall-1 .bad circle{fill:rgb(253, 236, 236)!important;stroke:rgb(198, 40, 40)!important;color:rgb(15, 27, 45)!important;}#az700-38-hub-firewall-1 .bad path{fill:rgb(253, 236, 236)!important;stroke:rgb(198, 40, 40)!important;color:rgb(15, 27, 45)!important;}#az700-38-hub-firewall-1 .bad tspan{fill:rgb(15, 27, 45)!important;}</style><g><marker id="az700-38-hub-firewall-1_flowchart-v2-pointEnd" class="marker flowchart-v2" viewBox="0 0 10 10" refX="5" refY="5" markerUnits="userSpaceOnUse" markerWidth="8" markerHeight="8" orient="auto"><path d="M 0 0 L 10 5 L 0 10 z" class="arrowMarkerPath" style="stroke-width: 1; stroke-dasharray: 1, 0;"></path></marker><marker id="az700-38-hub-firewall-1_flowchart-v2-pointStart" class="marker flowchart-v2" viewBox="0 0 10 10" refX="4.5" refY="5" markerUnits="userSpaceOnUse" markerWidth="8" markerHeight="8" orient="auto"><path d="M 0 5 L 10 10 L 10 0 z" class="arrowMarkerPath" style="stroke-width: 1; stroke-dasharray: 1, 0;"></path></marker><marker id="az700-38-hub-firewall-1_flowchart-v2-pointEnd-margin" class="marker flowchart-v2" viewBox="0 0 11.5 14" refX="11.5" refY="7" markerUnits="userSpaceOnUse" markerWidth="10.5" markerHeight="14" orient="auto"><path d="M 0 0 L 11.5 7 L 0 14 z" class="arrowMarkerPath" style="stroke-width: 0; stroke-dasharray: 1, 0;"></path></marker><marker id="az700-38-hub-firewall-1_flowchart-v2-pointStart-margin" class="marker flowchart-v2" viewBox="0 0 11.5 14" refX="1" refY="7" markerUnits="userSpaceOnUse" markerWidth="11.5" markerHeight="14" orient="auto"><polygon points="0,7 11.5,14 11.5,0" class="arrowMarkerPath" style="stroke-width: 0; stroke-dasharray: 1, 0;"></polygon></marker><marker id="az700-38-hub-firewall-1_flowchart-v2-circleEnd" class="marker flowchart-v2" viewBox="0 0 10 10" refX="11" refY="5" markerUnits="userSpaceOnUse" markerWidth="11" markerHeight="11" orient="auto"><circle cx="5" cy="5" r="5" class="arrowMarkerPath" style="stroke-width: 1; stroke-dasharray: 1, 0;"></circle></marker><marker id="az700-38-hub-firewall-1_flowchart-v2-circleStart" class="marker flowchart-v2" viewBox="0 0 10 10" refX="-1" refY="5" markerUnits="userSpaceOnUse" markerWidth="11" markerHeight="11" orient="auto"><circle cx="5" cy="5" r="5" class="arrowMarkerPath" style="stroke-width: 1; stroke-dasharray: 1, 0;"></circle></marker><marker id="az700-38-hub-firewall-1_flowchart-v2-circleEnd-margin" class="marker flowchart-v2" viewBox="0 0 10 10" refY="5" refX="12.25" markerUnits="userSpaceOnUse" markerWidth="14" markerHeight="14" orient="auto"><circle cx="5" cy="5" r="5" class="arrowMarkerPath" style="stroke-width: 0; stroke-dasharray: 1, 0;"></circle></marker><marker id="az700-38-hub-firewall-1_flowchart-v2-circleStart-margin" class="marker flowchart-v2" viewBox="0 0 10 10" refX="-2" refY="5" markerUnits="userSpaceOnUse" markerWidth="14" markerHeight="14" orient="auto"><circle cx="5" cy="5" r="5" class="arrowMarkerPath" style="stroke-width: 0; stroke-dasharray: 1, 0;"></circle></marker><marker id="az700-38-hub-firewall-1_flowchart-v2-crossEnd" class="marker cross flowchart-v2" viewBox="0 0 11 11" refX="12" refY="5.2" markerUnits="userSpaceOnUse" markerWidth="11" markerHeight="11" orient="auto"><path d="M 1,1 l 9,9 M 10,1 l -9,9" class="arrowMarkerPath" style="stroke-width: 2; stroke-dasharray: 1, 0;"></path></marker><marker id="az700-38-hub-firewall-1_flowchart-v2-crossStart" class="marker cross flowchart-v2" viewBox="0 0 11 11" refX="-1" refY="5.2" markerUnits="userSpaceOnUse" markerWidth="11" markerHeight="11" orient="auto"><path d="M 1,1 l 9,9 M 10,1 l -9,9" class="arrowMarkerPath" style="stroke-width: 2; stroke-dasharray: 1, 0;"></path></marker><marker id="az700-38-hub-firewall-1_flowchart-v2-crossEnd-margin" class="marker cross flowchart-v2" viewBox="0 0 15 15" refX="17.7" refY="7.5" markerUnits="userSpaceOnUse" markerWidth="12" markerHeight="12" orient="auto"><path d="M 1,1 L 14,14 M 1,14 L 14,1" class="arrowMarkerPath" style="stroke-width: 2.5;"></path></marker><marker id="az700-38-hub-firewall-1_flowchart-v2-crossStart-margin" class="marker cross flowchart-v2" viewBox="0 0 15 15" refX="-3.5" refY="7.5" markerUnits="userSpaceOnUse" markerWidth="12" markerHeight="12" orient="auto"><path d="M 1,1 L 14,14 M 1,14 L 14,1" class="arrowMarkerPath" style="stroke-width: 2.5; stroke-dasharray: 1, 0;"></path></marker><g class="root"><g class="clusters"></g><g class="edges edgePaths"><path d="M293,74.4L293,110.4" id="az700-38-hub-firewall-1-L_s1_rt_0" class="edge-thickness-normal edge-pattern-solid edge-thickness-normal edge-pattern-solid flowchart-link" style="stroke-dasharray: 0 0 32 4; stroke-dashoffset: 0;;" data-edge="true" data-et="edge" data-id="L_s1_rt_0" data-points="W3sieCI6MjkyLjk5NTkzMzUzMjcxNDg0LCJ5Ijo3NC40MDAwMDE1MjU4Nzg5fSx7IngiOjI5Mi45OTU5MzM1MzI3MTQ4NCwieSI6MTE0LjQwMDAwMTUyNTg3ODl9XQ==" data-look="neo" marker-end="url(#az700-38-hub-firewall-1_flowchart-v2-pointEnd-margin)"></path><path d="M293,234.2L293,333.2" id="az700-38-hub-firewall-1-L_rt_afw_0" class="edge-thickness-normal edge-pattern-solid edge-thickness-normal edge-pattern-solid flowchart-link" style="stroke-dasharray: 0 0 95.00001525878906 4; stroke-dashoffset: 0;;" data-edge="true" data-et="edge" data-id="L_rt_afw_0" data-points="W3sieCI6MjkyLjk5NTkzMzUzMjcxNDg0LCJ5IjoyMzQuMTk5OTk2OTQ4MjQyMn0seyJ4IjoyOTIuOTk1OTMzNTMyNzE0ODQsInkiOjMzNy4xOTk5OTY5NDgyNDIyfV0=" data-look="neo" marker-end="url(#az700-38-hub-firewall-1_flowchart-v2-pointEnd-margin)"></path><path d="M239.4,399.6L239.4,412.5Q239.4,419.6 232.3,419.6L93.6,419.6Q86.5,419.6 86.5,426.7L86.5,544.8" id="az700-38-hub-firewall-1-L_afw_s2_0" class="edge-thickness-normal edge-pattern-solid edge-thickness-normal edge-pattern-solid flowchart-link" style="stroke-dasharray: 0 0 288.72991943359375 4; stroke-dashoffset: 0;;" data-edge="true" data-et="edge" data-id="L_afw_s2_0" data-points="W3sieCI6MjM5LjM1ODIzODIyMDIxNDg0LCJ5IjozOTkuNTk5OTk4NDc0MTIxMX0seyJ4IjoyMzkuMzU4MjM4MjIwMjE0ODQsInkiOjQxOS41OTk5OTg0NzQxMjExfSx7IngiOjg2LjUsInkiOjQxOS41OTk5OTg0NzQxMjExfSx7IngiOjg2LjUsInkiOjU0OC43OTk5OTU0MjIzNjMzfV0=" data-look="neo" marker-end="url(#az700-38-hub-firewall-1_flowchart-v2-pointEnd-margin)"></path><path d="M293,399.6L293,544.8" id="az700-38-hub-firewall-1-L_afw_inet_0" class="edge-thickness-normal edge-pattern-solid edge-thickness-normal edge-pattern-solid flowchart-link" style="stroke-dasharray: 0 0 141.19998168945312 4; stroke-dashoffset: 0;;" data-edge="true" data-et="edge" data-id="L_afw_inet_0" data-points="W3sieCI6MjkyLjk5NTkzMzUzMjcxNDg0LCJ5IjozOTkuNTk5OTk4NDc0MTIxMX0seyJ4IjoyOTIuOTk1OTMzNTMyNzE0ODQsInkiOjU0OC43OTk5OTU0MjIzNjMzfV0=" data-look="neo" marker-end="url(#az700-38-hub-firewall-1_flowchart-v2-pointEnd-margin)"></path><path d="M346.6,399.6L346.6,412.5Q346.6,419.6 353.7,419.6L492.4,419.6Q499.5,419.6 499.5,426.7L499.5,544.8" id="az700-38-hub-firewall-1-L_afw_deny_0" class="edge-thickness-normal edge-pattern-solid edge-thickness-normal edge-pattern-solid flowchart-link" style="stroke-dasharray: 0 0 288.7299499511719 4; stroke-dashoffset: 0;;" data-edge="true" data-et="edge" data-id="L_afw_deny_0" data-points="W3sieCI6MzQ2LjYzMzYyODg0NTIxNDg0LCJ5IjozOTkuNTk5OTk4NDc0MTIxMX0seyJ4IjozNDYuNjMzNjI4ODQ1MjE0ODQsInkiOjQxOS41OTk5OTg0NzQxMjExfSx7IngiOjQ5OS40OTE4NjcwNjU0Mjk3LCJ5Ijo0MTkuNTk5OTk4NDc0MTIxMX0seyJ4Ijo0OTkuNDkxODY3MDY1NDI5NywieSI6NTQ4Ljc5OTk5NTQyMjM2MzN9XQ==" data-look="neo" marker-end="url(#az700-38-hub-firewall-1_flowchart-v2-pointEnd-margin)"></path></g><g class="edgeLabels"><g class="edgeLabel" transform="translate(292.5, 285.7)"><g class="label" data-id="L_rt_afw_0" transform="translate(0, -8.5)"><g><rect class="background" style="" x="-53" y="-3" width="106.1" height="23"></rect><text y="-10.1" text-anchor="middle" style=""><tspan class="text-outer-tspan row" x="0" y="-0.1em" dy="1.1em" text-anchor="middle"><tspan font-style="normal" class="text-inner-tspan" font-weight="normal">over</tspan><tspan font-style="normal" class="text-inner-tspan" font-weight="normal"> the</tspan><tspan font-style="normal" class="text-inner-tspan" font-weight="normal"> peering</tspan></tspan></text></g></g></g><g class="edgeLabel" transform="translate(86.1, 474.2)"><g class="label" data-id="L_afw_s2_0" transform="translate(0, -16.2)"><g><rect class="background" style="" x="-74.1" y="-3" width="148.3" height="38.4"></rect><text y="-10.1" text-anchor="middle" style=""><tspan class="text-outer-tspan row" x="0" y="-0.1em" dy="1.1em" text-anchor="middle"><tspan font-style="normal" class="text-inner-tspan" font-weight="normal">fwp-base</tspan><tspan font-style="normal" class="text-inner-tspan" font-weight="normal"> network</tspan><tspan font-style="normal" class="text-inner-tspan" font-weight="normal"> rules</tspan></tspan><tspan class="text-outer-tspan row" x="0" y="1em" dy="1.1em" text-anchor="middle"><tspan font-style="normal" class="text-inner-tspan" font-weight="normal">TCP</tspan><tspan font-style="normal" class="text-inner-tspan" font-weight="normal"> 22,</tspan><tspan font-style="normal" class="text-inner-tspan" font-weight="normal"> ping</tspan></tspan></text></g></g></g><g class="edgeLabel" transform="translate(292.9, 474.2)"><g class="label" data-id="L_afw_inet_0" transform="translate(0, -31.6)"><g><rect class="background" style="" x="-80.9" y="-3" width="161.8" height="69.2"></rect><text y="-10.1" text-anchor="middle" style=""><tspan class="text-outer-tspan row" x="0" y="-0.1em" dy="1.1em" text-anchor="middle"><tspan font-style="normal" class="text-inner-tspan" font-weight="normal">fwp-hub</tspan><tspan font-style="normal" class="text-inner-tspan" font-weight="normal"> application</tspan><tspan font-style="normal" class="text-inner-tspan" font-weight="normal"> rules</tspan></tspan><tspan class="text-outer-tspan row" x="0" y="1em" dy="1.1em" text-anchor="middle"><tspan font-style="normal" class="text-inner-tspan" font-weight="normal">*.ubuntu.com</tspan></tspan><tspan class="text-outer-tspan row" x="0" y="2.1em" dy="1.1em" text-anchor="middle"><tspan font-style="normal" class="text-inner-tspan" font-weight="normal">www.microsoft.com</tspan></tspan><tspan class="text-outer-tspan row" x="0" y="3.2em" dy="1.1em" text-anchor="middle"><tspan font-style="normal" class="text-inner-tspan" font-weight="normal">HTTP,</tspan><tspan font-style="normal" class="text-inner-tspan" font-weight="normal"> HTTPS</tspan></tspan></text></g></g></g><g class="edgeLabel" transform="translate(499.3, 474.2)"><g class="label" data-id="L_afw_deny_0" transform="translate(-0.2, -23.9)"><g><rect class="background" style="" x="-69.1" y="-3" width="138.6" height="53.8"></rect><text y="-10.1" text-anchor="middle" style=""><tspan class="text-outer-tspan row" x="0" y="-0.1em" dy="1.1em" text-anchor="middle"><tspan font-style="normal" class="text-inner-tspan" font-weight="normal">anything</tspan><tspan font-style="normal" class="text-inner-tspan" font-weight="normal"> else,</tspan><tspan font-style="normal" class="text-inner-tspan" font-weight="normal"> e.g.</tspan></tspan><tspan class="text-outer-tspan row" x="0" y="1em" dy="1.1em" text-anchor="middle"><tspan font-style="normal" class="text-inner-tspan" font-weight="normal">example.com</tspan><tspan font-style="normal" class="text-inner-tspan" font-weight="normal"> or</tspan></tspan><tspan class="text-outer-tspan row" x="0" y="2.1em" dy="1.1em" text-anchor="middle"><tspan font-style="normal" class="text-inner-tspan" font-weight="normal">port</tspan><tspan font-style="normal" class="text-inner-tspan" font-weight="normal"> 80</tspan><tspan font-style="normal" class="text-inner-tspan" font-weight="normal"> to</tspan><tspan font-style="normal" class="text-inner-tspan" font-weight="normal"> vm-spoke2</tspan></tspan></text></g></g></g></g><g class="nodes"><g class="node default azure" id="az700-38-hub-firewall-1-flowchart-s1-0" data-look="neo" transform="translate(293, 43.2)"><rect class="basic label-container" style="fill:#eaf0fa !important;stroke:#2563eb !important" rx="5" ry="5" x="-99.7" y="-31.2" width="199.5" height="62.4"></rect><g class="label" style="color:#0f1b2d !important" transform="translate(0, -17.2)"><rect></rect><g><rect class="background" style="stroke: none"></rect><text y="-10.1" style="fill:#0f1b2d !important"><tspan class="text-outer-tspan row" x="0" y="-0.1em" dy="1.1em"><tspan font-style="normal" class="text-inner-tspan" font-weight="normal">vm-spoke1,</tspan><tspan font-style="normal" class="text-inner-tspan" font-weight="normal"> snet-workload</tspan></tspan><tspan class="text-outer-tspan row" x="0" y="1em" dy="1.1em"><tspan font-style="normal" class="text-inner-tspan" font-weight="normal">no</tspan><tspan font-style="normal" class="text-inner-tspan" font-weight="normal"> default</tspan><tspan font-style="normal" class="text-inner-tspan" font-weight="normal"> outbound</tspan><tspan font-style="normal" class="text-inner-tspan" font-weight="normal"> access</tspan></tspan></text></g></g></g><g class="node default rule" id="az700-38-hub-firewall-1-flowchart-rt-1" data-look="neo" transform="translate(293, 174.3)"><polygon points="34.2,0 231.5,0 265.8,-59.9 231.5,-119.8 34.2,-119.8 0,-59.9" class="label-container" transform="translate(-132.9,59.9)" style="fill:#fff7e6 !important;stroke:#b45309 !important"></polygon><g class="label" style="color:#0f1b2d !important" transform="translate(0, -24.9)"><rect></rect><g><rect class="background" style="stroke: none"></rect><text y="-10.1" style="fill:#0f1b2d !important"><tspan class="text-outer-tspan row" x="0" y="-0.1em" dy="1.1em"><tspan font-style="normal" class="text-inner-tspan" font-weight="normal">rt-spoke1</tspan></tspan><tspan class="text-outer-tspan row" x="0" y="1em" dy="1.1em"><tspan font-style="normal" class="text-inner-tspan" font-weight="normal">0.0.0.0/0</tspan><tspan font-style="normal" class="text-inner-tspan" font-weight="normal"> and</tspan><tspan font-style="normal" class="text-inner-tspan" font-weight="normal"> spoke</tspan><tspan font-style="normal" class="text-inner-tspan" font-weight="normal"> 2's</tspan><tspan font-style="normal" class="text-inner-tspan" font-weight="normal"> /20</tspan></tspan><tspan class="text-outer-tspan row" x="0" y="2.1em" dy="1.1em"><tspan font-style="normal" class="text-inner-tspan" font-weight="normal">→</tspan><tspan font-style="normal" class="text-inner-tspan" font-weight="normal"> the</tspan><tspan font-style="normal" class="text-inner-tspan" font-weight="normal"> firewall's</tspan><tspan font-style="normal" class="text-inner-tspan" font-weight="normal"> private</tspan><tspan font-style="normal" class="text-inner-tspan" font-weight="normal"> IP</tspan></tspan></text></g></g></g><g class="node default azure" id="az700-38-hub-firewall-1-flowchart-afw-2" data-look="neo" transform="translate(293, 368.4)"><rect class="basic label-container" style="fill:#eaf0fa !important;stroke:#2563eb !important" rx="5" ry="5" x="-117.3" y="-31.2" width="234.6" height="62.4"></rect><g class="label" style="color:#0f1b2d !important" transform="translate(0, -17.2)"><rect></rect><g><rect class="background" style="stroke: none"></rect><text y="-10.1" style="fill:#0f1b2d !important"><tspan class="text-outer-tspan row" x="0" y="-0.1em" dy="1.1em"><tspan font-style="normal" class="text-inner-tspan" font-weight="normal">afw-hub,</tspan><tspan font-style="normal" class="text-inner-tspan" font-weight="normal"> Basic</tspan></tspan><tspan class="text-outer-tspan row" x="0" y="1em" dy="1.1em"><tspan font-style="normal" class="text-inner-tspan" font-weight="normal">policy</tspan><tspan font-style="normal" class="text-inner-tspan" font-weight="normal"> fwp-hub,</tspan><tspan font-style="normal" class="text-inner-tspan" font-weight="normal"> inherits</tspan><tspan font-style="normal" class="text-inner-tspan" font-weight="normal"> fwp-base</tspan></tspan></text></g></g></g><g class="node default azure" id="az700-38-hub-firewall-1-flowchart-s2-3" data-look="neo" transform="translate(86.5, 572.3)"><rect class="basic label-container" style="fill:#eaf0fa !important;stroke:#2563eb !important" rx="5" ry="5" x="-74" y="-23.5" width="148" height="47"></rect><g class="label" style="color:#0f1b2d !important" transform="translate(0, -9.5)"><rect></rect><g><rect class="background" style="stroke: none"></rect><text y="-10.1" style="fill:#0f1b2d !important"><tspan class="text-outer-tspan row" x="0" y="-0.1em" dy="1.1em"><tspan font-style="normal" class="text-inner-tspan" font-weight="normal">vm-spoke2</tspan></tspan></text></g></g></g><g class="node default client" id="az700-38-hub-firewall-1-flowchart-inet-4" data-look="neo" transform="translate(293, 578)"><g class="basic label-container outer-path"><path d="M-63.3 -29.2 C-30 -29.2, 3.3 -29.2, 63.3 -29.2 C63.3 -29.2, 63.3 -29.2, 63.3 -29.2 C63.9 -29.2, 64.5 -29.2, 65.2 -29.1 C65.9 -29.1, 66.6 -29, 67 -29 C67.7 -28.9, 68.4 -28.7, 68.9 -28.7 C69.4 -28.5, 69.9 -28.4, 70.7 -28.2 C71.4 -28, 72 -27.9, 72.5 -27.7 C73.1 -27.5, 73.7 -27.3, 74.3 -27.1 C74.9 -26.8, 75.6 -26.5, 76 -26.3 C76.5 -26.1, 76.9 -25.8, 77.6 -25.4 C78.2 -25.1, 78.8 -24.8, 79.2 -24.5 C79.6 -24.2, 79.9 -24, 80.8 -23.4 C81.3 -23, 81.7 -22.6, 82.2 -22.2 C82.6 -21.9, 83 -21.6, 83.6 -21 C84.1 -20.4, 84.6 -19.9, 84.9 -19.6 C85.2 -19.3, 85.5 -18.9, 86.1 -18.2 C86.5 -17.7, 86.8 -17.3, 87.3 -16.7 C87.5 -16.4, 87.7 -16.1, 88.3 -15.1 C88.5 -14.7, 88.7 -14.3, 89.2 -13.5 C89.5 -12.9, 89.7 -12.4, 90 -11.8 C90.2 -11.4, 90.3 -11, 90.7 -10.1 C90.8 -9.7, 91 -9.3, 91.3 -8.3 C91.4 -7.8, 91.5 -7.4, 91.8 -6.5 C91.9 -5.9, 92 -5.2, 92.1 -4.7 C92.2 -4.1, 92.3 -3.5, 92.4 -2.8 C92.4 -2.3, 92.4 -1.8, 92.5 -0.9 C92.5 -0.2, 92.5 0.5, 92.5 0.9 C92.5 1.3, 92.4 1.8, 92.4 2.8 C92.3 3.5, 92.2 4.1, 92.1 4.7 C92.1 5.1, 92 5.5, 91.8 6.5 C91.6 7.1, 91.5 7.7, 91.3 8.3 C91.1 8.8, 91 9.3, 90.7 10.1 C90.5 10.5, 90.3 11, 90 11.8 C89.7 12.4, 89.4 13.1, 89.2 13.5 C88.9 14, 88.7 14.4, 88.3 15.1 C87.9 15.7, 87.6 16.2, 87.3 16.7 C86.9 17.2, 86.5 17.7, 86.1 18.2 C85.7 18.7, 85.3 19.2, 84.9 19.6 C84.5 20.1, 84 20.5, 83.6 21 C83.1 21.4, 82.7 21.8, 82.2 22.2 C81.7 22.7, 81.1 23.2, 80.8 23.4 C80.2 23.8, 79.6 24.2, 79.2 24.5 C78.8 24.7, 78.3 25, 77.6 25.4 C77 25.8, 76.4 26.1, 76 26.3 C75.6 26.5, 75.2 26.6, 74.3 27.1 C73.8 27.2, 73.3 27.4, 72.5 27.7 C72.1 27.8, 71.7 27.9, 70.7 28.2 C70.3 28.3, 69.8 28.5, 68.9 28.7 C68.3 28.8, 67.7 28.9, 67 29 C66.6 29, 66.2 29, 65.2 29.1 C64.6 29.2, 64 29.2, 63.3 29.2 C63.3 29.2, 63.3 29.2, 63.3 29.2 C14.6 29.2, -34.2 29.2, -63.3 29.2 C-64 29.2, -64.6 29.2, -65.2 29.1 C-65.7 29.1, -66.1 29, -67 29 C-67.6 28.9, -68.2 28.8, -68.9 28.7 C-69.3 28.6, -69.7 28.5, -70.7 28.2 C-71.1 28.1, -71.5 28, -72.5 27.7 C-72.9 27.6, -73.3 27.4, -74.3 27.1 C-74.9 26.8, -75.5 26.5, -76 26.3 C-76.3 26.1, -76.7 26, -77.6 25.4 C-78.2 25.1, -78.7 24.8, -79.2 24.5 C-79.7 24.1, -80.2 23.8, -80.8 23.4 C-81.3 23, -81.8 22.6, -82.2 22.2 C-82.6 21.9, -82.9 21.6, -83.6 21 C-84.1 20.5, -84.6 19.9, -84.9 19.6 C-85.3 19.2, -85.6 18.8, -86.1 18.2 C-86.4 17.8, -86.7 17.5, -87.3 16.7 C-87.5 16.3, -87.7 16, -88.3 15.1 C-88.5 14.8, -88.7 14.4, -89.2 13.5 C-89.4 13.1, -89.6 12.7, -90 11.8 C-90.2 11.3, -90.4 10.9, -90.7 10.1 C-90.9 9.5, -91.1 8.9, -91.3 8.3 C-91.4 7.8, -91.6 7.3, -91.8 6.5 C-91.9 5.9, -92 5.3, -92.1 4.7 C-92.2 4.1, -92.3 3.5, -92.4 2.8 C-92.4 2.1, -92.5 1.4, -92.5 0.9 C-92.5 0.2, -92.5 -0.5, -92.5 -0.9 C-92.5 -1.4, -92.4 -1.8, -92.4 -2.8 C-92.3 -3.5, -92.2 -4.1, -92.1 -4.7 C-92.1 -5.1, -92 -5.5, -91.8 -6.5 C-91.6 -7.1, -91.5 -7.7, -91.3 -8.3 C-91.1 -8.9, -90.9 -9.5, -90.7 -10.1 C-90.5 -10.7, -90.2 -11.3, -90 -11.8 C-89.7 -12.4, -89.4 -13, -89.2 -13.5 C-88.9 -14, -88.7 -14.4, -88.3 -15.1 C-88 -15.6, -87.6 -16.1, -87.3 -16.7 C-87 -17, -86.8 -17.3, -86.1 -18.2 C-85.7 -18.7, -85.3 -19.2, -84.9 -19.6 C-84.4 -20.2, -83.9 -20.7, -83.6 -21 C-83.2 -21.4, -82.8 -21.8, -82.2 -22.2 C-81.9 -22.5, -81.5 -22.8, -80.8 -23.4 C-80.4 -23.6, -80.1 -23.9, -79.2 -24.5 C-78.7 -24.8, -78.1 -25.2, -77.6 -25.4 C-77.3 -25.6, -76.9 -25.8, -76 -26.3 C-75.5 -26.5, -75 -26.7, -74.3 -27.1 C-73.9 -27.2, -73.5 -27.4, -72.5 -27.7 C-72 -27.9, -71.4 -28, -70.7 -28.2 C-70 -28.4, -69.3 -28.6, -68.9 -28.7 C-68.4 -28.7, -67.8 -28.8, -67 -29 C-66.6 -29, -66.1 -29, -65.2 -29.1 C-64.6 -29.2, -64.1 -29.2, -63.3 -29.2 C-63.3 -29.2, -63.3 -29.2, -63.3 -29.2" stroke="none" stroke-width="0" fill="#f4f7fb" style="fill:#f4f7fb !important;stroke:#768498 !important"></path><path d="M-63.3 -29.2 C-38 -29.2, -12.7 -29.2, 63.3 -29.2 M63.3 -29.2 C63.7 -29.2, 64.1 -29.2, 65.2 -29.1 M65.2 -29.1 C65.7 -29.1, 66.3 -29, 67 -29 M67 -29 C67.5 -28.9, 67.9 -28.8, 68.9 -28.7 M68.9 -28.7 C69.5 -28.5, 70.1 -28.4, 70.7 -28.2 M70.7 -28.2 C71.1 -28.1, 71.5 -28, 72.5 -27.7 M72.5 -27.7 C73.1 -27.5, 73.8 -27.3, 74.3 -27.1 M74.3 -27.1 C74.7 -26.9, 75.2 -26.7, 76 -26.3 M76 -26.3 C76.5 -26, 77.1 -25.7, 77.6 -25.4 M77.6 -25.4 C78.2 -25.1, 78.8 -24.7, 79.2 -24.5 M79.2 -24.5 C79.8 -24.1, 80.4 -23.7, 80.8 -23.4 M80.8 -23.4 C81.3 -23, 81.9 -22.5, 82.2 -22.2 M82.2 -22.2 C82.7 -21.8, 83.2 -21.3, 83.6 -21 M83.6 -21 C84 -20.6, 84.3 -20.2, 84.9 -19.6 M84.9 -19.6 C85.2 -19.3, 85.5 -18.9, 86.1 -18.2 M86.1 -18.2 C86.5 -17.7, 86.9 -17.2, 87.3 -16.7 M87.3 -16.7 C87.5 -16.3, 87.8 -15.9, 88.3 -15.1 M88.3 -15.1 C88.6 -14.6, 88.9 -14, 89.2 -13.5 M89.2 -13.5 C89.4 -13, 89.7 -12.6, 90 -11.8 M90 -11.8 C90.2 -11.2, 90.5 -10.7, 90.7 -10.1 M90.7 -10.1 C90.9 -9.4, 91.1 -8.8, 91.3 -8.3 M91.3 -8.3 C91.5 -7.7, 91.6 -7.2, 91.8 -6.5 M91.8 -6.5 C91.9 -5.9, 92 -5.3, 92.1 -4.7 M92.1 -4.7 C92.2 -4.1, 92.3 -3.5, 92.4 -2.8 M92.4 -2.8 C92.4 -2.3, 92.4 -1.7, 92.5 -0.9 M92.5 -0.9 C92.5 -0.3, 92.5 0.4, 92.5 0.9 M92.5 0.9 C92.4 1.7, 92.4 2.4, 92.4 2.8 M92.4 2.8 C92.3 3.2, 92.3 3.7, 92.1 4.7 M92.1 4.7 C92 5.1, 91.9 5.6, 91.8 6.5 M91.8 6.5 C91.6 7.1, 91.4 7.8, 91.3 8.3 M91.3 8.3 C91.1 8.9, 90.9 9.4, 90.7 10.1 M90.7 10.1 C90.5 10.7, 90.2 11.4, 90 11.8 M90 11.8 C89.8 12.3, 89.6 12.8, 89.2 13.5 M89.2 13.5 C89 13.9, 88.8 14.3, 88.3 15.1 M88.3 15.1 C88 15.6, 87.7 16, 87.3 16.7 M87.3 16.7 C87 17, 86.8 17.3, 86.1 18.2 M86.1 18.2 C85.8 18.7, 85.4 19.1, 84.9 19.6 M84.9 19.6 C84.6 20, 84.3 20.3, 83.6 21 M83.6 21 C83.3 21.3, 83 21.5, 82.2 22.2 M82.2 22.2 C81.7 22.7, 81.1 23.2, 80.8 23.4 M80.8 23.4 C80.3 23.7, 79.8 24.1, 79.2 24.5 M79.2 24.5 C78.9 24.7, 78.5 24.9, 77.6 25.4 M77.6 25.4 C77.1 25.7, 76.6 26, 76 26.3 M76 26.3 C75.3 26.6, 74.7 26.9, 74.3 27.1 M74.3 27.1 C73.9 27.2, 73.5 27.3, 72.5 27.7 M72.5 27.7 C72.1 27.8, 71.8 27.9, 70.7 28.2 M70.7 28.2 C70.3 28.3, 69.9 28.4, 68.9 28.7 M68.9 28.7 C68.3 28.8, 67.6 28.9, 67 29 M67 29 C66.5 29, 66 29.1, 65.2 29.1 M65.2 29.1 C64.5 29.2, 63.8 29.2, 63.3 29.2 M63.3 29.2 C27.6 29.2, -8.1 29.2, -63.3 29.2 M-63.3 29.2 C-63.7 29.2, -64.2 29.2, -65.2 29.1 M-65.2 29.1 C-65.7 29.1, -66.2 29, -67 29 M-67 29 C-67.6 28.9, -68.2 28.8, -68.9 28.7 M-68.9 28.7 C-69.5 28.5, -70.1 28.4, -70.7 28.2 M-70.7 28.2 C-71.2 28.1, -71.7 28, -72.5 27.7 M-72.5 27.7 C-73 27.5, -73.4 27.4, -74.3 27.1 M-74.3 27.1 C-74.9 26.8, -75.5 26.5, -76 26.3 M-76 26.3 C-76.4 26.1, -76.8 25.9, -77.6 25.4 M-77.6 25.4 C-78 25.2, -78.4 25, -79.2 24.5 M-79.2 24.5 C-79.6 24.2, -80 23.9, -80.8 23.4 M-80.8 23.4 C-81.1 23.1, -81.5 22.8, -82.2 22.2 M-82.2 22.2 C-82.7 21.8, -83.1 21.5, -83.6 21 M-83.6 21 C-84.1 20.5, -84.5 20.1, -84.9 19.6 M-84.9 19.6 C-85.4 19.1, -85.8 18.6, -86.1 18.2 M-86.1 18.2 C-86.5 17.7, -86.9 17.2, -87.3 16.7 M-87.3 16.7 C-87.5 16.4, -87.7 16.1, -88.3 15.1 M-88.3 15.1 C-88.6 14.6, -88.9 14.1, -89.2 13.5 M-89.2 13.5 C-89.4 13.2, -89.5 12.8, -90 11.8 M-90 11.8 C-90.2 11.4, -90.3 11.1, -90.7 10.1 M-90.7 10.1 C-90.9 9.4, -91.2 8.7, -91.3 8.3 M-91.3 8.3 C-91.5 7.6, -91.7 7, -91.8 6.5 M-91.8 6.5 C-91.9 6, -92 5.5, -92.1 4.7 M-92.1 4.7 C-92.2 4.3, -92.2 3.9, -92.4 2.8 M-92.4 2.8 C-92.4 2.3, -92.4 1.8, -92.5 0.9 M-92.5 0.9 C-92.5 0.2, -92.5 -0.5, -92.5 -0.9 M-92.5 -0.9 C-92.5 -1.6, -92.4 -2.2, -92.4 -2.8 M-92.4 -2.8 C-92.3 -3.2, -92.3 -3.6, -92.1 -4.7 M-92.1 -4.7 C-92 -5.2, -91.9 -5.7, -91.8 -6.5 M-91.8 -6.5 C-91.7 -6.9, -91.5 -7.4, -91.3 -8.3 M-91.3 -8.3 C-91.2 -8.7, -91 -9.2, -90.7 -10.1 M-90.7 -10.1 C-90.5 -10.6, -90.3 -11.2, -90 -11.8 M-90 -11.8 C-89.7 -12.5, -89.4 -13.2, -89.2 -13.5 M-89.2 -13.5 C-89 -13.9, -88.7 -14.3, -88.3 -15.1 M-88.3 -15.1 C-88 -15.6, -87.7 -16.1, -87.3 -16.7 M-87.3 -16.7 C-86.8 -17.3, -86.4 -17.9, -86.1 -18.2 M-86.1 -18.2 C-85.7 -18.7, -85.3 -19.2, -84.9 -19.6 M-84.9 -19.6 C-84.6 -20, -84.3 -20.3, -83.6 -21 M-83.6 -21 C-83.2 -21.3, -82.8 -21.7, -82.2 -22.2 M-82.2 -22.2 C-81.8 -22.5, -81.5 -22.9, -80.8 -23.4 M-80.8 -23.4 C-80.3 -23.7, -79.9 -24, -79.2 -24.5 M-79.2 -24.5 C-78.8 -24.7, -78.4 -25, -77.6 -25.4 M-77.6 -25.4 C-77.1 -25.7, -76.6 -26, -76 -26.3 M-76 -26.3 C-75.4 -26.6, -74.8 -26.8, -74.3 -27.1 M-74.3 -27.1 C-73.7 -27.3, -73.1 -27.5, -72.5 -27.7 M-72.5 -27.7 C-72 -27.9, -71.6 -28, -70.7 -28.2 M-70.7 -28.2 C-70.2 -28.4, -69.8 -28.5, -68.9 -28.7 M-68.9 -28.7 C-68.5 -28.7, -68 -28.8, -67 -29 M-67 -29 C-66.5 -29, -65.9 -29.1, -65.2 -29.1 M-65.2 -29.1 C-64.7 -29.2, -64.2 -29.2, -63.3 -29.2" stroke="#768498" stroke-width="1.3" fill="none" stroke-dasharray="0 0" style="fill:#f4f7fb !important;stroke:#768498 !important"></path></g><g class="label" style="color:#0f1b2d !important" transform="translate(0, -17.2)"><rect></rect><g><rect class="background" style="stroke: none"></rect><text y="-10.1" style="fill:#0f1b2d !important"><tspan class="text-outer-tspan row" x="0" y="-0.1em" dy="1.1em"><tspan font-style="normal" class="text-inner-tspan" font-weight="normal">internet</tspan></tspan><tspan class="text-outer-tspan row" x="0" y="1em" dy="1.1em"><tspan font-style="normal" class="text-inner-tspan" font-weight="normal">through</tspan><tspan font-style="normal" class="text-inner-tspan" font-weight="normal"> pip-afw-hub</tspan></tspan></text></g></g></g><g class="node default bad" id="az700-38-hub-firewall-1-flowchart-deny-5" data-look="neo" transform="translate(499.5, 572.3)"><rect class="basic label-container" style="fill:#fdecec !important;stroke:#c62828 !important" rx="5" ry="5" x="-74" y="-23.5" width="148" height="47"></rect><g class="label" style="color:#0f1b2d !important" transform="translate(0, -9.5)"><rect></rect><g><rect class="background" style="stroke: none"></rect><text y="-10.1" style="fill:#0f1b2d !important"><tspan class="text-outer-tspan row" x="0" y="-0.1em" dy="1.1em"><tspan font-style="normal" class="text-inner-tspan" font-weight="normal">denied</tspan></tspan></text></g></g></g></g></g></g><defs><filter id="az700-38-hub-firewall-1-drop-shadow" height="130%" width="130%"><feDropShadow dx="4" dy="4" stdDeviation="0" flood-opacity="0.06" flood-color="#000000"></feDropShadow></filter></defs><defs><filter id="az700-38-hub-firewall-1-drop-shadow-small" height="150%" width="150%"><feDropShadow dx="2" dy="2" stdDeviation="0" flood-opacity="0.06" flood-color="#000000"></feDropShadow></filter></defs></svg>
