<svg xmlns="http://www.w3.org/2000/svg" xmlns:xlink="http://www.w3.org/1999/xlink" width="766" height="464" viewBox="-24 -24 766 464" role="img" aria-labelledby="t d" font-family="'Segoe UI', 'Helvetica Neue', Arial, sans-serif">
<title id="t">ARM and Bicep templates (Bicep): architecture</title>
<desc id="d">A storage account, in one resource group with one virtual network and two subnets.</desc>
<defs><symbol id="az-resource-groups" viewBox="0 0 18 18"><g><g><path d="M.5,15.08a.16.16,0,0,0,.08.14l1.16.65L3.7,17a.17.17,0,0,0,.23-.06l.66-1.12a.16.16,0,0,0-.06-.21l-2.3-1.3a.17.17,0,0,1-.08-.14V3.85a.16.16,0,0,1,.08-.14l2.3-1.3a.16.16,0,0,0,.06-.21L3.93,1.08A.17.17,0,0,0,3.7,1L1.78,2.11l-1.2.67a.16.16,0,0,0-.08.14V15.08Z" fill="#949494" /><path d="M2.14,3.77l.06-.06,2.3-1.3a.14.14,0,0,0,.06-.21L3.9,1.08A.15.15,0,0,0,3.68,1L1.75,2.11.56,2.78s-.05,0-.06.06l.9.51Z" fill="#a3a3a3" /><path d="M4.5,15.59l-2.3-1.3a.22.22,0,0,1-.07-.09l-1.62,1,.05,0,1.15.65,2,1.11a.15.15,0,0,0,.22-.06l.66-1.12A.14.14,0,0,0,4.5,15.59Z" fill="#a3a3a3" /></g><path d="M17.5,15.08a.16.16,0,0,1-.08.14l-1.16.65L14.3,17a.17.17,0,0,1-.23-.06l-.66-1.12a.16.16,0,0,1,.06-.21l2.3-1.3a.17.17,0,0,0,.08-.14V3.85a.16.16,0,0,0-.08-.14l-2.3-1.3a.16.16,0,0,1-.06-.21l.66-1.12A.17.17,0,0,1,14.3,1l1.92,1.09,1.2.67a.16.16,0,0,1,.08.14V15.08Z" fill="#949494" /><path d="M15.86,3.77l-.06-.06-2.3-1.3a.14.14,0,0,1-.06-.21l.66-1.12A.15.15,0,0,1,14.32,1l1.93,1.09,1.19.67s0,0,.06.06l-.9.51Z" fill="#a3a3a3" /><path d="M13.5,15.59l2.3-1.3a.22.22,0,0,0,.07-.09l1.62,1,0,0-1.15.65-2,1.11a.15.15,0,0,1-.22-.06l-.66-1.12A.14.14,0,0,1,13.5,15.59Z" fill="#a3a3a3" /><polygon points="14.31 5.93 14.31 12.07 8.99 15.16 8.99 9.01 14.31 5.93" fill="#32bedd" /><polygon points="14.31 5.93 9 9.02 3.68 5.93 9 2.84 14.31 5.93" fill="#9cebff" /><polygon points="8.99 9.02 8.99 15.16 3.68 12.07 3.68 5.93 8.99 9.02" fill="#50e6ff" /><polygon points="3.68 12.07 8.99 9.01 8.99 15.16 3.68 12.07" fill="#9cebff" /><polygon points="14.31 12.07 8.99 9.01 8.99 15.16 14.31 12.07" fill="#50e6ff" /></g></symbol><symbol id="az-storage-accounts" viewBox="0 0 18 18"><defs><linearGradient id="storage-accounts-1" x1="9" y1="15.83" x2="9" y2="5.79" gradientUnits="userSpaceOnUse"><stop offset="0" stop-color="#b3b3b3" /><stop offset="0.26" stop-color="#c1c1c1" /><stop offset="1" stop-color="#e6e6e6" /></linearGradient></defs><path d="M.5,5.79h17a0,0,0,0,1,0,0v9.48a.57.57,0,0,1-.57.57H1.07a.57.57,0,0,1-.57-.57V5.79A0,0,0,0,1,.5,5.79Z" fill="url(#storage-accounts-1)" /><path d="M1.07,2.17H16.93a.57.57,0,0,1,.57.57V5.79a0,0,0,0,1,0,0H.5a0,0,0,0,1,0,0V2.73A.57.57,0,0,1,1.07,2.17Z" fill="#37c2b1" /><path d="M2.81,6.89H15.18a.27.27,0,0,1,.26.27v1.4a.27.27,0,0,1-.26.27H2.81a.27.27,0,0,1-.26-.27V7.16A.27.27,0,0,1,2.81,6.89Z" fill="#fff" /><path d="M2.82,9.68H15.19a.27.27,0,0,1,.26.27v1.41a.27.27,0,0,1-.26.27H2.82a.27.27,0,0,1-.26-.27V10A.27.27,0,0,1,2.82,9.68Z" fill="#37c2b1" /><path d="M2.82,12.5H15.19a.27.27,0,0,1,.26.27v1.41a.27.27,0,0,1-.26.27H2.82a.27.27,0,0,1-.26-.27V12.77A.27.27,0,0,1,2.82,12.5Z" fill="#258277" /></symbol><symbol id="az-subnet" viewBox="0 0 18 18"><defs><linearGradient id="subnet-1" x1="9.033" y1="10.305" x2="9.033" y2="7.695" gradientUnits="userSpaceOnUse"><stop offset="0" stop-color="#5e9624" /><stop offset="0.241" stop-color="#6fb02a" /><stop offset="0.501" stop-color="#7cc52f" /><stop offset="0.756" stop-color="#83d232" /><stop offset="1" stop-color="#86d633" /></linearGradient></defs><g id="subnet-2"><g><path d="M9.031,7.7A1.305,1.305,0,1,0,10.338,9,1.305,1.305,0,0,0,9.031,7.7Z" fill="url(#subnet-1)" /><g><path d="M2.961,7.374h.888a.284.284,0,0,1,.284.284v6.551a.568.568,0,0,1-.568.568H2.677a0,0,0,0,1,0,0V7.659A.284.284,0,0,1,2.961,7.374Z" transform="translate(13.653 16.485) rotate(134.919)" fill="#50e6ff" /><path d="M2.913,3.244H3.8a.284.284,0,0,1,.284.284v7.015a0,0,0,0,1,0,0H3.2a.568.568,0,0,1-.568-.568V3.528a.284.284,0,0,1,.284-.284Z" transform="translate(5.847 -0.358) rotate(44.919)" fill="#1490df" /><path d="M13.867,7.374h.888a.568.568,0,0,1,.568.568v6.551a.284.284,0,0,1-.284.284h-.888a.284.284,0,0,1-.284-.284V7.374a0,0,0,0,1,0,0Z" transform="translate(12.132 -7.079) rotate(45.081)" fill="#50e6ff" /><path d="M14.483,3.244h.888a0,0,0,0,1,0,0v7.015a.284.284,0,0,1-.284.284H14.2a.284.284,0,0,1-.284-.284V3.812a.568.568,0,0,1,.568-.568Z" transform="translate(29.879 1.435) rotate(135.081)" fill="#1490df" /></g></g></g></symbol><symbol id="az-virtual-networks" viewBox="0 0 18 18"><defs><linearGradient id="virtual-networks-1" x1="9.88" y1="8.59" x2="11.52" y2="10.23" gradientTransform="translate(2.03 -0.4) rotate(-0.08)" gradientUnits="userSpaceOnUse"><stop offset="0" stop-color="#86d633" /><stop offset="1" stop-color="#5e9624" /></linearGradient><linearGradient id="virtual-networks-2" x1="6.18" y1="8.59" x2="7.81" y2="10.23" gradientUnits="userSpaceOnUse"><stop offset="0" stop-color="#86d633" /><stop offset="1" stop-color="#5e9624" /></linearGradient><linearGradient id="virtual-networks-3" x1="2.48" y1="8.59" x2="4.11" y2="10.23" gradientUnits="userSpaceOnUse"><stop offset="0" stop-color="#86d633" /><stop offset="1" stop-color="#5e9624" /></linearGradient></defs><circle cx="12.74" cy="8.99" r="1.16" fill="url(#virtual-networks-1)" /><circle cx="9.04" cy="9" r="1.16" fill="url(#virtual-networks-2)" /><circle cx="5.34" cy="9" r="1.16" fill="url(#virtual-networks-3)" /><path d="M2.61,7.28h.94a.3.3,0,0,1,.3.3v6.94a.6.6,0,0,1-.6.6H2.31a0,0,0,0,1,0,0V7.58a.3.3,0,0,1,.3-.3Z" transform="translate(13.18 16.93) rotate(134.92)" fill="#50e6ff" /><path d="M2.56,2.91H3.5a.3.3,0,0,1,.3.3v7.43a0,0,0,0,1,0,0H2.86a.6.6,0,0,1-.6-.6V3.21a.3.3,0,0,1,.3-.3Z" transform="translate(5.66 -0.16) rotate(44.92)" fill="#1490df" /><path d="M14.15,7.28h.94a.6.6,0,0,1,.6.6v6.94a.3.3,0,0,1-.3.3h-.94a.3.3,0,0,1-.3-.3V7.28a0,0,0,0,1,0,0Z" transform="translate(12.32 -7.28) rotate(45.08)" fill="#50e6ff" /><path d="M14.81,2.91h.94a0,0,0,0,1,0,0v7.43a.3.3,0,0,1-.3.3H14.5a.3.3,0,0,1-.3-.3V3.51a.6.6,0,0,1,.6-.6Z" transform="translate(30.36 0.99) rotate(135.08)" fill="#1490df" /></symbol></defs>
<rect x="-24" y="-24" width="766" height="464" fill="#ffffff"/>
<g class="group group--resourceGroup"><rect x="1" y="1" width="716" height="414" rx="12" fill="#f9fbfd"/><path d="M1 36V12Q1 1 12 1H706Q717 1 717 12V36Z" fill="#f4f7fb"/><rect x="1" y="1" width="716" height="414" rx="12" fill="none" stroke="#768498" stroke-width="2" stroke-dasharray="7 5"/><use href="#az-resource-groups" xlink:href="#az-resource-groups" x="12" y="10" width="16" height="16"/><text x="34" y="22.3" font-size="12" font-weight="600" fill="#0f1b2d">rg-lab-az104-12-bicep</text><rect x="170.6" y="9.5" width="52.9" height="17" rx="8.5" fill="#ffffff" stroke="#c3cddb"/><text x="177.6" y="21.8" font-size="10.5" fill="#44546a">uksouth</text><rect x="229.5" y="9.5" width="112.4" height="17" rx="8.5" fill="#ffffff" stroke="#c3cddb"/><text x="236.5" y="21.8" font-size="10.5" fill="#44546a">lab: az104-12-bicep</text><rect x="347.9" y="9.5" width="129.3" height="17" rx="8.5" fill="#ffffff" stroke="#c3cddb"/><text x="354.9" y="21.8" font-size="10.5" fill="#44546a">project: wg-admin-labs</text><rect x="483.2" y="9.5" width="44.8" height="17" rx="8.5" fill="#ffffff" stroke="#c3cddb"/><text x="490.2" y="21.8" font-size="10.5" fill="#44546a">+1 tag</text></g>
<g class="group group--vnet"><rect x="32.8" y="56.8" width="356.5" height="326.5" rx="12" fill="#2563eb" fill-opacity="0.05"/><path d="M32.8 92V68Q32.8 56.8 44 56.8H378Q389.3 56.8 389.3 68V92Z" fill="#eaf0fa"/><rect x="32.8" y="56.8" width="356.5" height="326.5" rx="12" fill="none" stroke="#2563eb" stroke-width="1.5"/><use href="#az-virtual-networks" xlink:href="#az-virtual-networks" x="44" y="66" width="16" height="16"/><text x="66" y="78.3" font-size="12" font-weight="600" fill="#0f1b2d">vnet-bicep</text><text x="134.8" y="78" font-size="11" font-family="Consolas, 'Cascadia Mono', Menlo, monospace" fill="#44546a">10.71.192.0/20</text></g>
<g class="group group--subnet"><rect x="64.5" y="112.5" width="293" height="71" rx="10" fill="#2563eb" fill-opacity="0.08"/><path d="M64.5 140V122Q64.5 112.5 74 112.5H348Q357.5 112.5 357.5 122V140Z" fill="#dae5f9"/><rect x="64.5" y="112.5" width="293" height="71" rx="10" fill="none" stroke="#97b3ed" stroke-width="1"/><use href="#az-subnet" xlink:href="#az-subnet" x="74" y="118" width="16" height="16"/><text x="96" y="130.1" font-size="11.5" font-weight="600" fill="#0f1b2d">snet-web</text><text x="155.1" y="130" font-size="11" font-family="Consolas, 'Cascadia Mono', Menlo, monospace" fill="#44546a">10.71.192.0/24</text><rect x="255.1" y="117.5" width="87.3" height="17" rx="8.5" fill="#ffffff" stroke="#c3cddb"/><text x="262.1" y="129.8" font-size="10.5" fill="#44546a">NSG nsg-bicep</text></g>
<g class="group group--subnet"><rect x="64.5" y="280.5" width="293" height="71" rx="10" fill="#2563eb" fill-opacity="0.08"/><path d="M64.5 308V290Q64.5 280.5 74 280.5H348Q357.5 280.5 357.5 290V308Z" fill="#dae5f9"/><rect x="64.5" y="280.5" width="293" height="71" rx="10" fill="none" stroke="#97b3ed" stroke-width="1"/><use href="#az-subnet" xlink:href="#az-subnet" x="74" y="286" width="16" height="16"/><text x="96" y="298.1" font-size="11.5" font-weight="600" fill="#0f1b2d">snet-app</text><text x="151.2" y="298" font-size="11" font-family="Consolas, 'Cascadia Mono', Menlo, monospace" fill="#44546a">10.71.193.0/24</text><rect x="251.2" y="285.5" width="87.3" height="17" rx="8.5" fill="#ffffff" stroke="#c3cddb"/><text x="258.2" y="297.8" font-size="10.5" fill="#44546a">NSG nsg-bicep</text></g>
<g class="card card--storage"><rect x="486" y="57.5" width="200" height="84" rx="10" fill="#0f1b2d" fill-opacity="0.07"/><rect x="486.5" y="56.5" width="199" height="83" rx="10" fill="#ffffff" stroke="#c3cddb"/><use href="#az-storage-accounts" xlink:href="#az-storage-accounts" x="496" y="66" width="32" height="32"/><text x="538" y="79" font-size="12" font-weight="600" fill="#0f1b2d">l12…bicep</text><text x="538" y="95" font-size="11" fill="#44546a">Storage account</text><text x="538" y="111" font-size="11" fill="#44546a">StorageV2</text><text x="599.4" y="111" font-size="11" fill="#44546a">off</text></g>
</svg>
