<svg xmlns="http://www.w3.org/2000/svg" xmlns:xlink="http://www.w3.org/1999/xlink" width="906" height="866" viewBox="-32 -24 906 866" role="img" aria-labelledby="t d" font-family="'Segoe UI', 'Helvetica Neue', Arial, sans-serif">
<title id="t">Site-to-site VPN between two VNets, one as on-prem: architecture</title>
<desc id="d">Two VPN gateways sending traffic to two local network gateways, in one resource group with two virtual networks and four subnets.</desc>
<defs><symbol id="az-local-network-gateways" viewBox="0 0 18 18"><defs><linearGradient id="local-network-gateways-1" x1="9" y1="17.79" x2="9" y2="1.82" gradientTransform="translate(9 -3.73) rotate(45)" gradientUnits="userSpaceOnUse"><stop offset="0" stop-color="#258277" /><stop offset="0.42" stop-color="#49a498" /><stop offset="0.78" stop-color="#60baad" /><stop offset="1" stop-color="#68c2b5" /></linearGradient></defs><rect x="2.82" y="2.82" width="12.35" height="12.35" rx="0.57" transform="translate(-3.73 9) rotate(-45)" fill="url(#local-network-gateways-1)" /><path d="M7.05,4.68,8.93,2.8a.1.1,0,0,1,.14,0L11,4.68a.09.09,0,0,1-.07.16H9.78a.1.1,0,0,0-.1.1V7.37a.09.09,0,0,1-.09.09H8.42a.09.09,0,0,1-.1-.09V4.94a.1.1,0,0,0-.09-.1H7.12A.1.1,0,0,1,7.05,4.68ZM11,13.32,9.07,15.2a.1.1,0,0,1-.14,0L7.05,13.32a.1.1,0,0,1,.07-.16H8.23a.1.1,0,0,0,.09-.1V10.63a.09.09,0,0,1,.1-.09H9.59a.09.09,0,0,1,.09.09v2.43a.1.1,0,0,0,.1.1h1.1A.09.09,0,0,1,11,13.32ZM5.34,10.84V9.74a.11.11,0,0,0-.1-.1H2.81a.1.1,0,0,1-.1-.09V8.38a.11.11,0,0,1,.1-.1H5.24a.1.1,0,0,0,.1-.09V7.08A.09.09,0,0,1,5.5,7L7.38,8.9a.09.09,0,0,1,0,.13L5.5,10.91A.09.09,0,0,1,5.34,10.84Zm7.32-3.76V8.19a.1.1,0,0,0,.1.09h2.43a.11.11,0,0,1,.1.1V9.55a.1.1,0,0,1-.1.09H12.76a.11.11,0,0,0-.1.1v1.1a.09.09,0,0,1-.16.07L10.62,9a.09.09,0,0,1,0-.13L12.5,7A.09.09,0,0,1,12.66,7.08Z" fill="#fff" /></symbol><symbol id="az-resource-groups" viewBox="0 0 18 18"><g><g><path d="M.5,15.08a.16.16,0,0,0,.08.14l1.16.65L3.7,17a.17.17,0,0,0,.23-.06l.66-1.12a.16.16,0,0,0-.06-.21l-2.3-1.3a.17.17,0,0,1-.08-.14V3.85a.16.16,0,0,1,.08-.14l2.3-1.3a.16.16,0,0,0,.06-.21L3.93,1.08A.17.17,0,0,0,3.7,1L1.78,2.11l-1.2.67a.16.16,0,0,0-.08.14V15.08Z" fill="#949494" /><path d="M2.14,3.77l.06-.06,2.3-1.3a.14.14,0,0,0,.06-.21L3.9,1.08A.15.15,0,0,0,3.68,1L1.75,2.11.56,2.78s-.05,0-.06.06l.9.51Z" fill="#a3a3a3" /><path d="M4.5,15.59l-2.3-1.3a.22.22,0,0,1-.07-.09l-1.62,1,.05,0,1.15.65,2,1.11a.15.15,0,0,0,.22-.06l.66-1.12A.14.14,0,0,0,4.5,15.59Z" fill="#a3a3a3" /></g><path d="M17.5,15.08a.16.16,0,0,1-.08.14l-1.16.65L14.3,17a.17.17,0,0,1-.23-.06l-.66-1.12a.16.16,0,0,1,.06-.21l2.3-1.3a.17.17,0,0,0,.08-.14V3.85a.16.16,0,0,0-.08-.14l-2.3-1.3a.16.16,0,0,1-.06-.21l.66-1.12A.17.17,0,0,1,14.3,1l1.92,1.09,1.2.67a.16.16,0,0,1,.08.14V15.08Z" fill="#949494" /><path d="M15.86,3.77l-.06-.06-2.3-1.3a.14.14,0,0,1-.06-.21l.66-1.12A.15.15,0,0,1,14.32,1l1.93,1.09,1.19.67s0,0,.06.06l-.9.51Z" fill="#a3a3a3" /><path d="M13.5,15.59l2.3-1.3a.22.22,0,0,0,.07-.09l1.62,1,0,0-1.15.65-2,1.11a.15.15,0,0,1-.22-.06l-.66-1.12A.14.14,0,0,1,13.5,15.59Z" fill="#a3a3a3" /><polygon points="14.31 5.93 14.31 12.07 8.99 15.16 8.99 9.01 14.31 5.93" fill="#32bedd" /><polygon points="14.31 5.93 9 9.02 3.68 5.93 9 2.84 14.31 5.93" fill="#9cebff" /><polygon points="8.99 9.02 8.99 15.16 3.68 12.07 3.68 5.93 8.99 9.02" fill="#50e6ff" /><polygon points="3.68 12.07 8.99 9.01 8.99 15.16 3.68 12.07" fill="#9cebff" /><polygon points="14.31 12.07 8.99 9.01 8.99 15.16 14.31 12.07" fill="#50e6ff" /></g></symbol><symbol id="az-subnet" viewBox="0 0 18 18"><defs><linearGradient id="subnet-1" x1="9.033" y1="10.305" x2="9.033" y2="7.695" gradientUnits="userSpaceOnUse"><stop offset="0" stop-color="#5e9624" /><stop offset="0.241" stop-color="#6fb02a" /><stop offset="0.501" stop-color="#7cc52f" /><stop offset="0.756" stop-color="#83d232" /><stop offset="1" stop-color="#86d633" /></linearGradient></defs><g id="subnet-2"><g><path d="M9.031,7.7A1.305,1.305,0,1,0,10.338,9,1.305,1.305,0,0,0,9.031,7.7Z" fill="url(#subnet-1)" /><g><path d="M2.961,7.374h.888a.284.284,0,0,1,.284.284v6.551a.568.568,0,0,1-.568.568H2.677a0,0,0,0,1,0,0V7.659A.284.284,0,0,1,2.961,7.374Z" transform="translate(13.653 16.485) rotate(134.919)" fill="#50e6ff" /><path d="M2.913,3.244H3.8a.284.284,0,0,1,.284.284v7.015a0,0,0,0,1,0,0H3.2a.568.568,0,0,1-.568-.568V3.528a.284.284,0,0,1,.284-.284Z" transform="translate(5.847 -0.358) rotate(44.919)" fill="#1490df" /><path d="M13.867,7.374h.888a.568.568,0,0,1,.568.568v6.551a.284.284,0,0,1-.284.284h-.888a.284.284,0,0,1-.284-.284V7.374a0,0,0,0,1,0,0Z" transform="translate(12.132 -7.079) rotate(45.081)" fill="#50e6ff" /><path d="M14.483,3.244h.888a0,0,0,0,1,0,0v7.015a.284.284,0,0,1-.284.284H14.2a.284.284,0,0,1-.284-.284V3.812a.568.568,0,0,1,.568-.568Z" transform="translate(29.879 1.435) rotate(135.081)" fill="#1490df" /></g></g></g></symbol><symbol id="az-virtual-machine" viewBox="0 0 18 18"><defs><linearGradient id="virtual-machine-1" x1="8.88" y1="12.21" x2="8.88" y2="0.21" gradientUnits="userSpaceOnUse"><stop offset="0" stop-color="#0078d4" /><stop offset="0.82" stop-color="#5ea0ef" /></linearGradient><linearGradient id="virtual-machine-2" x1="8.88" y1="16.84" x2="8.88" y2="12.21" gradientUnits="userSpaceOnUse"><stop offset="0.15" stop-color="#ccc" /><stop offset="1" stop-color="#707070" /></linearGradient></defs><rect x="-0.12" y="0.21" width="18" height="12" rx="0.6" fill="url(#virtual-machine-1)" /><polygon points="11.88 4.46 11.88 7.95 8.88 9.71 8.88 6.21 11.88 4.46" fill="#50e6ff" /><polygon points="11.88 4.46 8.88 6.22 5.88 4.46 8.88 2.71 11.88 4.46" fill="#c3f1ff" /><polygon points="8.88 6.22 8.88 9.71 5.88 7.95 5.88 4.46 8.88 6.22" fill="#9cebff" /><polygon points="5.88 7.95 8.88 6.21 8.88 9.71 5.88 7.95" fill="#c3f1ff" /><polygon points="11.88 7.95 8.88 6.21 8.88 9.71 11.88 7.95" fill="#9cebff" /><path d="M12.49,15.84c-1.78-.28-1.85-1.56-1.85-3.63H7.11c0,2.07-.06,3.35-1.84,3.63a1,1,0,0,0-.89,1h9A1,1,0,0,0,12.49,15.84Z" fill="url(#virtual-machine-2)" /></symbol><symbol id="az-virtual-network-gateways" viewBox="0 0 18 18"><defs><linearGradient id="virtual-network-gateways-1" x1="8.59" y1="-7.79" x2="9.12" y2="20.05" gradientUnits="userSpaceOnUse"><stop offset="0.22" stop-color="#32d4f5" /><stop offset="0.47" stop-color="#31d1f3" /><stop offset="0.63" stop-color="#2ec9eb" /><stop offset="0.77" stop-color="#29bade" /><stop offset="0.89" stop-color="#22a5cb" /><stop offset="1" stop-color="#198ab3" /><stop offset="1" stop-color="#198ab3" /></linearGradient></defs><path d="M15.06,8.67h-1V5.59a5.81,5.81,0,0,0-1.49-3.92A4.79,4.79,0,0,0,8.91,0a4.79,4.79,0,0,0-3.7,1.67A5.73,5.73,0,0,0,3.72,5.59V8.67H2.91a.7.7,0,0,0-.69.69v8a.7.7,0,0,0,.69.69H15.06a.71.71,0,0,0,.7-.69V9.36A.71.71,0,0,0,15.06,8.67Zm-3.37,0H6.13V5.54A3.18,3.18,0,0,1,7,3.39a2.51,2.51,0,0,1,1.88-.86,2.54,2.54,0,0,1,1.89.86,3.19,3.19,0,0,1,.32.43h0a3,3,0,0,1,.61,1.71Z" fill="url(#virtual-network-gateways-1)" /><path d="M15.09,8.67H2.92a.66.66,0,0,0-.44.17l13.05,9a.67.67,0,0,0,.25-.52v-8A.71.71,0,0,0,15.09,8.67Z" fill="#50e6ff" /><path d="M2.94,8.67H15.1a.7.7,0,0,1,.45.17l-13.06,9a.7.7,0,0,1-.25-.52v-8A.72.72,0,0,1,2.94,8.67Z" fill="#fff" opacity="0.2" /><path d="M7.8,10.6,9,9.4a.07.07,0,0,1,.09,0l1.19,1.2a.06.06,0,0,1,0,.1h-.7a.06.06,0,0,0-.06.06V12.3a.06.06,0,0,1-.06.06H8.67a.05.05,0,0,1-.06-.06V10.76a.07.07,0,0,0-.07-.06h-.7A.06.06,0,0,1,7.8,10.6Zm2.47,5.48L9.08,17.27a.06.06,0,0,1-.09,0L7.8,16.08a.06.06,0,0,1,0-.1h.7a.07.07,0,0,0,.07-.06V14.37a.06.06,0,0,1,.06-.06h.74a.06.06,0,0,1,.06.06v1.55a.06.06,0,0,0,.06.06h.7A.06.06,0,0,1,10.27,16.08Zm-4.7-1.55v-.7a.06.06,0,0,0-.06-.06H4a.06.06,0,0,1-.06-.06V13A.06.06,0,0,1,4,12.91H5.51a.06.06,0,0,0,.06-.06v-.7a.07.07,0,0,1,.11-.05l1.19,1.2a.06.06,0,0,1,0,.08l-1.19,1.2A.07.07,0,0,1,5.57,14.53Zm6.93-2.38v.7a.06.06,0,0,0,.06.06H14.1s.07,0,.07.06v.74a.07.07,0,0,1-.07.06H12.56a.06.06,0,0,0-.06.06v.7a.06.06,0,0,1-.1.05l-1.19-1.2a0,0,0,0,1,0-.08l1.19-1.2S12.5,12.09,12.5,12.15Z" fill="#fff" /></symbol><symbol id="az-virtual-networks" viewBox="0 0 18 18"><defs><linearGradient id="virtual-networks-1" x1="9.88" y1="8.59" x2="11.52" y2="10.23" gradientTransform="translate(2.03 -0.4) rotate(-0.08)" gradientUnits="userSpaceOnUse"><stop offset="0" stop-color="#86d633" /><stop offset="1" stop-color="#5e9624" /></linearGradient><linearGradient id="virtual-networks-2" x1="6.18" y1="8.59" x2="7.81" y2="10.23" gradientUnits="userSpaceOnUse"><stop offset="0" stop-color="#86d633" /><stop offset="1" stop-color="#5e9624" /></linearGradient><linearGradient id="virtual-networks-3" x1="2.48" y1="8.59" x2="4.11" y2="10.23" gradientUnits="userSpaceOnUse"><stop offset="0" stop-color="#86d633" /><stop offset="1" stop-color="#5e9624" /></linearGradient></defs><circle cx="12.74" cy="8.99" r="1.16" fill="url(#virtual-networks-1)" /><circle cx="9.04" cy="9" r="1.16" fill="url(#virtual-networks-2)" /><circle cx="5.34" cy="9" r="1.16" fill="url(#virtual-networks-3)" /><path d="M2.61,7.28h.94a.3.3,0,0,1,.3.3v6.94a.6.6,0,0,1-.6.6H2.31a0,0,0,0,1,0,0V7.58a.3.3,0,0,1,.3-.3Z" transform="translate(13.18 16.93) rotate(134.92)" fill="#50e6ff" /><path d="M2.56,2.91H3.5a.3.3,0,0,1,.3.3v7.43a0,0,0,0,1,0,0H2.86a.6.6,0,0,1-.6-.6V3.21a.3.3,0,0,1,.3-.3Z" transform="translate(5.66 -0.16) rotate(44.92)" fill="#1490df" /><path d="M14.15,7.28h.94a.6.6,0,0,1,.6.6v6.94a.3.3,0,0,1-.3.3h-.94a.3.3,0,0,1-.3-.3V7.28a0,0,0,0,1,0,0Z" transform="translate(12.32 -7.28) rotate(45.08)" fill="#50e6ff" /><path d="M14.81,2.91h.94a0,0,0,0,1,0,0v7.43a.3.3,0,0,1-.3.3H14.5a.3.3,0,0,1-.3-.3V3.51a.6.6,0,0,1,.6-.6Z" transform="translate(30.36 0.99) rotate(135.08)" fill="#1490df" /></symbol><marker id="arrow-1" viewBox="0 0 10 10" refX="9" refY="5" markerWidth="7" markerHeight="7" markerUnits="strokeWidth" orient="auto-start-reverse"><path d="M0 0L10 5L0 10Z" fill="#0b62b0"/></marker><marker id="arrow-2" viewBox="0 0 10 10" refX="9" refY="5" markerWidth="7" markerHeight="7" markerUnits="strokeWidth" orient="auto-start-reverse"><path d="M0 0L10 5L0 10Z" fill="#c2410c"/></marker></defs>
<rect x="-32" y="-24" width="906" height="866" fill="#ffffff"/>
<g class="group group--resourceGroup"><rect x="1" y="1" width="848" height="778" rx="12" fill="#f9fbfd"/><path d="M1 36V12Q1 1 12 1H838Q849 1 849 12V36Z" fill="#f4f7fb"/><rect x="1" y="1" width="848" height="778" rx="12" fill="none" stroke="#768498" stroke-width="2" stroke-dasharray="7 5"/><use href="#az-resource-groups" xlink:href="#az-resource-groups" x="12" y="10" width="16" height="16"/><text x="34" y="22.3" font-size="12" font-weight="600" fill="#0f1b2d">rg-lab-az700-36-s2s-vpn</text><rect x="185" y="9.5" width="52.9" height="17" rx="8.5" fill="#ffffff" stroke="#c3cddb"/><text x="192" y="21.8" font-size="10.5" fill="#44546a">uksouth</text><rect x="243.9" y="9.5" width="124.3" height="17" rx="8.5" fill="#ffffff" stroke="#c3cddb"/><text x="250.9" y="21.8" font-size="10.5" fill="#44546a">lab: az700-36-s2s-vpn</text><rect x="374.1" y="9.5" width="129.3" height="17" rx="8.5" fill="#ffffff" stroke="#c3cddb"/><text x="381.1" y="21.8" font-size="10.5" fill="#44546a">project: wg-admin-labs</text><rect x="509.4" y="9.5" width="44.8" height="17" rx="8.5" fill="#ffffff" stroke="#c3cddb"/><text x="516.4" y="21.8" font-size="10.5" fill="#44546a">+1 tag</text></g>
<g class="group group--vnet"><rect x="32.8" y="56.8" width="360.5" height="510.5" rx="12" fill="#2563eb" fill-opacity="0.05"/><path d="M32.8 92V68Q32.8 56.8 44 56.8H382Q393.3 56.8 393.3 68V92Z" fill="#eaf0fa"/><rect x="32.8" y="56.8" width="360.5" height="510.5" rx="12" fill="none" stroke="#2563eb" stroke-width="1.5"/><use href="#az-virtual-networks" xlink:href="#az-virtual-networks" x="44" y="66" width="16" height="16"/><text x="66" y="78.3" font-size="12" font-weight="600" fill="#0f1b2d">vnet-azure</text><text x="134.8" y="78" font-size="11" font-family="Consolas, 'Cascadia Mono', Menlo, monospace" fill="#44546a">10.71.192.0/20</text><rect x="234.8" y="65.5" width="125.9" height="17" rx="8.5" fill="#ffffff" stroke="#c3cddb"/><text x="241.8" y="77.8" font-size="10.5" fill="#44546a">Peered to the gateway</text></g>
<g class="group group--subnet"><rect x="64.5" y="112.5" width="263" height="163" rx="10" fill="#2563eb" fill-opacity="0.08"/><path d="M64.5 140V122Q64.5 112.5 74 112.5H318Q327.5 112.5 327.5 122V140Z" fill="#dae5f9"/><rect x="64.5" y="112.5" width="263" height="163" rx="10" fill="none" stroke="#97b3ed" stroke-width="1"/><use href="#az-subnet" xlink:href="#az-subnet" x="74" y="118" width="16" height="16"/><text x="96" y="130.1" font-size="11.5" font-weight="600" fill="#0f1b2d">GatewaySubnet</text><text x="192.2" y="130" font-size="11" font-family="Consolas, 'Cascadia Mono', Menlo, monospace" fill="#44546a">10.71.192.0/27</text></g>
<g class="group group--subnet"><rect x="64.5" y="372.5" width="263" height="163" rx="10" fill="#2563eb" fill-opacity="0.08"/><path d="M64.5 400V382Q64.5 372.5 74 372.5H318Q327.5 372.5 327.5 382V400Z" fill="#dae5f9"/><rect x="64.5" y="372.5" width="263" height="163" rx="10" fill="none" stroke="#97b3ed" stroke-width="1"/><use href="#az-subnet" xlink:href="#az-subnet" x="74" y="378" width="16" height="16"/><text x="96" y="390.1" font-size="11.5" font-weight="600" fill="#0f1b2d">snet-app</text><text x="151.2" y="390" font-size="11" font-family="Consolas, 'Cascadia Mono', Menlo, monospace" fill="#44546a">10.71.193.0/24</text></g>
<g class="group group--vnet"><rect x="490.8" y="56.8" width="326.5" height="510.5" rx="12" fill="#2563eb" fill-opacity="0.05"/><path d="M490.8 92V68Q490.8 56.8 502 56.8H806Q817.3 56.8 817.3 68V92Z" fill="#eaf0fa"/><rect x="490.8" y="56.8" width="326.5" height="510.5" rx="12" fill="none" stroke="#2563eb" stroke-width="1.5"/><use href="#az-virtual-networks" xlink:href="#az-virtual-networks" x="502" y="66" width="16" height="16"/><text x="524" y="78.3" font-size="12" font-weight="600" fill="#0f1b2d">vnet-onprem</text><text x="604" y="78" font-size="11" font-family="Consolas, 'Cascadia Mono', Menlo, monospace" fill="#44546a">10.71.208.0/20</text></g>
<g class="group group--subnet"><rect x="522.5" y="112.5" width="263" height="163" rx="10" fill="#2563eb" fill-opacity="0.08"/><path d="M522.5 140V122Q522.5 112.5 532 112.5H776Q785.5 112.5 785.5 122V140Z" fill="#dae5f9"/><rect x="522.5" y="112.5" width="263" height="163" rx="10" fill="none" stroke="#97b3ed" stroke-width="1"/><use href="#az-subnet" xlink:href="#az-subnet" x="532" y="118" width="16" height="16"/><text x="554" y="130.1" font-size="11.5" font-weight="600" fill="#0f1b2d">GatewaySubnet</text><text x="650.2" y="130" font-size="11" font-family="Consolas, 'Cascadia Mono', Menlo, monospace" fill="#44546a">10.71.208.0/27</text></g>
<g class="group group--subnet"><rect x="522.5" y="372.5" width="263" height="163" rx="10" fill="#2563eb" fill-opacity="0.08"/><path d="M522.5 400V382Q522.5 372.5 532 372.5H776Q785.5 372.5 785.5 382V400Z" fill="#dae5f9"/><rect x="522.5" y="372.5" width="263" height="163" rx="10" fill="none" stroke="#97b3ed" stroke-width="1"/><use href="#az-subnet" xlink:href="#az-subnet" x="532" y="378" width="16" height="16"/><text x="554" y="390.1" font-size="11.5" font-weight="600" fill="#0f1b2d">snet-onprem</text><text x="630.9" y="390" font-size="11" font-family="Consolas, 'Cascadia Mono', Menlo, monospace" fill="#44546a">10.71.209.0/24</text></g>
<path d="M132 664 L132 522 Q132 514 124 514 L56 514 Q48 514 48 506 L48 210 Q48 202 56 202 L96 202" fill="none" stroke="#5f6f86" stroke-width="1.2" stroke-dasharray="5 4" stroke-linejoin="round"/>
<path d="M485.3 664 L485.3 224 Q485.3 216 493.3 216 L554 216" fill="none" stroke="#5f6f86" stroke-width="1.2" stroke-dasharray="5 4" stroke-linejoin="round"/>
<path d="M296 202 L410.7 202 Q418.7 202 418.7 210 L418.7 664" fill="none" stroke="#0b62b0" stroke-width="2" stroke-linejoin="round" marker-end="url(#arrow-1)"/>
<path d="M554 188 L350 188 Q342 188 342 196 L342 698 Q342 706 334 706 L232 706" fill="none" stroke="#c2410c" stroke-width="2" stroke-linejoin="round" marker-end="url(#arrow-2)"/>
<g class="card card--vpnGateway"><rect x="96" y="161.5" width="200" height="84" rx="10" fill="#0f1b2d" fill-opacity="0.07"/><rect x="96.5" y="160.5" width="199" height="83" rx="10" fill="#ffffff" stroke="#c3cddb"/><use href="#az-virtual-network-gateways" xlink:href="#az-virtual-network-gateways" x="106" y="170" width="32" height="32"/><text x="148" y="183" font-size="12" font-weight="600" fill="#0f1b2d">vpngw-azure</text><text x="148" y="199" font-size="11" fill="#44546a">VPN gateway</text><text x="148" y="215" font-size="11" fill="#44546a">VpnGw1AZ</text><text x="214.2" y="215" font-size="11" fill="#44546a">65010</text></g>
<g class="card card--vm"><rect x="96" y="421.5" width="200" height="84" rx="10" fill="#0f1b2d" fill-opacity="0.07"/><rect x="96.5" y="420.5" width="199" height="83" rx="10" fill="#ffffff" stroke="#c3cddb"/><use href="#az-virtual-machine" xlink:href="#az-virtual-machine" x="106" y="430" width="32" height="32"/><text x="148" y="443" font-size="12" font-weight="600" fill="#0f1b2d">vm-azure</text><text x="148" y="459" font-size="11" fill="#44546a">VM</text><text x="148" y="475" font-size="11" fill="#44546a">Standard_B1s</text></g>
<g class="card card--vpnGateway"><rect x="554" y="161.5" width="200" height="84" rx="10" fill="#0f1b2d" fill-opacity="0.07"/><rect x="554.5" y="160.5" width="199" height="83" rx="10" fill="#ffffff" stroke="#c3cddb"/><use href="#az-virtual-network-gateways" xlink:href="#az-virtual-network-gateways" x="564" y="170" width="32" height="32"/><text x="606" y="183" font-size="12" font-weight="600" fill="#0f1b2d">vpngw-onprem</text><text x="606" y="199" font-size="11" fill="#44546a">VPN gateway</text><text x="606" y="215" font-size="11" fill="#44546a">VpnGw1AZ</text><text x="672.2" y="215" font-size="11" fill="#44546a">65020</text></g>
<g class="card card--vm"><rect x="554" y="421.5" width="200" height="84" rx="10" fill="#0f1b2d" fill-opacity="0.07"/><rect x="554.5" y="420.5" width="199" height="83" rx="10" fill="#ffffff" stroke="#c3cddb"/><use href="#az-virtual-machine" xlink:href="#az-virtual-machine" x="564" y="430" width="32" height="32"/><text x="606" y="443" font-size="12" font-weight="600" fill="#0f1b2d">vm-onprem</text><text x="606" y="459" font-size="11" fill="#44546a">VM</text><text x="606" y="475" font-size="11" fill="#44546a">Standard_B1s</text></g>
<g class="card card--localNetworkGateway"><rect x="32" y="665.5" width="200" height="84" rx="10" fill="#0f1b2d" fill-opacity="0.07"/><rect x="32.5" y="664.5" width="199" height="83" rx="10" fill="#ffffff" stroke="#c3cddb"/><use href="#az-local-network-gateways" xlink:href="#az-local-network-gateways" x="42" y="674" width="32" height="32"/><text x="84" y="687" font-size="12" font-weight="600" fill="#0f1b2d">lgw-azure</text><text x="84" y="703" font-size="11" fill="#44546a">Local network gateway</text><text x="84" y="719" font-size="11" font-family="Consolas, 'Cascadia Mono', Menlo, monospace" fill="#44546a">10.71.192.0/20</text><text x="185.9" y="719" font-size="11" fill="#44546a">65010</text></g>
<g class="card card--localNetworkGateway"><rect x="352" y="665.5" width="200" height="84" rx="10" fill="#0f1b2d" fill-opacity="0.07"/><rect x="352.5" y="664.5" width="199" height="83" rx="10" fill="#ffffff" stroke="#c3cddb"/><use href="#az-local-network-gateways" xlink:href="#az-local-network-gateways" x="362" y="674" width="32" height="32"/><text x="404" y="687" font-size="12" font-weight="600" fill="#0f1b2d">lgw-onprem</text><text x="404" y="703" font-size="11" fill="#44546a">Local network gateway</text><text x="404" y="719" font-size="11" font-family="Consolas, 'Cascadia Mono', Menlo, monospace" fill="#44546a">10.71.208.0/20</text><text x="505.9" y="719" font-size="11" fill="#44546a">65020</text></g>
<rect x="-7.5" y="348" width="111" height="20" rx="9" fill="#ffffff" stroke="#c3cddb" stroke-width="1.5" stroke-dasharray="3 2"/><text x="48" y="361.8" font-size="10.5" fill="#44546a" font-weight="500" text-anchor="middle">gateway address</text>
<rect x="429.8" y="405.8" width="111" height="20" rx="9" fill="#ffffff" stroke="#c3cddb" stroke-width="1.5" stroke-dasharray="3 2"/><text x="485.3" y="419.6" font-size="10.5" fill="#44546a" font-weight="500" text-anchor="middle">gateway address</text>
<rect x="378.6" y="360" width="80.1" height="20" rx="9" fill="#ffffff" stroke="#0b62b0" stroke-width="1.5"/><text x="418.7" y="373.8" font-size="10.5" fill="#0f1b2d" font-weight="600" text-anchor="middle">IPsec, BGP</text>
<rect x="301.9" y="406.9" width="80.1" height="20" rx="9" fill="#ffffff" stroke="#c2410c" stroke-width="1.5"/><text x="342" y="420.7" font-size="10.5" fill="#0f1b2d" font-weight="600" text-anchor="middle">IPsec, BGP</text>
<g class="legend" font-size="11.5" fill="#44546a">
<line x1="-7.5" y1="808" x2="16.5" y2="808" stroke="#44546a" stroke-width="2"/>
<text x="22.5" y="812">Traffic (solid)</text>
<line x1="119.7" y1="808" x2="143.7" y2="808" stroke="#5f6f86" stroke-width="1.2" stroke-dasharray="5 4"/>
<text x="149.7" y="812">Dependency (dashed)</text>
<line x1="287.9" y1="808" x2="311.9" y2="808" stroke="#0b62b0" stroke-width="2"/>
<text x="317.9" y="812">from vpngw-azure</text>
<line x1="437.6" y1="808" x2="461.6" y2="808" stroke="#c2410c" stroke-width="2"/>
<text x="467.6" y="812">from vpngw-onprem</text>
</g>
</svg>
